<ttFont>
    <TTGlyph name="A" xMin="-8" yMin="0" xMax="470" yMax="637">
      <contour>
        <pt x="447" y="0" on="1"/>
        <pt x="441" y="43" on="1"/>
        <pt x="404" y="213" on="1"/>
        <pt x="121" y="213" on="1"/>
        <pt x="36" y="43" on="1"/>
        <pt x="16" y="0" on="1"/>
        <pt x="-8" y="0" on="1"/>
        <pt x="311" y="637" on="1"/>
        <pt x="332" y="637" on="1"/>
        <pt x="470" y="0" on="1"/>
      </contour>
      <contour>
        <pt x="318" y="603" on="1"/>
        <pt x="315" y="603" on="1"/>
        <pt x="131" y="233" on="1"/>
        <pt x="399" y="233" on="1"/>
      </contour>
    </TTGlyph>
    <TTGlyph name="AE" xMin="-42" yMin="0" xMax="695" yMax="637">
      <contour>
        <pt x="689" y="0" on="1"/>
        <pt x="403" y="0" on="1"/>
        <pt x="403" y="43" on="1"/>
        <pt x="395" y="290" on="1"/>
        <pt x="146" y="247" on="1"/>
        <pt x="11" y="43" on="1"/>
        <pt x="-15" y="0" on="1"/>
        <pt x="-42" y="0" on="1"/>
        <pt x="384" y="637" on="1"/>
        <pt x="669" y="637" on="1"/>
        <pt x="671" y="633" on="1"/>
        <pt x="664" y="617" on="1"/>
        <pt x="406" y="617" on="1"/>
        <pt x="415" y="313" on="1"/>
        <pt x="642" y="352" on="1"/>
        <pt x="644" y="349" on="1"/>
        <pt x="639" y="332" on="1"/>
        <pt x="415" y="294" on="1"/>
        <pt x="423" y="20" on="1"/>
        <pt x="694" y="20" on="1"/>
        <pt x="695" y="16" on="1"/>
      </contour>
      <contour>
        <pt x="385" y="602" on="1"/>
        <pt x="382" y="602" on="1"/>
        <pt x="162" y="270" on="1"/>
        <pt x="394" y="310" on="1"/>
      </contour>
    </TTGlyph>
    <TTGlyph name="AEacute" xMin="-42" yMin="0" xMax="695" yMax="836">
      <component glyphName="AE" x="0" y="0" flags="0x1000"/>
      <component glyphName="acute.cap" x="304" y="185" flags="0x1000"/>
    </TTGlyph>
    <TTGlyph name="Aacute" xMin="-8" yMin="0" xMax="470" yMax="836">
      <component glyphName="A" x="0" y="0" flags="0x1000"/>
      <component glyphName="acute.cap" x="107" y="185" flags="0x1000"/>
    </TTGlyph>
    <TTGlyph name="Abreve" xMin="-8" yMin="0" xMax="470" yMax="813">
      <component glyphName="A" x="0" y="0" flags="0x1000"/>
      <component glyphName="breve.cap" x="93" y="185" flags="0x1000"/>
    </TTGlyph>
    <TTGlyph name="Abreveacute" xMin="-8" yMin="0" xMax="470" yMax="896">
      <component glyphName="A" x="0" y="0" flags="0x1000"/>
      <component glyphName="breveacute" x="96" y="185" flags="0x1000"/>
    </TTGlyph>
    <TTGlyph name="Abrevedotbelow" xMin="-8" yMin="-127" xMax="470" yMax="813">
      <contour>
        <pt x="290" y="728" on="0"/>
        <pt x="241" y="766" on="0"/>
        <pt x="235" y="802" on="1"/>
        <pt x="249" y="813" on="1"/>
        <pt x="254" y="813" on="1"/>
        <pt x="262" y="748" on="0"/>
        <pt x="328" y="748" on="1"/>
        <pt x="394" y="748" on="0"/>
        <pt x="419" y="813" on="1"/>
        <pt x="424" y="813" on="1"/>
        <pt x="436" y="802" on="1"/>
        <pt x="404" y="728" on="0"/>
        <pt x="327" y="728" on="1"/>
      </contour>
      <contour>
        <pt x="447" y="0" on="1"/>
        <pt x="441" y="43" on="1"/>
        <pt x="404" y="213" on="1"/>
        <pt x="121" y="213" on="1"/>
        <pt x="36" y="43" on="1"/>
        <pt x="16" y="0" on="1"/>
        <pt x="-8" y="0" on="1"/>
        <pt x="311" y="637" on="1"/>
        <pt x="332" y="637" on="1"/>
        <pt x="470" y="0" on="1"/>
      </contour>
      <contour>
        <pt x="318" y="603" on="1"/>
        <pt x="315" y="603" on="1"/>
        <pt x="131" y="233" on="1"/>
        <pt x="399" y="233" on="1"/>
      </contour>
      <contour>
        <pt x="236" y="-87" on="0"/>
        <pt x="236" y="-107" on="1"/>
        <pt x="236" y="-127" on="0"/>
        <pt x="216" y="-127" on="1"/>
        <pt x="196" y="-127" on="0"/>
        <pt x="196" y="-107" on="1"/>
        <pt x="196" y="-87" on="0"/>
        <pt x="216" y="-87" on="1"/>
      </contour>
    </TTGlyph>
    <TTGlyph name="Abrevegrave" xMin="-8" yMin="0" xMax="470" yMax="896">
      <component glyphName="A" x="0" y="0" flags="0x1000"/>
      <component glyphName="brevegrave" x="96" y="185" flags="0x1000"/>
    </TTGlyph>
    <TTGlyph name="Abrevehookabove" xMin="-8" yMin="0" xMax="470" yMax="932">
      <component glyphName="A" x="0" y="0" flags="0x1000"/>
      <component glyphName="brevehookabove" x="96" y="185" flags="0x1000"/>
    </TTGlyph>
    <TTGlyph name="Abrevetilde" xMin="-8" yMin="0" xMax="485" yMax="907">
      <component glyphName="A" x="0" y="0" flags="0x1000"/>
      <component glyphName="brevetilde" x="96" y="185" flags="0x1000"/>
    </TTGlyph>
    <TTGlyph name="Acaron" xMin="-8" yMin="0" xMax="470" yMax="819">
      <component glyphName="A" x="0" y="0" flags="0x1000"/>
      <component glyphName="caron.cap" x="93" y="185" flags="0x1000"/>
    </TTGlyph>
    <TTGlyph name="Acircumflex" xMin="-8" yMin="0" xMax="470" yMax="826">
      <component glyphName="A" x="0" y="0" flags="0x1000"/>
      <component glyphName="circumflex.cap" x="101" y="185" flags="0x1000"/>
    </TTGlyph>
    <TTGlyph name="Acircumflexacute" xMin="-8" yMin="0" xMax="470" yMax="896">
      <component glyphName="A" x="0" y="0" flags="0x1000"/>
      <component glyphName="circumflexacute" x="96" y="185" flags="0x1000"/>
    </TTGlyph>
    <TTGlyph name="Acircumflexdotbelow" xMin="-8" yMin="-127" xMax="470" yMax="826">
      <contour>
        <pt x="230" y="750" on="1"/>
        <pt x="274" y="778" on="0"/>
        <pt x="336" y="826" on="1"/>
        <pt x="352" y="826" on="1"/>
        <pt x="412" y="774" on="0"/>
        <pt x="443" y="750" on="1"/>
        <pt x="435" y="736" on="1"/>
        <pt x="430" y="736" on="1"/>
        <pt x="390" y="765" on="0"/>
        <pt x="343" y="806" on="1"/>
        <pt x="296" y="771" on="0"/>
        <pt x="240" y="736" on="1"/>
        <pt x="235" y="736" on="1"/>
      </contour>
      <contour>
        <pt x="447" y="0" on="1"/>
        <pt x="441" y="43" on="1"/>
        <pt x="404" y="213" on="1"/>
        <pt x="121" y="213" on="1"/>
        <pt x="36" y="43" on="1"/>
        <pt x="16" y="0" on="1"/>
        <pt x="-8" y="0" on="1"/>
        <pt x="311" y="637" on="1"/>
        <pt x="332" y="637" on="1"/>
        <pt x="470" y="0" on="1"/>
      </contour>
      <contour>
        <pt x="318" y="603" on="1"/>
        <pt x="315" y="603" on="1"/>
        <pt x="131" y="233" on="1"/>
        <pt x="399" y="233" on="1"/>
      </contour>
      <contour>
        <pt x="236" y="-87" on="0"/>
        <pt x="236" y="-107" on="1"/>
        <pt x="236" y="-127" on="0"/>
        <pt x="216" y="-127" on="1"/>
        <pt x="196" y="-127" on="0"/>
        <pt x="196" y="-107" on="1"/>
        <pt x="196" y="-87" on="0"/>
        <pt x="216" y="-87" on="1"/>
      </contour>
    </TTGlyph>
    <TTGlyph name="Acircumflexgrave" xMin="-8" yMin="0" xMax="470" yMax="895">
      <component glyphName="A" x="0" y="0" flags="0x1000"/>
      <component glyphName="circumflexgrave" x="96" y="185" flags="0x1000"/>
    </TTGlyph>
    <TTGlyph name="Acircumflexhookabove" xMin="-8" yMin="0" xMax="470" yMax="922">
      <component glyphName="A" x="0" y="0" flags="0x1000"/>
      <component glyphName="circumflexhookabove" x="96" y="185" flags="0x1000"/>
    </TTGlyph>
    <TTGlyph name="Acircumflextilde" xMin="-8" yMin="0" xMax="491" yMax="907">
      <component glyphName="A" x="0" y="0" flags="0x1000"/>
      <component glyphName="circumflextilde" x="96" y="185" flags="0x1000"/>
    </TTGlyph>
    <TTGlyph name="Adieresis" xMin="-8" yMin="0" xMax="470" yMax="801">
      <component glyphName="A" x="0" y="0" flags="0x1000"/>
      <component glyphName="dieresis" x="97" y="185" flags="0x1000"/>
    </TTGlyph>
    <TTGlyph name="Adotbelow" xMin="-8" yMin="-127" xMax="470" yMax="637">
      <component glyphName="A" x="0" y="0" flags="0x1000"/>
      <component glyphName="dotbelowcomb" x="62" y="0" flags="0x1000"/>
    </TTGlyph>
    <TTGlyph name="Agrave" xMin="-8" yMin="0" xMax="470" yMax="836">
      <component glyphName="A" x="0" y="0" flags="0x1000"/>
      <component glyphName="grave.cap" x="96" y="185" flags="0x1000"/>
    </TTGlyph>
    <TTGlyph name="Ahookabove" xMin="-8" yMin="0" xMax="470" yMax="862">
      <component glyphName="A" x="0" y="0" flags="0x1000"/>
      <component glyphName="hookabove" x="70" y="185" flags="0x1000"/>
    </TTGlyph>
    <TTGlyph name="Amacron" xMin="-8" yMin="0" xMax="484" yMax="792">
      <component glyphName="A" x="0" y="0" flags="0x1000"/>
      <component glyphName="macron" x="97" y="185" flags="0x1000"/>
    </TTGlyph>
    <TTGlyph name="Aogonek" xMin="-8" yMin="-196" xMax="471" yMax="637">
      <contour>
        <pt x="432" y="-196" on="0"/>
        <pt x="390" y="-196" on="1"/>
        <pt x="341" y="-196" on="0"/>
        <pt x="341" y="-147" on="1"/>
        <pt x="341" y="-132" on="0"/>
        <pt x="354" y="-102" on="0"/>
        <pt x="400" y="-46" on="0"/>
        <pt x="447" y="0" on="1"/>
        <pt x="441" y="43" on="1"/>
        <pt x="404" y="213" on="1"/>
        <pt x="121" y="213" on="1"/>
        <pt x="36" y="43" on="1"/>
        <pt x="16" y="0" on="1"/>
        <pt x="-8" y="0" on="1"/>
        <pt x="311" y="637" on="1"/>
        <pt x="332" y="637" on="1"/>
        <pt x="470" y="0" on="1"/>
        <pt x="407" y="-63" on="0"/>
        <pt x="362" y="-123" on="0"/>
        <pt x="362" y="-145" on="1"/>
        <pt x="362" y="-176" on="0"/>
        <pt x="393" y="-176" on="1"/>
        <pt x="427" y="-176" on="0"/>
        <pt x="462" y="-123" on="1"/>
        <pt x="464" y="-123" on="1"/>
        <pt x="471" y="-139" on="1"/>
      </contour>
      <contour>
        <pt x="318" y="603" on="1"/>
        <pt x="315" y="603" on="1"/>
        <pt x="131" y="233" on="1"/>
        <pt x="399" y="233" on="1"/>
      </contour>
    </TTGlyph>
    <TTGlyph name="Aring" xMin="-8" yMin="0" xMax="470" yMax="853">
      <component glyphName="A" x="0" y="0" flags="0x1000"/>
      <component glyphName="ring" x="97" y="185" flags="0x1000"/>
    </TTGlyph>
    <TTGlyph name="Aringacute" xMin="-8" yMin="0" xMax="470" yMax="854">
      <contour>
        <pt x="258" y="792" on="1"/>
        <pt x="357" y="820" on="0"/>
        <pt x="447" y="854" on="1"/>
        <pt x="452" y="851" on="1"/>
        <pt x="457" y="838" on="1"/>
        <pt x="454" y="834" on="1"/>
        <pt x="385" y="809" on="0"/>
        <pt x="266" y="772" on="1"/>
        <pt x="262" y="776" on="1"/>
      </contour>
      <contour>
        <pt x="447" y="0" on="1"/>
        <pt x="440" y="43" on="1"/>
        <pt x="403" y="213" on="1"/>
        <pt x="120" y="213" on="1"/>
        <pt x="35" y="43" on="1"/>
        <pt x="16" y="0" on="1"/>
        <pt x="-8" y="0" on="1"/>
        <pt x="303" y="618" on="1"/>
        <pt x="282" y="625" on="0"/>
        <pt x="256" y="660" on="0"/>
        <pt x="256" y="684" on="1"/>
        <pt x="256" y="714" on="0"/>
        <pt x="295" y="753" on="0"/>
        <pt x="326" y="753" on="1"/>
        <pt x="359" y="753" on="0"/>
        <pt x="397" y="711" on="0"/>
        <pt x="397" y="683" on="1"/>
        <pt x="397" y="655" on="0"/>
        <pt x="362" y="619" on="0"/>
        <pt x="337" y="615" on="1"/>
        <pt x="470" y="0" on="1"/>
      </contour>
      <contour>
        <pt x="276" y="661" on="0"/>
        <pt x="305" y="634" on="0"/>
        <pt x="326" y="634" on="1"/>
        <pt x="347" y="634" on="0"/>
        <pt x="377" y="660" on="0"/>
        <pt x="377" y="683" on="1"/>
        <pt x="377" y="704" on="0"/>
        <pt x="350" y="733" on="0"/>
        <pt x="326" y="733" on="1"/>
        <pt x="303" y="733" on="0"/>
        <pt x="276" y="706" on="0"/>
        <pt x="276" y="684" on="1"/>
      </contour>
      <contour>
        <pt x="318" y="603" on="1"/>
        <pt x="315" y="603" on="1"/>
        <pt x="130" y="233" on="1"/>
        <pt x="399" y="233" on="1"/>
      </contour>
    </TTGlyph>
    <TTGlyph name="Atilde" xMin="-8" yMin="0" xMax="476" yMax="816">
      <component glyphName="A" x="0" y="0" flags="0x1000"/>
      <component glyphName="tilde" x="97" y="185" flags="0x1000"/>
    </TTGlyph>
    <TTGlyph name="B" xMin="80" yMin="-3" xMax="423" yMax="639">
      <contour>
        <pt x="360" y="325" on="0"/>
        <pt x="423" y="256" on="0"/>
        <pt x="423" y="198" on="1"/>
        <pt x="423" y="103" on="0"/>
        <pt x="299" y="-3" on="0"/>
        <pt x="184" y="-3" on="1"/>
        <pt x="128" y="-3" on="0"/>
        <pt x="80" y="0" on="1"/>
        <pt x="105" y="195" on="1"/>
        <pt x="161" y="637" on="1"/>
        <pt x="277" y="639" on="1"/>
        <pt x="343" y="639" on="0"/>
        <pt x="415" y="573" on="0"/>
        <pt x="415" y="513" on="1"/>
        <pt x="415" y="378" on="0"/>
        <pt x="303" y="334" on="1"/>
      </contour>
      <contour>
        <pt x="265" y="340" on="1"/>
        <pt x="327" y="353" on="0"/>
        <pt x="394" y="442" on="0"/>
        <pt x="394" y="508" on="1"/>
        <pt x="394" y="559" on="0"/>
        <pt x="334" y="618" on="0"/>
        <pt x="282" y="618" on="1"/>
        <pt x="179" y="618" on="1"/>
        <pt x="144" y="343" on="1"/>
      </contour>
      <contour>
        <pt x="286" y="17" on="0"/>
        <pt x="402" y="111" on="0"/>
        <pt x="402" y="195" on="1"/>
        <pt x="402" y="250" on="0"/>
        <pt x="335" y="315" on="0"/>
        <pt x="272" y="320" on="1"/>
        <pt x="141" y="320" on="1"/>
        <pt x="125" y="195" on="1"/>
        <pt x="103" y="20" on="1"/>
        <pt x="141" y="17" on="0"/>
        <pt x="181" y="17" on="1"/>
      </contour>
    </TTGlyph>
    <TTGlyph name="C" xMin="55" yMin="-5" xMax="510" yMax="641">
      <contour>
        <pt x="395" y="641" on="0"/>
        <pt x="479" y="610" on="0"/>
        <pt x="510" y="582" on="1"/>
        <pt x="501" y="565" on="1"/>
        <pt x="494" y="565" on="1"/>
        <pt x="435" y="621" on="0"/>
        <pt x="348" y="621" on="1"/>
        <pt x="262" y="621" on="0"/>
        <pt x="139" y="532" on="0"/>
        <pt x="75" y="367" on="0"/>
        <pt x="75" y="253" on="1"/>
        <pt x="75" y="138" on="0"/>
        <pt x="170" y="15" on="0"/>
        <pt x="261" y="15" on="1"/>
        <pt x="355" y="15" on="0"/>
        <pt x="441" y="82" on="1"/>
        <pt x="448" y="80" on="1"/>
        <pt x="444" y="62" on="1"/>
        <pt x="352" y="-5" on="0"/>
        <pt x="260" y="-5" on="1"/>
        <pt x="160" y="-5" on="0"/>
        <pt x="55" y="128" on="0"/>
        <pt x="55" y="251" on="1"/>
        <pt x="55" y="372" on="0"/>
        <pt x="125" y="547" on="0"/>
        <pt x="257" y="641" on="0"/>
        <pt x="350" y="641" on="1"/>
      </contour>
    </TTGlyph>
    <TTGlyph name="C.ss01" xMin="-124" yMin="0" xMax="566" yMax="491">
      <contour>
        <pt x="377" y="471" on="1"/>
        <pt x="404" y="458" on="0"/>
        <pt x="419" y="446" on="1"/>
        <pt x="410" y="428" on="1"/>
        <pt x="404" y="428" on="1"/>
        <pt x="358" y="471" on="0"/>
        <pt x="289" y="471" on="1"/>
        <pt x="187" y="471" on="0"/>
        <pt x="74" y="327" on="0"/>
        <pt x="74" y="199" on="1"/>
        <pt x="74" y="112" on="0"/>
        <pt x="150" y="20" on="0"/>
        <pt x="223" y="20" on="1"/>
        <pt x="299" y="20" on="0"/>
        <pt x="366" y="70" on="1"/>
        <pt x="372" y="68" on="1"/>
        <pt x="368" y="50" on="1"/>
        <pt x="344" y="34" on="0"/>
        <pt x="311" y="20" on="1"/>
        <pt x="506" y="20" on="1"/>
        <pt x="504" y="0" on="1"/>
        <pt x="-124" y="0" on="1"/>
        <pt x="-122" y="20" on="1"/>
        <pt x="136" y="20" on="1"/>
        <pt x="54" y="64" on="0"/>
        <pt x="54" y="197" on="1"/>
        <pt x="54" y="301" on="0"/>
        <pt x="127" y="442" on="0"/>
        <pt x="195" y="471" on="1"/>
        <pt x="-64" y="471" on="1"/>
        <pt x="-62" y="491" on="1"/>
        <pt x="566" y="491" on="1"/>
        <pt x="564" y="471" on="1"/>
      </contour>
    </TTGlyph>
    <TTGlyph name="Cacute" xMin="55" yMin="-5" xMax="510" yMax="836">
      <component glyphName="C" x="0" y="0" flags="0x1000"/>
      <component glyphName="acute.cap" x="123" y="185" flags="0x1000"/>
    </TTGlyph>
    <TTGlyph name="Ccaron" xMin="55" yMin="-5" xMax="510" yMax="819">
      <component glyphName="C" x="0" y="0" flags="0x1000"/>
      <component glyphName="caron.cap" x="109" y="185" flags="0x1000"/>
    </TTGlyph>
    <TTGlyph name="Ccedilla" xMin="55" yMin="-178" xMax="510" yMax="641">
      <contour>
        <pt x="395" y="641" on="0"/>
        <pt x="479" y="610" on="0"/>
        <pt x="510" y="582" on="1"/>
        <pt x="501" y="565" on="1"/>
        <pt x="494" y="565" on="1"/>
        <pt x="435" y="621" on="0"/>
        <pt x="348" y="621" on="1"/>
        <pt x="262" y="621" on="0"/>
        <pt x="139" y="532" on="0"/>
        <pt x="75" y="367" on="0"/>
        <pt x="75" y="253" on="1"/>
        <pt x="75" y="138" on="0"/>
        <pt x="170" y="15" on="0"/>
        <pt x="261" y="15" on="1"/>
        <pt x="355" y="15" on="0"/>
        <pt x="441" y="82" on="1"/>
        <pt x="448" y="80" on="1"/>
        <pt x="444" y="62" on="1"/>
        <pt x="360" y="2" on="0"/>
        <pt x="279" y="-4" on="1"/>
        <pt x="263" y="-55" on="1"/>
        <pt x="294" y="-75" on="1"/>
        <pt x="327" y="-96" on="0"/>
        <pt x="327" y="-125" on="1"/>
        <pt x="327" y="-149" on="0"/>
        <pt x="292" y="-178" on="0"/>
        <pt x="267" y="-178" on="1"/>
        <pt x="230" y="-178" on="0"/>
        <pt x="208" y="-145" on="1"/>
        <pt x="214" y="-127" on="1"/>
        <pt x="218" y="-127" on="1"/>
        <pt x="228" y="-143" on="0"/>
        <pt x="250" y="-158" on="0"/>
        <pt x="267" y="-158" on="1"/>
        <pt x="285" y="-158" on="0"/>
        <pt x="307" y="-141" on="0"/>
        <pt x="307" y="-125" on="1"/>
        <pt x="307" y="-114" on="0"/>
        <pt x="296" y="-101" on="0"/>
        <pt x="283" y="-92" on="1"/>
        <pt x="240" y="-64" on="1"/>
        <pt x="259" y="-5" on="1"/>
        <pt x="160" y="-4" on="0"/>
        <pt x="55" y="128" on="0"/>
        <pt x="55" y="251" on="1"/>
        <pt x="55" y="372" on="0"/>
        <pt x="125" y="547" on="0"/>
        <pt x="257" y="641" on="0"/>
        <pt x="350" y="641" on="1"/>
      </contour>
    </TTGlyph>
    <TTGlyph name="Ccircumflex" xMin="55" yMin="-5" xMax="510" yMax="826">
      <component glyphName="C" x="0" y="0" flags="0x1000"/>
      <component glyphName="circumflex.cap" x="117" y="185" flags="0x1000"/>
    </TTGlyph>
    <TTGlyph name="Cdotaccent" xMin="55" yMin="-5" xMax="510" yMax="815">
      <component glyphName="C" x="0" y="0" flags="0x1000"/>
      <component glyphName="dotaccent" x="113" y="185" flags="0x1000"/>
    </TTGlyph>
    <TTGlyph name="D" xMin="80" yMin="-5" xMax="579" yMax="642">
      <contour>
        <pt x="461" y="642" on="0"/>
        <pt x="579" y="513" on="0"/>
        <pt x="579" y="393" on="1"/>
        <pt x="579" y="272" on="0"/>
        <pt x="504" y="93" on="0"/>
        <pt x="360" y="-5" on="0"/>
        <pt x="260" y="-5" on="1"/>
        <pt x="185" y="-5" on="0"/>
        <pt x="80" y="0" on="1"/>
        <pt x="105" y="195" on="1"/>
        <pt x="160" y="637" on="1"/>
        <pt x="350" y="642" on="1"/>
      </contour>
      <contour>
        <pt x="355" y="15" on="0"/>
        <pt x="488" y="107" on="0"/>
        <pt x="558" y="276" on="0"/>
        <pt x="558" y="390" on="1"/>
        <pt x="558" y="502" on="0"/>
        <pt x="450" y="622" on="0"/>
        <pt x="348" y="622" on="1"/>
        <pt x="270" y="622" on="0"/>
        <pt x="178" y="617" on="1"/>
        <pt x="125" y="195" on="1"/>
        <pt x="102" y="19" on="1"/>
        <pt x="270" y="15" on="0"/>
        <pt x="263" y="15" on="1"/>
      </contour>
    </TTGlyph>
    <TTGlyph name="D.ss01" xMin="-124" yMin="0" xMax="654" yMax="491">
      <contour>
        <pt x="384" y="471" on="1"/>
        <pt x="477" y="428" on="0"/>
        <pt x="477" y="298" on="1"/>
        <pt x="477" y="195" on="0"/>
        <pt x="399" y="50" on="0"/>
        <pt x="327" y="20" on="1"/>
        <pt x="594" y="20" on="1"/>
        <pt x="592" y="0" on="1"/>
        <pt x="-124" y="0" on="1"/>
        <pt x="-122" y="20" on="1"/>
        <pt x="78" y="20" on="1"/>
        <pt x="95" y="151" on="1"/>
        <pt x="135" y="471" on="1"/>
        <pt x="-64" y="471" on="1"/>
        <pt x="-62" y="491" on="1"/>
        <pt x="654" y="491" on="1"/>
        <pt x="652" y="471" on="1"/>
      </contour>
      <contour>
        <pt x="456" y="379" on="0"/>
        <pt x="370" y="470" on="0"/>
        <pt x="289" y="470" on="1"/>
        <pt x="154" y="466" on="1"/>
        <pt x="115" y="152" on="1"/>
        <pt x="98" y="23" on="1"/>
        <pt x="169" y="20" on="1"/>
        <pt x="249" y="20" on="1"/>
        <pt x="347" y="28" on="0"/>
        <pt x="456" y="174" on="0"/>
        <pt x="456" y="295" on="1"/>
      </contour>
    </TTGlyph>
    <TTGlyph name="Dcaron" xMin="80" yMin="-5" xMax="579" yMax="819">
      <component glyphName="D" x="0" y="0" flags="0x1000"/>
      <component glyphName="caron.cap" x="108" y="185" flags="0x1000"/>
    </TTGlyph>
    <TTGlyph name="Dcroat" xMin="80" yMin="-5" xMax="579" yMax="792">
      <component glyphName="D" x="0" y="0" flags="0x1000"/>
      <component glyphName="macron" x="112" y="185" flags="0x1000"/>
    </TTGlyph>
    <TTGlyph name="Delta" xMin="-8" yMin="0" xMax="470" yMax="637">
      <contour>
        <pt x="-8" y="0" on="1"/>
        <pt x="310" y="637" on="1"/>
        <pt x="331" y="637" on="1"/>
        <pt x="470" y="0" on="1"/>
      </contour>
      <contour>
        <pt x="23" y="20" on="1"/>
        <pt x="445" y="20" on="1"/>
        <pt x="319" y="603" on="1"/>
        <pt x="315" y="603" on="1"/>
      </contour>
    </TTGlyph>
    <TTGlyph name="E" xMin="80" yMin="0" xMax="453" yMax="637">
      <contour>
        <pt x="143" y="340" on="1"/>
        <pt x="366" y="340" on="1"/>
        <pt x="369" y="336" on="1"/>
        <pt x="363" y="320" on="1"/>
        <pt x="141" y="320" on="1"/>
        <pt x="125" y="195" on="1"/>
        <pt x="103" y="20" on="1"/>
        <pt x="376" y="20" on="1"/>
        <pt x="379" y="16" on="1"/>
        <pt x="373" y="0" on="1"/>
        <pt x="80" y="0" on="1"/>
        <pt x="105" y="195" on="1"/>
        <pt x="160" y="637" on="1"/>
        <pt x="451" y="637" on="1"/>
        <pt x="453" y="633" on="1"/>
        <pt x="447" y="617" on="1"/>
        <pt x="178" y="617" on="1"/>
      </contour>
    </TTGlyph>
    <TTGlyph name="Eacute" xMin="80" yMin="0" xMax="453" yMax="836">
      <component glyphName="E" x="0" y="0" flags="0x1000"/>
      <component glyphName="acute.cap" x="99" y="185" flags="0x1000"/>
    </TTGlyph>
    <TTGlyph name="Ebreve" xMin="80" yMin="0" xMax="453" yMax="813">
      <component glyphName="E" x="0" y="0" flags="0x1000"/>
      <component glyphName="breve.cap" x="85" y="185" flags="0x1000"/>
    </TTGlyph>
    <TTGlyph name="Ecaron" xMin="80" yMin="0" xMax="453" yMax="819">
      <component glyphName="E" x="0" y="0" flags="0x1000"/>
      <component glyphName="caron.cap" x="85" y="185" flags="0x1000"/>
    </TTGlyph>
    <TTGlyph name="Ecircumflex" xMin="80" yMin="0" xMax="453" yMax="826">
      <component glyphName="E" x="0" y="0" flags="0x1000"/>
      <component glyphName="circumflex.cap" x="93" y="185" flags="0x1000"/>
    </TTGlyph>
    <TTGlyph name="Ecircumflexacute" xMin="80" yMin="0" xMax="459" yMax="896">
      <component glyphName="E" x="0" y="0" flags="0x1000"/>
      <component glyphName="circumflexacute" x="88" y="185" flags="0x1000"/>
    </TTGlyph>
    <TTGlyph name="Ecircumflexdotbelow" xMin="80" yMin="-127" xMax="453" yMax="826">
      <component glyphName="E" x="0" y="0" flags="0x1000"/>
      <component glyphName="dotbelowcomb" x="84" y="0" flags="0x1000"/>
      <component glyphName="circumflex.cap" x="93" y="185" flags="0x1000"/>
    </TTGlyph>
    <TTGlyph name="Ecircumflexgrave" xMin="80" yMin="0" xMax="453" yMax="895">
      <component glyphName="E" x="0" y="0" flags="0x1000"/>
      <component glyphName="circumflexgrave" x="88" y="185" flags="0x1000"/>
    </TTGlyph>
    <TTGlyph name="Ecircumflexhookabove" xMin="80" yMin="0" xMax="453" yMax="922">
      <component glyphName="E" x="0" y="0" flags="0x1000"/>
      <component glyphName="circumflexhookabove" x="88" y="185" flags="0x1000"/>
    </TTGlyph>
    <TTGlyph name="Ecircumflextilde" xMin="80" yMin="0" xMax="453" yMax="895">
      <component glyphName="E" x="0" y="0" flags="0x1000"/>
      <component glyphName="circumflexgrave" x="88" y="185" flags="0x1000"/>
    </TTGlyph>
    <TTGlyph name="Edieresis" xMin="80" yMin="0" xMax="453" yMax="801">
      <component glyphName="E" x="0" y="0" flags="0x1000"/>
      <component glyphName="dieresis" x="89" y="185" flags="0x1000"/>
    </TTGlyph>
    <TTGlyph name="Edotaccent" xMin="80" yMin="0" xMax="453" yMax="815">
      <component glyphName="E" x="0" y="0" flags="0x1000"/>
      <component glyphName="dotaccent" x="89" y="185" flags="0x1000"/>
    </TTGlyph>
    <TTGlyph name="Edotbelow" xMin="80" yMin="-127" xMax="453" yMax="637">
      <component glyphName="E" x="0" y="0" flags="0x1000"/>
      <component glyphName="dotbelowcomb" x="84" y="0" flags="0x1000"/>
    </TTGlyph>
    <TTGlyph name="Egrave" xMin="80" yMin="0" xMax="453" yMax="836">
      <component glyphName="E" x="0" y="0" flags="0x1000"/>
      <component glyphName="grave.cap" x="88" y="185" flags="0x1000"/>
    </TTGlyph>
    <TTGlyph name="Ehookabove" xMin="80" yMin="0" xMax="453" yMax="862">
      <component glyphName="E" x="0" y="0" flags="0x1000"/>
      <component glyphName="hookabove" x="62" y="185" flags="0x1000"/>
    </TTGlyph>
    <TTGlyph name="Emacron" xMin="80" yMin="0" xMax="476" yMax="792">
      <component glyphName="E" x="0" y="0" flags="0x1000"/>
      <component glyphName="macron" x="89" y="185" flags="0x1000"/>
    </TTGlyph>
    <TTGlyph name="Eng" xMin="80" yMin="-144" xMax="588" yMax="638">
      <contour>
        <pt x="512" y="39" on="1"/>
        <pt x="505" y="-20" on="0"/>
        <pt x="440" y="-102" on="0"/>
        <pt x="366" y="-144" on="1"/>
        <pt x="356" y="-133" on="1"/>
        <pt x="357" y="-127" on="1"/>
        <pt x="415" y="-94" on="0"/>
        <pt x="474" y="-33" on="0"/>
        <pt x="486" y="5" on="1"/>
        <pt x="177" y="595" on="1"/>
        <pt x="173" y="595" on="1"/>
        <pt x="124" y="199" on="1"/>
        <pt x="100" y="0" on="1"/>
        <pt x="80" y="0" on="1"/>
        <pt x="103" y="190" on="1"/>
        <pt x="159" y="637" on="1"/>
        <pt x="178" y="637" on="1"/>
        <pt x="489" y="42" on="1"/>
        <pt x="493" y="42" on="1"/>
        <pt x="568" y="636" on="1"/>
        <pt x="588" y="638" on="1"/>
        <pt x="530" y="176" on="1"/>
      </contour>
    </TTGlyph>
    <TTGlyph name="Eogonek" xMin="80" yMin="-197" xMax="453" yMax="637">
      <contour>
        <pt x="143" y="340" on="1"/>
        <pt x="366" y="340" on="1"/>
        <pt x="369" y="336" on="1"/>
        <pt x="363" y="320" on="1"/>
        <pt x="141" y="320" on="1"/>
        <pt x="125" y="195" on="1"/>
        <pt x="103" y="20" on="1"/>
        <pt x="376" y="20" on="1"/>
        <pt x="379" y="16" on="1"/>
        <pt x="373" y="0" on="1"/>
        <pt x="306" y="0" on="1"/>
        <pt x="253" y="-78" on="1"/>
        <pt x="233" y="-107" on="0"/>
        <pt x="233" y="-131" on="1"/>
        <pt x="233" y="-152" on="0"/>
        <pt x="257" y="-177" on="0"/>
        <pt x="278" y="-177" on="1"/>
        <pt x="320" y="-177" on="0"/>
        <pt x="359" y="-124" on="1"/>
        <pt x="361" y="-124" on="1"/>
        <pt x="372" y="-140" on="1"/>
        <pt x="328" y="-197" on="0"/>
        <pt x="278" y="-197" on="1"/>
        <pt x="249" y="-197" on="0"/>
        <pt x="213" y="-162" on="0"/>
        <pt x="213" y="-133" on="1"/>
        <pt x="213" y="-103" on="0"/>
        <pt x="234" y="-72" on="1"/>
        <pt x="282" y="0" on="1"/>
        <pt x="80" y="0" on="1"/>
        <pt x="105" y="195" on="1"/>
        <pt x="160" y="637" on="1"/>
        <pt x="451" y="637" on="1"/>
        <pt x="453" y="633" on="1"/>
        <pt x="447" y="617" on="1"/>
        <pt x="178" y="617" on="1"/>
      </contour>
    </TTGlyph>
    <TTGlyph name="Eth" xMin="31" yMin="-5" xMax="599" yMax="642">
      <contour>
        <pt x="481" y="642" on="0"/>
        <pt x="599" y="513" on="0"/>
        <pt x="599" y="393" on="1"/>
        <pt x="599" y="272" on="0"/>
        <pt x="524" y="93" on="0"/>
        <pt x="380" y="-5" on="0"/>
        <pt x="280" y="-5" on="1"/>
        <pt x="205" y="-5" on="0"/>
        <pt x="100" y="0" on="1"/>
        <pt x="125" y="195" on="1"/>
        <pt x="140" y="319" on="1"/>
        <pt x="32" y="319" on="1"/>
        <pt x="31" y="322" on="1"/>
        <pt x="33" y="339" on="1"/>
        <pt x="143" y="339" on="1"/>
        <pt x="180" y="637" on="1"/>
        <pt x="370" y="642" on="1"/>
      </contour>
      <contour>
        <pt x="375" y="15" on="0"/>
        <pt x="508" y="107" on="0"/>
        <pt x="578" y="276" on="0"/>
        <pt x="578" y="390" on="1"/>
        <pt x="578" y="502" on="0"/>
        <pt x="470" y="622" on="0"/>
        <pt x="368" y="622" on="1"/>
        <pt x="290" y="622" on="0"/>
        <pt x="198" y="617" on="1"/>
        <pt x="163" y="339" on="1"/>
        <pt x="343" y="339" on="1"/>
        <pt x="345" y="336" on="1"/>
        <pt x="342" y="319" on="1"/>
        <pt x="160" y="319" on="1"/>
        <pt x="145" y="195" on="1"/>
        <pt x="122" y="19" on="1"/>
        <pt x="290" y="15" on="0"/>
        <pt x="283" y="15" on="1"/>
      </contour>
    </TTGlyph>
    <TTGlyph name="Etilde" xMin="80" yMin="0" xMax="468" yMax="816">
      <component glyphName="E" x="0" y="0" flags="0x1000"/>
      <component glyphName="tilde" x="89" y="185" flags="0x1000"/>
    </TTGlyph>
    <TTGlyph name="Euro" xMin="16" yMin="-4" xMax="483" yMax="494">
      <contour>
        <pt x="428" y="494" on="0"/>
        <pt x="483" y="450" on="1"/>
        <pt x="475" y="432" on="1"/>
        <pt x="469" y="432" on="1"/>
        <pt x="419" y="474" on="0"/>
        <pt x="346" y="474" on="1"/>
        <pt x="185" y="474" on="0"/>
        <pt x="138" y="307" on="1"/>
        <pt x="355" y="307" on="1"/>
        <pt x="357" y="304" on="1"/>
        <pt x="353" y="287" on="1"/>
        <pt x="133" y="287" on="1"/>
        <pt x="122" y="240" on="0"/>
        <pt x="122" y="184" on="1"/>
        <pt x="340" y="184" on="1"/>
        <pt x="342" y="181" on="1"/>
        <pt x="338" y="164" on="1"/>
        <pt x="123" y="164" on="1"/>
        <pt x="129" y="92" on="0"/>
        <pt x="208" y="16" on="0"/>
        <pt x="278" y="16" on="1"/>
        <pt x="358" y="16" on="0"/>
        <pt x="428" y="66" on="1"/>
        <pt x="434" y="64" on="1"/>
        <pt x="430" y="46" on="1"/>
        <pt x="355" y="-4" on="0"/>
        <pt x="275" y="-4" on="1"/>
        <pt x="195" y="-4" on="0"/>
        <pt x="106" y="83" on="0"/>
        <pt x="100" y="164" on="1"/>
        <pt x="19" y="164" on="1"/>
        <pt x="16" y="167" on="1"/>
        <pt x="21" y="184" on="1"/>
        <pt x="100" y="184" on="1"/>
        <pt x="102" y="242" on="0"/>
        <pt x="111" y="287" on="1"/>
        <pt x="34" y="287" on="1"/>
        <pt x="32" y="290" on="1"/>
        <pt x="36" y="307" on="1"/>
        <pt x="116" y="307" on="1"/>
        <pt x="141" y="398" on="0"/>
        <pt x="261" y="494" on="0"/>
        <pt x="350" y="494" on="1"/>
      </contour>
    </TTGlyph>
    <TTGlyph name="F" xMin="80" yMin="0" xMax="444" yMax="637">
      <contour>
        <pt x="142" y="330" on="1"/>
        <pt x="356" y="330" on="1"/>
        <pt x="358" y="326" on="1"/>
        <pt x="352" y="310" on="1"/>
        <pt x="139" y="310" on="1"/>
        <pt x="125" y="195" on="1"/>
        <pt x="100" y="0" on="1"/>
        <pt x="80" y="0" on="1"/>
        <pt x="105" y="195" on="1"/>
        <pt x="160" y="637" on="1"/>
        <pt x="441" y="637" on="1"/>
        <pt x="444" y="633" on="1"/>
        <pt x="438" y="617" on="1"/>
        <pt x="178" y="617" on="1"/>
      </contour>
    </TTGlyph>
    <TTGlyph name="G" xMin="55" yMin="-4" xMax="542" yMax="641">
      <contour>
        <pt x="463" y="641" on="0"/>
        <pt x="542" y="587" on="1"/>
        <pt x="534" y="569" on="1"/>
        <pt x="527" y="569" on="1"/>
        <pt x="451" y="621" on="0"/>
        <pt x="375" y="621" on="1"/>
        <pt x="281" y="621" on="0"/>
        <pt x="146" y="533" on="0"/>
        <pt x="75" y="367" on="0"/>
        <pt x="75" y="252" on="1"/>
        <pt x="75" y="138" on="0"/>
        <pt x="173" y="15" on="0"/>
        <pt x="266" y="15" on="1"/>
        <pt x="310" y="15" on="0"/>
        <pt x="387" y="28" on="0"/>
        <pt x="447" y="45" on="1"/>
        <pt x="462" y="158" on="1"/>
        <pt x="471" y="236" on="1"/>
        <pt x="491" y="238" on="1"/>
        <pt x="482" y="158" on="1"/>
        <pt x="465" y="30" on="1"/>
        <pt x="398" y="10" on="0"/>
        <pt x="316" y="-4" on="0"/>
        <pt x="266" y="-4" on="1"/>
        <pt x="163" y="-4" on="0"/>
        <pt x="55" y="128" on="0"/>
        <pt x="55" y="250" on="1"/>
        <pt x="55" y="372" on="0"/>
        <pt x="132" y="548" on="0"/>
        <pt x="277" y="641" on="0"/>
        <pt x="378" y="641" on="1"/>
      </contour>
    </TTGlyph>
    <TTGlyph name="Gbreve" xMin="55" yMin="-4" xMax="542" yMax="813">
      <component glyphName="G" x="0" y="0" flags="0x1000"/>
      <component glyphName="breve.cap" x="118" y="185" flags="0x1000"/>
    </TTGlyph>
    <TTGlyph name="Gcircumflex" xMin="55" yMin="-4" xMax="542" yMax="826">
      <component glyphName="G" x="0" y="0" flags="0x1000"/>
      <component glyphName="circumflex.cap" x="126" y="185" flags="0x1000"/>
    </TTGlyph>
    <TTGlyph name="Gcommaaccent" xMin="55" yMin="-212" xMax="542" yMax="641">
      <component glyphName="G" x="0" y="0" flags="0x1000"/>
      <component glyphName="commaaccentcomb" x="156" y="0" flags="0x1000"/>
    </TTGlyph>
    <TTGlyph name="Gdieresis" xMin="55" yMin="-4" xMax="542" yMax="801">
      <component glyphName="G" x="0" y="0" flags="0x1000"/>
      <component glyphName="dieresis" x="122" y="185" flags="0x1000"/>
    </TTGlyph>
    <TTGlyph name="Gdotaccent" xMin="55" yMin="-4" xMax="542" yMax="815">
      <component glyphName="G" x="0" y="0" flags="0x1000"/>
      <component glyphName="dotaccent" x="122" y="185" flags="0x1000"/>
    </TTGlyph>
    <TTGlyph name="Gtilde" xMin="55" yMin="-4" xMax="542" yMax="816">
      <component glyphName="G" x="0" y="0" flags="0x1000"/>
      <component glyphName="tilde" x="122" y="185" flags="0x1000"/>
    </TTGlyph>
    <TTGlyph name="H" xMin="80" yMin="0" xMax="585" yMax="637">
      <contour>
        <pt x="530" y="195" on="1"/>
        <pt x="505" y="0" on="1"/>
        <pt x="485" y="0" on="1"/>
        <pt x="510" y="195" on="1"/>
        <pt x="525" y="314" on="1"/>
        <pt x="140" y="314" on="1"/>
        <pt x="125" y="195" on="1"/>
        <pt x="100" y="0" on="1"/>
        <pt x="80" y="0" on="1"/>
        <pt x="105" y="195" on="1"/>
        <pt x="160" y="637" on="1"/>
        <pt x="180" y="637" on="1"/>
        <pt x="142" y="334" on="1"/>
        <pt x="527" y="334" on="1"/>
        <pt x="565" y="637" on="1"/>
        <pt x="585" y="637" on="1"/>
      </contour>
    </TTGlyph>
    <TTGlyph name="Hbar" xMin="86" yMin="0" xMax="642" yMax="637">
      <contour>
        <pt x="575" y="484" on="1"/>
        <pt x="539" y="195" on="1"/>
        <pt x="514" y="0" on="1"/>
        <pt x="494" y="0" on="1"/>
        <pt x="519" y="195" on="1"/>
        <pt x="534" y="314" on="1"/>
        <pt x="149" y="314" on="1"/>
        <pt x="134" y="195" on="1"/>
        <pt x="109" y="0" on="1"/>
        <pt x="89" y="0" on="1"/>
        <pt x="114" y="195" on="1"/>
        <pt x="150" y="484" on="1"/>
        <pt x="89" y="484" on="1"/>
        <pt x="86" y="487" on="1"/>
        <pt x="88" y="504" on="1"/>
        <pt x="152" y="504" on="1"/>
        <pt x="169" y="637" on="1"/>
        <pt x="189" y="637" on="1"/>
        <pt x="172" y="504" on="1"/>
        <pt x="557" y="504" on="1"/>
        <pt x="574" y="637" on="1"/>
        <pt x="594" y="637" on="1"/>
        <pt x="577" y="504" on="1"/>
        <pt x="639" y="504" on="1"/>
        <pt x="642" y="501" on="1"/>
        <pt x="640" y="484" on="1"/>
      </contour>
      <contour>
        <pt x="170" y="484" on="1"/>
        <pt x="151" y="334" on="1"/>
        <pt x="536" y="334" on="1"/>
        <pt x="555" y="484" on="1"/>
      </contour>
    </TTGlyph>
    <TTGlyph name="Hcircumflex" xMin="80" yMin="0" xMax="585" yMax="826">
      <component glyphName="H" x="0" y="0" flags="0x1000"/>
      <component glyphName="circumflex.cap" x="153" y="185" flags="0x1000"/>
    </TTGlyph>
    <TTGlyph name="I" xMin="80" yMin="0" xMax="180" yMax="637">
      <contour>
        <pt x="100" y="0" on="1"/>
        <pt x="80" y="0" on="1"/>
        <pt x="105" y="195" on="1"/>
        <pt x="160" y="637" on="1"/>
        <pt x="180" y="637" on="1"/>
        <pt x="125" y="195" on="1"/>
      </contour>
    </TTGlyph>
    <TTGlyph name="I.ss01" xMin="-124" yMin="0" xMax="350" yMax="491">
      <contour>
        <pt x="290" y="20" on="1"/>
        <pt x="288" y="0" on="1"/>
        <pt x="-124" y="0" on="1"/>
        <pt x="-122" y="20" on="1"/>
        <pt x="74" y="20" on="1"/>
        <pt x="132" y="471" on="1"/>
        <pt x="-64" y="471" on="1"/>
        <pt x="-62" y="491" on="1"/>
        <pt x="350" y="491" on="1"/>
        <pt x="348" y="471" on="1"/>
        <pt x="152" y="471" on="1"/>
        <pt x="94" y="20" on="1"/>
      </contour>
    </TTGlyph>
    <TTGlyph name="IJ" xMin="80" yMin="-98" xMax="435" yMax="637">
      <component glyphName="I" x="0" y="0" flags="0x1000"/>
      <component glyphName="J" x="235" y="0" flags="0x1000"/>
    </TTGlyph>
    <TTGlyph name="Iacute" xMin="80" yMin="0" xMax="290" yMax="836">
      <component glyphName="I" x="0" y="0" flags="0x1000"/>
      <component glyphName="acute.cap" x="-44" y="185" flags="0x1000"/>
    </TTGlyph>
    <TTGlyph name="Iacute_J.loclNLD" xMin="80" yMin="-98" xMax="488" yMax="836">
      <component glyphName="I" x="0" y="0" flags="0x1000"/>
      <component glyphName="acute.cap" x="-44" y="185" flags="0x1000"/>
      <component glyphName="J" x="235" y="0" flags="0x1000"/>
      <component glyphName="acute.cap" x="154" y="185" flags="0x1000"/>
    </TTGlyph>
    <TTGlyph name="Ibreve" xMin="80" yMin="0" xMax="285" yMax="813">
      <component glyphName="I" x="0" y="0" flags="0x1000"/>
      <component glyphName="breve.cap" x="-58" y="185" flags="0x1000"/>
    </TTGlyph>
    <TTGlyph name="Icaron" xMin="78" yMin="0" xMax="291" yMax="819">
      <component glyphName="I" x="0" y="0" flags="0x1000"/>
      <component glyphName="caron.cap" x="-58" y="185" flags="0x1000"/>
    </TTGlyph>
    <TTGlyph name="Icircumflex" xMin="79" yMin="0" xMax="292" yMax="826">
      <component glyphName="I" x="0" y="0" flags="0x1000"/>
      <component glyphName="circumflex.cap" x="-50" y="185" flags="0x1000"/>
    </TTGlyph>
    <TTGlyph name="Idieresis" xMin="80" yMin="0" xMax="257" yMax="801">
      <component glyphName="I" x="0" y="0" flags="0x1000"/>
      <component glyphName="dieresis.i" x="-54" y="185" flags="0x1000"/>
    </TTGlyph>
    <TTGlyph name="Idotaccent" xMin="80" yMin="0" xMax="207" yMax="815">
      <component glyphName="I" x="0" y="0" flags="0x1000"/>
      <component glyphName="dotaccent" x="-54" y="185" flags="0x1000"/>
    </TTGlyph>
    <TTGlyph name="Idotbelow" xMin="64" yMin="-127" xMax="180" yMax="637">
      <component glyphName="I" x="0" y="0" flags="0x1000"/>
      <component glyphName="dotbelowcomb" x="-70" y="0" flags="0x1000"/>
    </TTGlyph>
    <TTGlyph name="Igrave" xMin="80" yMin="0" xMax="279" yMax="836">
      <component glyphName="I" x="0" y="0" flags="0x1000"/>
      <component glyphName="grave.cap" x="-55" y="185" flags="0x1000"/>
    </TTGlyph>
    <TTGlyph name="Ihookabove" xMin="80" yMin="0" xMax="219" yMax="862">
      <component glyphName="I" x="0" y="0" flags="0x1000"/>
      <component glyphName="hookabove" x="-81" y="185" flags="0x1000"/>
    </TTGlyph>
    <TTGlyph name="Imacron" xMin="79" yMin="0" xMax="291" yMax="792">
      <component glyphName="I" x="0" y="0" flags="0x1000"/>
      <component glyphName="macron.i" x="-54" y="185" flags="0x1000"/>
    </TTGlyph>
    <TTGlyph name="Iogonek" xMin="-18" yMin="-197" xMax="180" yMax="637">
      <contour>
        <pt x="125" y="195" on="1"/>
        <pt x="100" y="0" on="1"/>
        <pt x="43" y="-73" on="0"/>
        <pt x="2" y="-133" on="0"/>
        <pt x="2" y="-151" on="1"/>
        <pt x="2" y="-162" on="0"/>
        <pt x="15" y="-177" on="0"/>
        <pt x="27" y="-177" on="1"/>
        <pt x="57" y="-177" on="0"/>
        <pt x="77" y="-134" on="1"/>
        <pt x="79" y="-134" on="1"/>
        <pt x="91" y="-149" on="1"/>
        <pt x="64" y="-197" on="0"/>
        <pt x="25" y="-197" on="1"/>
        <pt x="4" y="-197" on="0"/>
        <pt x="-18" y="-172" on="0"/>
        <pt x="-18" y="-153" on="1"/>
        <pt x="-18" y="-130" on="0"/>
        <pt x="20" y="-72" on="0"/>
        <pt x="81" y="6" on="1"/>
        <pt x="105" y="195" on="1"/>
        <pt x="160" y="637" on="1"/>
        <pt x="180" y="637" on="1"/>
      </contour>
    </TTGlyph>
    <TTGlyph name="Itilde" xMin="61" yMin="0" xMax="309" yMax="813">
      <component glyphName="I" x="0" y="0" flags="0x1000"/>
      <component glyphName="tilde.i" x="-55" y="185" flags="0x1000"/>
    </TTGlyph>
    <TTGlyph name="J" xMin="-27" yMin="-98" xMax="200" yMax="637">
      <contour>
        <pt x="147" y="212" on="1"/>
        <pt x="135" y="115" on="1"/>
        <pt x="126" y="45" on="0"/>
        <pt x="56" y="-52" on="0"/>
        <pt x="-18" y="-98" on="1"/>
        <pt x="-27" y="-87" on="1"/>
        <pt x="-27" y="-81" on="1"/>
        <pt x="41" y="-39" on="0"/>
        <pt x="109" y="53" on="0"/>
        <pt x="116" y="115" on="1"/>
        <pt x="127" y="208" on="1"/>
        <pt x="178" y="617" on="1"/>
        <pt x="53" y="617" on="1"/>
        <pt x="49" y="621" on="1"/>
        <pt x="54" y="637" on="1"/>
        <pt x="200" y="637" on="1"/>
      </contour>
    </TTGlyph>
    <TTGlyph name="Jcircumflex" xMin="-27" yMin="-98" xMax="255" yMax="826">
      <component glyphName="J" x="0" y="0" flags="0x1000"/>
      <component glyphName="circumflex.cap" x="-87" y="185" flags="0x1000"/>
    </TTGlyph>
    <TTGlyph name="K" xMin="80" yMin="-7" xMax="514" yMax="637">
      <contour>
        <pt x="100" y="0" on="1"/>
        <pt x="80" y="0" on="1"/>
        <pt x="105" y="195" on="1"/>
        <pt x="161" y="637" on="1"/>
        <pt x="181" y="637" on="1"/>
        <pt x="125" y="195" on="1"/>
      </contour>
      <contour>
        <pt x="314" y="162" on="0"/>
        <pt x="446" y="5" on="1"/>
        <pt x="446" y="1" on="1"/>
        <pt x="442" y="-3" on="0"/>
        <pt x="432" y="-7" on="1"/>
        <pt x="428" y="-6" on="1"/>
        <pt x="279" y="173" on="0"/>
        <pt x="170" y="339" on="1"/>
        <pt x="170" y="342" on="1"/>
        <pt x="435" y="590" on="1"/>
        <pt x="482" y="637" on="1"/>
        <pt x="514" y="637" on="1"/>
        <pt x="198" y="339" on="1"/>
      </contour>
    </TTGlyph>
    <TTGlyph name="Kcommaaccent" xMin="80" yMin="-212" xMax="514" yMax="637">
      <component glyphName="K" x="0" y="0" flags="0x1000"/>
      <component glyphName="commaaccentcomb" x="102" y="0" flags="0x1000"/>
    </TTGlyph>
    <TTGlyph name="L" xMin="79" yMin="0" xMax="349" yMax="637">
      <contour>
        <pt x="343" y="0" on="1"/>
        <pt x="79" y="0" on="1"/>
        <pt x="104" y="195" on="1"/>
        <pt x="159" y="637" on="1"/>
        <pt x="179" y="637" on="1"/>
        <pt x="124" y="195" on="1"/>
        <pt x="102" y="20" on="1"/>
        <pt x="346" y="20" on="1"/>
        <pt x="349" y="16" on="1"/>
      </contour>
    </TTGlyph>
    <TTGlyph name="L.ss01" xMin="-124" yMin="0" xMax="470" yMax="491">
      <contour>
        <pt x="93" y="20" on="1"/>
        <pt x="275" y="20" on="1"/>
        <pt x="287" y="110" on="1"/>
        <pt x="307" y="110" on="1"/>
        <pt x="296" y="20" on="1"/>
        <pt x="410" y="20" on="1"/>
        <pt x="408" y="0" on="1"/>
        <pt x="-124" y="0" on="1"/>
        <pt x="-122" y="20" on="1"/>
        <pt x="73" y="20" on="1"/>
        <pt x="91" y="166" on="1"/>
        <pt x="129" y="471" on="1"/>
        <pt x="-64" y="471" on="1"/>
        <pt x="-62" y="491" on="1"/>
        <pt x="470" y="491" on="1"/>
        <pt x="468" y="471" on="1"/>
        <pt x="149" y="471" on="1"/>
        <pt x="111" y="166" on="1"/>
      </contour>
    </TTGlyph>
    <TTGlyph name="Lacute" xMin="79" yMin="0" xMax="349" yMax="836">
      <component glyphName="L" x="0" y="0" flags="0x1000"/>
      <component glyphName="acute.cap" x="-41" y="185" flags="0x1000"/>
    </TTGlyph>
    <TTGlyph name="Lcaron" xMin="79" yMin="0" xMax="387" yMax="637">
      <contour>
        <pt x="349" y="16" on="1"/>
        <pt x="343" y="0" on="1"/>
        <pt x="79" y="0" on="1"/>
        <pt x="104" y="195" on="1"/>
        <pt x="159" y="637" on="1"/>
        <pt x="179" y="637" on="1"/>
        <pt x="124" y="195" on="1"/>
        <pt x="102" y="20" on="1"/>
        <pt x="346" y="20" on="1"/>
      </contour>
      <contour>
        <pt x="358" y="429" on="1"/>
        <pt x="340" y="427" on="1"/>
        <pt x="338" y="431" on="1"/>
        <pt x="367" y="575" on="1"/>
        <pt x="385" y="577" on="1"/>
        <pt x="387" y="573" on="1"/>
      </contour>
    </TTGlyph>
    <TTGlyph name="Lcommaaccent" xMin="79" yMin="-212" xMax="349" yMax="637">
      <component glyphName="L" x="0" y="0" flags="0x1000"/>
      <component glyphName="commaaccentcomb" x="36" y="0" flags="0x1000"/>
    </TTGlyph>
    <TTGlyph name="Ldot" xMin="79" yMin="0" xMax="349" yMax="637">
      <component glyphName="L" x="0" y="0" flags="0x1000"/>
      <component glyphName="period" x="211" y="349" flags="0x1000"/>
    </TTGlyph>
    <TTGlyph name="Lslash" xMin="31" yMin="0" xMax="357" yMax="637">
      <contour>
        <pt x="351" y="0" on="1"/>
        <pt x="87" y="0" on="1"/>
        <pt x="112" y="195" on="1"/>
        <pt x="129" y="335" on="1"/>
        <pt x="39" y="286" on="1"/>
        <pt x="34" y="289" on="1"/>
        <pt x="31" y="304" on="1"/>
        <pt x="132" y="358" on="1"/>
        <pt x="167" y="637" on="1"/>
        <pt x="187" y="637" on="1"/>
        <pt x="154" y="370" on="1"/>
        <pt x="311" y="454" on="1"/>
        <pt x="316" y="452" on="1"/>
        <pt x="320" y="437" on="1"/>
        <pt x="151" y="346" on="1"/>
        <pt x="132" y="195" on="1"/>
        <pt x="110" y="20" on="1"/>
        <pt x="354" y="20" on="1"/>
        <pt x="357" y="16" on="1"/>
      </contour>
    </TTGlyph>
    <TTGlyph name="M" xMin="47" yMin="0" xMax="657" yMax="637">
      <contour>
        <pt x="619" y="0" on="1"/>
        <pt x="625" y="195" on="1"/>
        <pt x="633" y="589" on="1"/>
        <pt x="629" y="589" on="1"/>
        <pt x="364" y="81" on="1"/>
        <pt x="339" y="81" on="1"/>
        <pt x="206" y="589" on="1"/>
        <pt x="202" y="589" on="1"/>
        <pt x="112" y="195" on="1"/>
        <pt x="68" y="0" on="1"/>
        <pt x="47" y="0" on="1"/>
        <pt x="193" y="637" on="1"/>
        <pt x="216" y="637" on="1"/>
        <pt x="242" y="538" on="1"/>
        <pt x="352" y="110" on="1"/>
        <pt x="356" y="110" on="1"/>
        <pt x="587" y="549" on="1"/>
        <pt x="633" y="637" on="1"/>
        <pt x="657" y="637" on="1"/>
        <pt x="640" y="0" on="1"/>
      </contour>
    </TTGlyph>
    <TTGlyph name="M.ss01" xMin="-124" yMin="0" xMax="765" yMax="491">
      <contour>
        <pt x="526" y="20" on="1"/>
        <pt x="705" y="20" on="1"/>
        <pt x="703" y="0" on="1"/>
        <pt x="-124" y="0" on="1"/>
        <pt x="-122" y="20" on="1"/>
        <pt x="54" y="20" on="1"/>
        <pt x="161" y="471" on="1"/>
        <pt x="-64" y="471" on="1"/>
        <pt x="-62" y="491" on="1"/>
        <pt x="765" y="491" on="1"/>
        <pt x="762" y="471" on="1"/>
        <pt x="537" y="471" on="1"/>
      </contour>
      <contour>
        <pt x="193" y="471" on="1"/>
        <pt x="208" y="415" on="1"/>
        <pt x="299" y="107" on="1"/>
        <pt x="302" y="107" on="1"/>
        <pt x="479" y="423" on="1"/>
        <pt x="506" y="471" on="1"/>
      </contour>
      <contour>
        <pt x="511" y="157" on="1"/>
        <pt x="516" y="446" on="1"/>
        <pt x="512" y="446" on="1"/>
        <pt x="309" y="79" on="1"/>
        <pt x="286" y="79" on="1"/>
        <pt x="177" y="446" on="1"/>
        <pt x="175" y="446" on="1"/>
        <pt x="106" y="158" on="1"/>
        <pt x="74" y="20" on="1"/>
        <pt x="507" y="20" on="1"/>
      </contour>
    </TTGlyph>
    <TTGlyph name="N" xMin="80" yMin="0" xMax="585" yMax="638">
      <contour>
        <pt x="503" y="0" on="1"/>
        <pt x="484" y="0" on="1"/>
        <pt x="180" y="595" on="1"/>
        <pt x="176" y="595" on="1"/>
        <pt x="125" y="199" on="1"/>
        <pt x="100" y="0" on="1"/>
        <pt x="80" y="0" on="1"/>
        <pt x="104" y="190" on="1"/>
        <pt x="161" y="637" on="1"/>
        <pt x="180" y="637" on="1"/>
        <pt x="484" y="42" on="1"/>
        <pt x="488" y="42" on="1"/>
        <pt x="565" y="636" on="1"/>
        <pt x="585" y="638" on="1"/>
        <pt x="526" y="176" on="1"/>
      </contour>
    </TTGlyph>
    <TTGlyph name="Nacute" xMin="80" yMin="0" xMax="585" yMax="836">
      <component glyphName="N" x="0" y="0" flags="0x1000"/>
      <component glyphName="acute.cap" x="159" y="185" flags="0x1000"/>
    </TTGlyph>
    <TTGlyph name="Ncaron" xMin="80" yMin="0" xMax="585" yMax="819">
      <component glyphName="N" x="0" y="0" flags="0x1000"/>
      <component glyphName="caron.cap" x="145" y="185" flags="0x1000"/>
    </TTGlyph>
    <TTGlyph name="Ncommaaccent" xMin="80" yMin="-212" xMax="585" yMax="638">
      <component glyphName="N" x="0" y="0" flags="0x1000"/>
      <component glyphName="commaaccentcomb" x="129" y="0" flags="0x1000"/>
    </TTGlyph>
    <TTGlyph name="Ntilde" xMin="80" yMin="0" xMax="585" yMax="816">
      <component glyphName="N" x="0" y="0" flags="0x1000"/>
      <component glyphName="tilde" x="149" y="185" flags="0x1000"/>
    </TTGlyph>
    <TTGlyph name="O" xMin="56" yMin="-5" xMax="568" yMax="642">
      <contour>
        <pt x="459" y="642" on="0"/>
        <pt x="568" y="512" on="0"/>
        <pt x="568" y="391" on="1"/>
        <pt x="568" y="269" on="0"/>
        <pt x="497" y="91" on="0"/>
        <pt x="362" y="-5" on="0"/>
        <pt x="267" y="-5" on="1"/>
        <pt x="165" y="-5" on="0"/>
        <pt x="56" y="129" on="0"/>
        <pt x="56" y="253" on="1"/>
        <pt x="56" y="374" on="0"/>
        <pt x="126" y="549" on="0"/>
        <pt x="261" y="642" on="0"/>
        <pt x="355" y="642" on="1"/>
      </contour>
      <contour>
        <pt x="267" y="622" on="0"/>
        <pt x="143" y="534" on="0"/>
        <pt x="77" y="369" on="0"/>
        <pt x="77" y="256" on="1"/>
        <pt x="77" y="141" on="0"/>
        <pt x="176" y="15" on="0"/>
        <pt x="268" y="15" on="1"/>
        <pt x="355" y="15" on="0"/>
        <pt x="481" y="106" on="0"/>
        <pt x="547" y="273" on="0"/>
        <pt x="547" y="387" on="1"/>
        <pt x="547" y="500" on="0"/>
        <pt x="449" y="622" on="0"/>
        <pt x="354" y="622" on="1"/>
      </contour>
    </TTGlyph>
    <TTGlyph name="OE" xMin="56" yMin="-12" xMax="810" yMax="649">
      <contour>
        <pt x="421" y="649" on="0"/>
        <pt x="465" y="643" on="1"/>
        <pt x="511" y="637" on="0"/>
        <pt x="538" y="637" on="1"/>
        <pt x="807" y="637" on="1"/>
        <pt x="810" y="633" on="1"/>
        <pt x="804" y="617" on="1"/>
        <pt x="534" y="617" on="1"/>
        <pt x="500" y="340" on="1"/>
        <pt x="722" y="340" on="1"/>
        <pt x="724" y="336" on="1"/>
        <pt x="718" y="320" on="1"/>
        <pt x="496" y="320" on="1"/>
        <pt x="480" y="188" on="1"/>
        <pt x="459" y="20" on="1"/>
        <pt x="733" y="20" on="1"/>
        <pt x="736" y="16" on="1"/>
        <pt x="730" y="0" on="1"/>
        <pt x="457" y="0" on="1"/>
        <pt x="428" y="0" on="0"/>
        <pt x="374" y="-6" on="1"/>
        <pt x="322" y="-12" on="0"/>
        <pt x="301" y="-12" on="1"/>
        <pt x="183" y="-12" on="0"/>
        <pt x="56" y="132" on="0"/>
        <pt x="56" y="260" on="1"/>
        <pt x="56" y="379" on="0"/>
        <pt x="137" y="554" on="0"/>
        <pt x="290" y="649" on="0"/>
        <pt x="395" y="649" on="1"/>
      </contour>
      <contour>
        <pt x="294" y="629" on="0"/>
        <pt x="152" y="540" on="0"/>
        <pt x="76" y="374" on="0"/>
        <pt x="76" y="262" on="1"/>
        <pt x="76" y="141" on="0"/>
        <pt x="195" y="8" on="0"/>
        <pt x="309" y="8" on="1"/>
        <pt x="351" y="8" on="0"/>
        <pt x="411" y="18" on="1"/>
        <pt x="428" y="21" on="0"/>
        <pt x="440" y="31" on="0"/>
        <pt x="442" y="43" on="1"/>
        <pt x="508" y="586" on="1"/>
        <pt x="509" y="594" on="0"/>
        <pt x="509" y="604" on="1"/>
        <pt x="509" y="617" on="0"/>
        <pt x="499" y="618" on="1"/>
        <pt x="440" y="629" on="0"/>
        <pt x="392" y="629" on="1"/>
      </contour>
    </TTGlyph>
    <TTGlyph name="Oacute" xMin="56" yMin="-5" xMax="568" yMax="836">
      <component glyphName="O" x="0" y="0" flags="0x1000"/>
      <component glyphName="acute.cap" x="138" y="185" flags="0x1000"/>
    </TTGlyph>
    <TTGlyph name="Obreve" xMin="56" yMin="-5" xMax="568" yMax="813">
      <component glyphName="O" x="0" y="0" flags="0x1000"/>
      <component glyphName="breve.cap" x="124" y="185" flags="0x1000"/>
    </TTGlyph>
    <TTGlyph name="Ocaron" xMin="56" yMin="-5" xMax="568" yMax="819">
      <component glyphName="O" x="0" y="0" flags="0x1000"/>
      <component glyphName="caron.cap" x="124" y="185" flags="0x1000"/>
    </TTGlyph>
    <TTGlyph name="Ocircumflex" xMin="56" yMin="-5" xMax="568" yMax="826">
      <component glyphName="O" x="0" y="0" flags="0x1000"/>
      <component glyphName="circumflex.cap" x="132" y="185" flags="0x1000"/>
    </TTGlyph>
    <TTGlyph name="Ocircumflexacute" xMin="56" yMin="-5" xMax="568" yMax="896">
      <component glyphName="O" x="0" y="0" flags="0x1000"/>
      <component glyphName="circumflexacute" x="127" y="185" flags="0x1000"/>
    </TTGlyph>
    <TTGlyph name="Ocircumflexdotbelow" xMin="56" yMin="-127" xMax="568" yMax="826">
      <contour>
        <pt x="305" y="778" on="0"/>
        <pt x="367" y="826" on="1"/>
        <pt x="383" y="826" on="1"/>
        <pt x="443" y="774" on="0"/>
        <pt x="474" y="750" on="1"/>
        <pt x="466" y="736" on="1"/>
        <pt x="461" y="736" on="1"/>
        <pt x="421" y="765" on="0"/>
        <pt x="374" y="806" on="1"/>
        <pt x="327" y="771" on="0"/>
        <pt x="271" y="736" on="1"/>
        <pt x="266" y="736" on="1"/>
        <pt x="261" y="750" on="1"/>
      </contour>
      <contour>
        <pt x="459" y="642" on="0"/>
        <pt x="568" y="512" on="0"/>
        <pt x="568" y="391" on="1"/>
        <pt x="568" y="269" on="0"/>
        <pt x="497" y="91" on="0"/>
        <pt x="362" y="-5" on="0"/>
        <pt x="267" y="-5" on="1"/>
        <pt x="165" y="-5" on="0"/>
        <pt x="56" y="129" on="0"/>
        <pt x="56" y="253" on="1"/>
        <pt x="56" y="374" on="0"/>
        <pt x="126" y="549" on="0"/>
        <pt x="261" y="642" on="0"/>
        <pt x="355" y="642" on="1"/>
      </contour>
      <contour>
        <pt x="267" y="622" on="0"/>
        <pt x="143" y="534" on="0"/>
        <pt x="77" y="369" on="0"/>
        <pt x="77" y="256" on="1"/>
        <pt x="77" y="141" on="0"/>
        <pt x="176" y="15" on="0"/>
        <pt x="268" y="15" on="1"/>
        <pt x="355" y="15" on="0"/>
        <pt x="481" y="106" on="0"/>
        <pt x="547" y="273" on="0"/>
        <pt x="547" y="387" on="1"/>
        <pt x="547" y="500" on="0"/>
        <pt x="449" y="622" on="0"/>
        <pt x="354" y="622" on="1"/>
      </contour>
      <contour>
        <pt x="308" y="-87" on="0"/>
        <pt x="308" y="-107" on="1"/>
        <pt x="308" y="-127" on="0"/>
        <pt x="288" y="-127" on="1"/>
        <pt x="268" y="-127" on="0"/>
        <pt x="268" y="-107" on="1"/>
        <pt x="268" y="-87" on="0"/>
        <pt x="288" y="-87" on="1"/>
      </contour>
    </TTGlyph>
    <TTGlyph name="Ocircumflexgrave" xMin="56" yMin="-5" xMax="568" yMax="895">
      <component glyphName="O" x="0" y="0" flags="0x1000"/>
      <component glyphName="circumflexgrave" x="127" y="185" flags="0x1000"/>
    </TTGlyph>
    <TTGlyph name="Ocircumflexhookabove" xMin="56" yMin="-5" xMax="568" yMax="922">
      <component glyphName="O" x="0" y="0" flags="0x1000"/>
      <component glyphName="circumflexhookabove" x="127" y="185" flags="0x1000"/>
    </TTGlyph>
    <TTGlyph name="Ocircumflextilde" xMin="56" yMin="-5" xMax="568" yMax="907">
      <component glyphName="O" x="0" y="0" flags="0x1000"/>
      <component glyphName="circumflextilde" x="127" y="185" flags="0x1000"/>
    </TTGlyph>
    <TTGlyph name="Odieresis" xMin="56" yMin="-5" xMax="568" yMax="801">
      <component glyphName="O" x="0" y="0" flags="0x1000"/>
      <component glyphName="dieresis" x="128" y="185" flags="0x1000"/>
    </TTGlyph>
    <TTGlyph name="Odotbelow" xMin="56" yMin="-127" xMax="568" yMax="642">
      <component glyphName="O" x="0" y="0" flags="0x1000"/>
      <component glyphName="dotbelowcomb" x="134" y="0" flags="0x1000"/>
    </TTGlyph>
    <TTGlyph name="Ograve" xMin="56" yMin="-5" xMax="568" yMax="836">
      <component glyphName="O" x="0" y="0" flags="0x1000"/>
      <component glyphName="grave.cap" x="127" y="185" flags="0x1000"/>
    </TTGlyph>
    <TTGlyph name="Ohm" xMin="23" yMin="-1" xMax="619" yMax="642">
      <component glyphName="Omega" x="0" y="0" flags="0x1000"/>
    </TTGlyph>
    <TTGlyph name="Ohookabove" xMin="56" yMin="-5" xMax="568" yMax="862">
      <component glyphName="O" x="0" y="0" flags="0x1000"/>
      <component glyphName="hookabove" x="101" y="185" flags="0x1000"/>
    </TTGlyph>
    <TTGlyph name="Ohorn" xMin="56" yMin="-5" xMax="626" yMax="753">
      <contour>
        <pt x="606" y="753" on="0"/>
        <pt x="626" y="713" on="0"/>
        <pt x="626" y="686" on="1"/>
        <pt x="626" y="638" on="0"/>
        <pt x="558" y="585" on="0"/>
        <pt x="504" y="587" on="1"/>
        <pt x="567" y="524" on="0"/>
        <pt x="567" y="382" on="1"/>
        <pt x="567" y="267" on="0"/>
        <pt x="495" y="92" on="0"/>
        <pt x="360" y="-5" on="0"/>
        <pt x="268" y="-5" on="1"/>
        <pt x="56" y="-5" on="0"/>
        <pt x="56" y="265" on="1"/>
        <pt x="56" y="377" on="0"/>
        <pt x="126" y="547" on="0"/>
        <pt x="262" y="642" on="0"/>
        <pt x="358" y="642" on="1"/>
        <pt x="411" y="642" on="0"/>
        <pt x="464" y="620" on="1"/>
        <pt x="500" y="606" on="0"/>
        <pt x="519" y="606" on="1"/>
        <pt x="553" y="606" on="0"/>
        <pt x="605" y="645" on="0"/>
        <pt x="605" y="679" on="1"/>
        <pt x="605" y="712" on="0"/>
        <pt x="582" y="743" on="1"/>
        <pt x="584" y="748" on="1"/>
        <pt x="593" y="753" on="0"/>
        <pt x="597" y="753" on="1"/>
      </contour>
      <contour>
        <pt x="266" y="622" on="0"/>
        <pt x="142" y="532" on="0"/>
        <pt x="76" y="371" on="0"/>
        <pt x="76" y="266" on="1"/>
        <pt x="76" y="15" on="0"/>
        <pt x="270" y="15" on="1"/>
        <pt x="355" y="15" on="0"/>
        <pt x="481" y="107" on="0"/>
        <pt x="547" y="270" on="0"/>
        <pt x="547" y="375" on="1"/>
        <pt x="547" y="622" on="0"/>
        <pt x="352" y="622" on="1"/>
      </contour>
    </TTGlyph>
    <TTGlyph name="Ohornacute" xMin="56" yMin="-5" xMax="626" yMax="836">
      <component glyphName="Ohorn" x="0" y="0" flags="0x1000"/>
      <component glyphName="acute.cap" x="138" y="185" flags="0x1000"/>
    </TTGlyph>
    <TTGlyph name="Ohorndotbelow" xMin="56" yMin="-127" xMax="626" yMax="753">
      <component glyphName="Ohorn" x="0" y="0" flags="0x1000"/>
      <component glyphName="dotbelowcomb" x="134" y="0" flags="0x1000"/>
    </TTGlyph>
    <TTGlyph name="Ohorngrave" xMin="56" yMin="-5" xMax="626" yMax="836">
      <component glyphName="Ohorn" x="0" y="0" flags="0x1000"/>
      <component glyphName="grave.cap" x="127" y="185" flags="0x1000"/>
    </TTGlyph>
    <TTGlyph name="Ohornhookabove" xMin="56" yMin="-5" xMax="626" yMax="862">
      <component glyphName="Ohorn" x="0" y="0" flags="0x1000"/>
      <component glyphName="hookabove" x="101" y="185" flags="0x1000"/>
    </TTGlyph>
    <TTGlyph name="Ohorntilde" xMin="56" yMin="-5" xMax="626" yMax="816">
      <component glyphName="Ohorn" x="0" y="0" flags="0x1000"/>
      <component glyphName="tilde" x="128" y="185" flags="0x1000"/>
    </TTGlyph>
    <TTGlyph name="Ohungarumlaut" xMin="56" yMin="-5" xMax="568" yMax="841">
      <component glyphName="O" x="0" y="0" flags="0x1000"/>
      <component glyphName="hungarumlaut.cap" x="127" y="185" flags="0x1000"/>
    </TTGlyph>
    <TTGlyph name="Omacron" xMin="56" yMin="-5" xMax="568" yMax="792">
      <component glyphName="O" x="0" y="0" flags="0x1000"/>
      <component glyphName="macron" x="128" y="185" flags="0x1000"/>
    </TTGlyph>
    <TTGlyph name="Omega" xMin="23" yMin="-1" xMax="619" yMax="642">
      <contour>
        <pt x="506" y="642" on="0"/>
        <pt x="618" y="517" on="0"/>
        <pt x="618" y="401" on="1"/>
        <pt x="618" y="281" on="0"/>
        <pt x="517" y="84" on="0"/>
        <pt x="426" y="23" on="1"/>
        <pt x="425" y="20" on="1"/>
        <pt x="544" y="20" on="1"/>
        <pt x="616" y="21" on="1"/>
        <pt x="619" y="17" on="1"/>
        <pt x="613" y="-1" on="1"/>
        <pt x="535" y="0" on="1"/>
        <pt x="421" y="0" on="1"/>
        <pt x="383" y="-1" on="1"/>
        <pt x="381" y="1" on="1"/>
        <pt x="383" y="17" on="1"/>
        <pt x="485" y="77" on="0"/>
        <pt x="597" y="275" on="0"/>
        <pt x="597" y="398" on="1"/>
        <pt x="597" y="506" on="0"/>
        <pt x="496" y="622" on="0"/>
        <pt x="401" y="622" on="1"/>
        <pt x="316" y="622" on="0"/>
        <pt x="193" y="544" on="0"/>
        <pt x="128" y="397" on="0"/>
        <pt x="128" y="296" on="1"/>
        <pt x="128" y="207" on="0"/>
        <pt x="197" y="61" on="0"/>
        <pt x="260" y="17" on="1"/>
        <pt x="258" y="1" on="1"/>
        <pt x="256" y="-1" on="1"/>
        <pt x="219" y="0" on="1"/>
        <pt x="98" y="0" on="1"/>
        <pt x="26" y="-1" on="1"/>
        <pt x="23" y="3" on="1"/>
        <pt x="29" y="21" on="1"/>
        <pt x="105" y="20" on="1"/>
        <pt x="219" y="20" on="1"/>
        <pt x="220" y="23" on="1"/>
        <pt x="166" y="67" on="0"/>
        <pt x="108" y="208" on="0"/>
        <pt x="108" y="293" on="1"/>
        <pt x="108" y="457" on="0"/>
        <pt x="262" y="642" on="0"/>
        <pt x="402" y="642" on="1"/>
      </contour>
    </TTGlyph>
    <TTGlyph name="Oogonek" xMin="56" yMin="-197" xMax="568" yMax="642">
      <contour>
        <pt x="302" y="-107" on="0"/>
        <pt x="302" y="-131" on="1"/>
        <pt x="302" y="-152" on="0"/>
        <pt x="326" y="-177" on="0"/>
        <pt x="347" y="-177" on="1"/>
        <pt x="389" y="-177" on="0"/>
        <pt x="428" y="-124" on="1"/>
        <pt x="430" y="-124" on="1"/>
        <pt x="441" y="-140" on="1"/>
        <pt x="397" y="-197" on="0"/>
        <pt x="347" y="-197" on="1"/>
        <pt x="318" y="-197" on="0"/>
        <pt x="282" y="-162" on="0"/>
        <pt x="282" y="-133" on="1"/>
        <pt x="282" y="-103" on="0"/>
        <pt x="303" y="-72" on="1"/>
        <pt x="356" y="7" on="1"/>
        <pt x="314" y="-5" on="0"/>
        <pt x="267" y="-5" on="1"/>
        <pt x="165" y="-5" on="0"/>
        <pt x="56" y="129" on="0"/>
        <pt x="56" y="253" on="1"/>
        <pt x="56" y="374" on="0"/>
        <pt x="126" y="549" on="0"/>
        <pt x="261" y="642" on="0"/>
        <pt x="355" y="642" on="1"/>
        <pt x="459" y="642" on="0"/>
        <pt x="568" y="512" on="0"/>
        <pt x="568" y="391" on="1"/>
        <pt x="568" y="250" on="0"/>
        <pt x="475" y="58" on="0"/>
        <pt x="387" y="19" on="1"/>
        <pt x="322" y="-78" on="1"/>
      </contour>
      <contour>
        <pt x="77" y="141" on="0"/>
        <pt x="176" y="15" on="0"/>
        <pt x="268" y="15" on="1"/>
        <pt x="355" y="15" on="0"/>
        <pt x="481" y="106" on="0"/>
        <pt x="547" y="273" on="0"/>
        <pt x="547" y="387" on="1"/>
        <pt x="547" y="500" on="0"/>
        <pt x="449" y="622" on="0"/>
        <pt x="354" y="622" on="1"/>
        <pt x="267" y="622" on="0"/>
        <pt x="143" y="534" on="0"/>
        <pt x="77" y="369" on="0"/>
        <pt x="77" y="256" on="1"/>
      </contour>
    </TTGlyph>
    <TTGlyph name="Oslash" xMin="56" yMin="-87" xMax="568" yMax="709">
      <contour>
        <pt x="568" y="537" on="0"/>
        <pt x="568" y="391" on="1"/>
        <pt x="568" y="269" on="0"/>
        <pt x="497" y="91" on="0"/>
        <pt x="362" y="-5" on="0"/>
        <pt x="267" y="-5" on="1"/>
        <pt x="206" y="-5" on="0"/>
        <pt x="162" y="19" on="1"/>
        <pt x="102" y="-87" on="1"/>
        <pt x="87" y="-84" on="1"/>
        <pt x="85" y="-80" on="1"/>
        <pt x="146" y="29" on="1"/>
        <pt x="56" y="92" on="0"/>
        <pt x="56" y="253" on="1"/>
        <pt x="56" y="374" on="0"/>
        <pt x="126" y="549" on="0"/>
        <pt x="261" y="642" on="0"/>
        <pt x="355" y="642" on="1"/>
        <pt x="426" y="642" on="0"/>
        <pt x="473" y="612" on="1"/>
        <pt x="528" y="709" on="1"/>
        <pt x="544" y="706" on="1"/>
        <pt x="545" y="701" on="1"/>
        <pt x="489" y="601" on="1"/>
      </contour>
      <contour>
        <pt x="77" y="108" on="0"/>
        <pt x="157" y="48" on="1"/>
        <pt x="463" y="593" on="1"/>
        <pt x="419" y="622" on="0"/>
        <pt x="354" y="622" on="1"/>
        <pt x="267" y="622" on="0"/>
        <pt x="143" y="534" on="0"/>
        <pt x="77" y="369" on="0"/>
        <pt x="77" y="256" on="1"/>
      </contour>
      <contour>
        <pt x="355" y="15" on="0"/>
        <pt x="481" y="106" on="0"/>
        <pt x="547" y="273" on="0"/>
        <pt x="547" y="387" on="1"/>
        <pt x="547" y="524" on="0"/>
        <pt x="478" y="582" on="1"/>
        <pt x="172" y="38" on="1"/>
        <pt x="213" y="15" on="0"/>
        <pt x="268" y="15" on="1"/>
      </contour>
    </TTGlyph>
    <TTGlyph name="Oslashacute" xMin="56" yMin="-87" xMax="568" yMax="836">
      <component glyphName="Oslash" x="0" y="0" flags="0x1000"/>
      <component glyphName="acute.cap" x="138" y="185" flags="0x1000"/>
    </TTGlyph>
    <TTGlyph name="Otilde" xMin="56" yMin="-5" xMax="568" yMax="816">
      <component glyphName="O" x="0" y="0" flags="0x1000"/>
      <component glyphName="tilde" x="128" y="185" flags="0x1000"/>
    </TTGlyph>
    <TTGlyph name="P" xMin="80" yMin="0" xMax="444" yMax="639">
      <contour>
        <pt x="366" y="639" on="0"/>
        <pt x="444" y="561" on="0"/>
        <pt x="444" y="489" on="1"/>
        <pt x="444" y="376" on="0"/>
        <pt x="324" y="249" on="0"/>
        <pt x="214" y="249" on="1"/>
        <pt x="132" y="249" on="1"/>
        <pt x="125" y="195" on="1"/>
        <pt x="100" y="0" on="1"/>
        <pt x="80" y="0" on="1"/>
        <pt x="105" y="195" on="1"/>
        <pt x="160" y="637" on="1"/>
        <pt x="293" y="639" on="1"/>
      </contour>
      <contour>
        <pt x="329" y="277" on="0"/>
        <pt x="424" y="394" on="0"/>
        <pt x="424" y="485" on="1"/>
        <pt x="424" y="547" on="0"/>
        <pt x="359" y="616" on="0"/>
        <pt x="298" y="619" on="1"/>
        <pt x="178" y="618" on="1"/>
        <pt x="134" y="269" on="1"/>
        <pt x="246" y="269" on="1"/>
      </contour>
    </TTGlyph>
    <TTGlyph name="Q" xMin="56" yMin="-182" xMax="662" yMax="642">
      <contour>
        <pt x="387" y="-68" on="0"/>
        <pt x="563" y="-152" on="0"/>
        <pt x="662" y="-164" on="1"/>
        <pt x="661" y="-170" on="1"/>
        <pt x="652" y="-182" on="0"/>
        <pt x="651" y="-182" on="1"/>
        <pt x="647" y="-182" on="1"/>
        <pt x="546" y="-169" on="0"/>
        <pt x="364" y="-77" on="0"/>
        <pt x="292" y="-4" on="1"/>
        <pt x="284" y="-5" on="0"/>
        <pt x="267" y="-5" on="1"/>
        <pt x="165" y="-5" on="0"/>
        <pt x="56" y="129" on="0"/>
        <pt x="56" y="253" on="1"/>
        <pt x="56" y="374" on="0"/>
        <pt x="126" y="549" on="0"/>
        <pt x="261" y="642" on="0"/>
        <pt x="355" y="642" on="1"/>
        <pt x="459" y="642" on="0"/>
        <pt x="568" y="512" on="0"/>
        <pt x="568" y="391" on="1"/>
        <pt x="568" y="224" on="0"/>
        <pt x="437" y="18" on="0"/>
        <pt x="318" y="-1" on="1"/>
      </contour>
      <contour>
        <pt x="77" y="141" on="0"/>
        <pt x="176" y="15" on="0"/>
        <pt x="268" y="15" on="1"/>
        <pt x="355" y="15" on="0"/>
        <pt x="481" y="106" on="0"/>
        <pt x="547" y="273" on="0"/>
        <pt x="547" y="387" on="1"/>
        <pt x="547" y="500" on="0"/>
        <pt x="449" y="622" on="0"/>
        <pt x="354" y="622" on="1"/>
        <pt x="267" y="622" on="0"/>
        <pt x="143" y="534" on="0"/>
        <pt x="77" y="369" on="0"/>
        <pt x="77" y="256" on="1"/>
      </contour>
    </TTGlyph>
    <TTGlyph name="R" xMin="80" yMin="-7" xMax="445" yMax="639">
      <contour>
        <pt x="445" y="407" on="0"/>
        <pt x="359" y="290" on="0"/>
        <pt x="280" y="266" on="1"/>
        <pt x="340" y="132" on="0"/>
        <pt x="417" y="5" on="1"/>
        <pt x="416" y="1" on="1"/>
        <pt x="411" y="-4" on="0"/>
        <pt x="403" y="-7" on="1"/>
        <pt x="398" y="-5" on="1"/>
        <pt x="317" y="132" on="0"/>
        <pt x="258" y="263" on="1"/>
        <pt x="133" y="263" on="1"/>
        <pt x="125" y="195" on="1"/>
        <pt x="100" y="0" on="1"/>
        <pt x="80" y="0" on="1"/>
        <pt x="105" y="195" on="1"/>
        <pt x="160" y="637" on="1"/>
        <pt x="293" y="639" on="1"/>
        <pt x="366" y="639" on="0"/>
        <pt x="445" y="562" on="0"/>
        <pt x="445" y="491" on="1"/>
      </contour>
      <contour>
        <pt x="270" y="283" on="1"/>
        <pt x="344" y="303" on="0"/>
        <pt x="425" y="410" on="0"/>
        <pt x="425" y="488" on="1"/>
        <pt x="425" y="548" on="0"/>
        <pt x="360" y="616" on="0"/>
        <pt x="298" y="619" on="1"/>
        <pt x="178" y="618" on="1"/>
        <pt x="136" y="283" on="1"/>
      </contour>
    </TTGlyph>
    <TTGlyph name="Racute" xMin="80" yMin="-7" xMax="445" yMax="854">
      <component glyphName="R" x="0" y="0" flags="0x1000"/>
      <component glyphName="acute" x="77" y="185" flags="0x1000"/>
    </TTGlyph>
    <TTGlyph name="Rcaron" xMin="80" yMin="-7" xMax="445" yMax="843">
      <component glyphName="R" x="0" y="0" flags="0x1000"/>
      <component glyphName="caron" x="67" y="185" flags="0x1000"/>
    </TTGlyph>
    <TTGlyph name="Rcommaaccent" xMin="80" yMin="-212" xMax="445" yMax="639">
      <component glyphName="R" x="0" y="0" flags="0x1000"/>
      <component glyphName="commaaccentcomb" x="55" y="0" flags="0x1000"/>
    </TTGlyph>
    <TTGlyph name="S" xMin="28" yMin="-4" xMax="398" yMax="640">
      <contour>
        <pt x="345" y="640" on="0"/>
        <pt x="398" y="611" on="1"/>
        <pt x="392" y="593" on="1"/>
        <pt x="385" y="592" on="1"/>
        <pt x="339" y="620" on="0"/>
        <pt x="281" y="620" on="1"/>
        <pt x="233" y="620" on="0"/>
        <pt x="157" y="579" on="0"/>
        <pt x="115" y="513" on="0"/>
        <pt x="115" y="477" on="1"/>
        <pt x="115" y="444" on="0"/>
        <pt x="147" y="394" on="0"/>
        <pt x="192" y="359" on="0"/>
        <pt x="232" y="335" on="1"/>
        <pt x="276" y="309" on="0"/>
        <pt x="328" y="269" on="0"/>
        <pt x="364" y="208" on="0"/>
        <pt x="364" y="167" on="1"/>
        <pt x="364" y="121" on="0"/>
        <pt x="311" y="42" on="0"/>
        <pt x="220" y="-4" on="0"/>
        <pt x="166" y="-4" on="1"/>
        <pt x="129" y="-4" on="0"/>
        <pt x="55" y="20" on="0"/>
        <pt x="28" y="43" on="1"/>
        <pt x="31" y="62" on="1"/>
        <pt x="37" y="64" on="1"/>
        <pt x="63" y="40" on="0"/>
        <pt x="133" y="16" on="0"/>
        <pt x="168" y="16" on="1"/>
        <pt x="218" y="16" on="0"/>
        <pt x="299" y="58" on="0"/>
        <pt x="344" y="126" on="0"/>
        <pt x="344" y="165" on="1"/>
        <pt x="344" y="200" on="0"/>
        <pt x="311" y="253" on="0"/>
        <pt x="264" y="289" on="0"/>
        <pt x="223" y="314" on="1"/>
        <pt x="180" y="341" on="0"/>
        <pt x="130" y="379" on="0"/>
        <pt x="95" y="438" on="0"/>
        <pt x="95" y="478" on="1"/>
        <pt x="95" y="523" on="0"/>
        <pt x="145" y="597" on="0"/>
        <pt x="231" y="640" on="0"/>
        <pt x="284" y="640" on="1"/>
      </contour>
    </TTGlyph>
    <TTGlyph name="Sacute" xMin="28" yMin="-4" xMax="398" yMax="854">
      <component glyphName="S" x="0" y="0" flags="0x1000"/>
      <component glyphName="acute" x="42" y="185" flags="0x1000"/>
    </TTGlyph>
    <TTGlyph name="Scaron" xMin="28" yMin="-4" xMax="398" yMax="843">
      <component glyphName="S" x="0" y="0" flags="0x1000"/>
      <component glyphName="caron" x="32" y="185" flags="0x1000"/>
    </TTGlyph>
    <TTGlyph name="Scedilla" xMin="28" yMin="-178" xMax="398" yMax="640">
      <contour>
        <pt x="345" y="640" on="0"/>
        <pt x="398" y="611" on="1"/>
        <pt x="392" y="593" on="1"/>
        <pt x="385" y="592" on="1"/>
        <pt x="339" y="620" on="0"/>
        <pt x="281" y="620" on="1"/>
        <pt x="233" y="620" on="0"/>
        <pt x="157" y="579" on="0"/>
        <pt x="115" y="513" on="0"/>
        <pt x="115" y="477" on="1"/>
        <pt x="115" y="444" on="0"/>
        <pt x="147" y="394" on="0"/>
        <pt x="192" y="359" on="0"/>
        <pt x="232" y="335" on="1"/>
        <pt x="276" y="309" on="0"/>
        <pt x="328" y="269" on="0"/>
        <pt x="364" y="208" on="0"/>
        <pt x="364" y="167" on="1"/>
        <pt x="364" y="124" on="0"/>
        <pt x="317" y="49" on="0"/>
        <pt x="235" y="1" on="0"/>
        <pt x="185" y="-3" on="1"/>
        <pt x="169" y="-55" on="1"/>
        <pt x="200" y="-75" on="1"/>
        <pt x="233" y="-96" on="0"/>
        <pt x="233" y="-125" on="1"/>
        <pt x="233" y="-149" on="0"/>
        <pt x="198" y="-178" on="0"/>
        <pt x="173" y="-178" on="1"/>
        <pt x="136" y="-178" on="0"/>
        <pt x="114" y="-145" on="1"/>
        <pt x="120" y="-127" on="1"/>
        <pt x="124" y="-127" on="1"/>
        <pt x="134" y="-143" on="0"/>
        <pt x="156" y="-158" on="0"/>
        <pt x="173" y="-158" on="1"/>
        <pt x="191" y="-158" on="0"/>
        <pt x="213" y="-141" on="0"/>
        <pt x="213" y="-125" on="1"/>
        <pt x="213" y="-114" on="0"/>
        <pt x="202" y="-101" on="0"/>
        <pt x="189" y="-92" on="1"/>
        <pt x="146" y="-64" on="1"/>
        <pt x="165" y="-4" on="1"/>
        <pt x="84" y="-4" on="0"/>
        <pt x="28" y="43" on="1"/>
        <pt x="31" y="62" on="1"/>
        <pt x="37" y="64" on="1"/>
        <pt x="63" y="40" on="0"/>
        <pt x="133" y="16" on="0"/>
        <pt x="168" y="16" on="1"/>
        <pt x="218" y="16" on="0"/>
        <pt x="299" y="58" on="0"/>
        <pt x="344" y="126" on="0"/>
        <pt x="344" y="165" on="1"/>
        <pt x="344" y="200" on="0"/>
        <pt x="311" y="253" on="0"/>
        <pt x="264" y="289" on="0"/>
        <pt x="223" y="314" on="1"/>
        <pt x="180" y="341" on="0"/>
        <pt x="130" y="379" on="0"/>
        <pt x="95" y="438" on="0"/>
        <pt x="95" y="478" on="1"/>
        <pt x="95" y="523" on="0"/>
        <pt x="145" y="597" on="0"/>
        <pt x="231" y="640" on="0"/>
        <pt x="284" y="640" on="1"/>
      </contour>
    </TTGlyph>
    <TTGlyph name="Scircumflex" xMin="28" yMin="-4" xMax="398" yMax="833">
      <component glyphName="S" x="0" y="0" flags="0x1000"/>
      <component glyphName="circumflex" x="47" y="185" flags="0x1000"/>
    </TTGlyph>
    <TTGlyph name="Scommaaccent" xMin="28" yMin="-212" xMax="398" yMax="640">
      <component glyphName="S" x="0" y="0" flags="0x1000"/>
      <component glyphName="commaaccentcomb" x="20" y="0" flags="0x1000"/>
    </TTGlyph>
    <TTGlyph name="T" xMin="77" yMin="0" xMax="474" yMax="637">
      <contour>
        <pt x="468" y="617" on="1"/>
        <pt x="285" y="617" on="1"/>
        <pt x="231" y="195" on="1"/>
        <pt x="207" y="0" on="1"/>
        <pt x="187" y="0" on="1"/>
        <pt x="211" y="195" on="1"/>
        <pt x="265" y="617" on="1"/>
        <pt x="80" y="617" on="1"/>
        <pt x="77" y="621" on="1"/>
        <pt x="83" y="637" on="1"/>
        <pt x="471" y="637" on="1"/>
        <pt x="474" y="633" on="1"/>
      </contour>
    </TTGlyph>
    <TTGlyph name="Tbar" xMin="77" yMin="0" xMax="474" yMax="637">
      <contour>
        <pt x="468" y="617" on="1"/>
        <pt x="285" y="617" on="1"/>
        <pt x="251" y="350" on="1"/>
        <pt x="344" y="350" on="1"/>
        <pt x="347" y="347" on="1"/>
        <pt x="345" y="330" on="1"/>
        <pt x="248" y="330" on="1"/>
        <pt x="231" y="195" on="1"/>
        <pt x="207" y="0" on="1"/>
        <pt x="187" y="0" on="1"/>
        <pt x="211" y="195" on="1"/>
        <pt x="228" y="330" on="1"/>
        <pt x="135" y="330" on="1"/>
        <pt x="132" y="333" on="1"/>
        <pt x="134" y="350" on="1"/>
        <pt x="231" y="350" on="1"/>
        <pt x="265" y="617" on="1"/>
        <pt x="80" y="617" on="1"/>
        <pt x="77" y="621" on="1"/>
        <pt x="83" y="637" on="1"/>
        <pt x="471" y="637" on="1"/>
        <pt x="474" y="633" on="1"/>
      </contour>
    </TTGlyph>
    <TTGlyph name="Tcaron" xMin="77" yMin="0" xMax="474" yMax="843">
      <component glyphName="T" x="0" y="0" flags="0x1000"/>
      <component glyphName="caron" x="46" y="185" flags="0x1000"/>
    </TTGlyph>
    <TTGlyph name="Tcedilla" xMin="77" yMin="-178" xMax="474" yMax="637">
      <contour>
        <pt x="468" y="617" on="1"/>
        <pt x="285" y="617" on="1"/>
        <pt x="231" y="195" on="1"/>
        <pt x="207" y="0" on="1"/>
        <pt x="190" y="-55" on="1"/>
        <pt x="219" y="-75" on="1"/>
        <pt x="250" y="-97" on="0"/>
        <pt x="250" y="-125" on="1"/>
        <pt x="250" y="-149" on="0"/>
        <pt x="216" y="-178" on="0"/>
        <pt x="193" y="-178" on="1"/>
        <pt x="159" y="-178" on="0"/>
        <pt x="137" y="-145" on="1"/>
        <pt x="143" y="-127" on="1"/>
        <pt x="147" y="-127" on="1"/>
        <pt x="157" y="-143" on="0"/>
        <pt x="176" y="-158" on="0"/>
        <pt x="193" y="-158" on="1"/>
        <pt x="210" y="-158" on="0"/>
        <pt x="230" y="-141" on="0"/>
        <pt x="230" y="-125" on="1"/>
        <pt x="230" y="-114" on="0"/>
        <pt x="220" y="-101" on="0"/>
        <pt x="208" y="-92" on="1"/>
        <pt x="167" y="-64" on="1"/>
        <pt x="187" y="0" on="1"/>
        <pt x="211" y="195" on="1"/>
        <pt x="265" y="617" on="1"/>
        <pt x="80" y="617" on="1"/>
        <pt x="77" y="621" on="1"/>
        <pt x="83" y="637" on="1"/>
        <pt x="471" y="637" on="1"/>
        <pt x="474" y="633" on="1"/>
      </contour>
    </TTGlyph>
    <TTGlyph name="Thorn" xMin="80" yMin="0" xMax="429" yMax="637">
      <contour>
        <pt x="351" y="516" on="0"/>
        <pt x="429" y="438" on="0"/>
        <pt x="429" y="366" on="1"/>
        <pt x="429" y="253" on="0"/>
        <pt x="309" y="126" on="0"/>
        <pt x="199" y="126" on="1"/>
        <pt x="116" y="126" on="1"/>
        <pt x="100" y="0" on="1"/>
        <pt x="80" y="0" on="1"/>
        <pt x="105" y="195" on="1"/>
        <pt x="160" y="637" on="1"/>
        <pt x="180" y="637" on="1"/>
        <pt x="165" y="514" on="1"/>
        <pt x="278" y="516" on="1"/>
      </contour>
      <contour>
        <pt x="314" y="154" on="0"/>
        <pt x="409" y="271" on="0"/>
        <pt x="409" y="362" on="1"/>
        <pt x="409" y="424" on="0"/>
        <pt x="344" y="493" on="0"/>
        <pt x="283" y="496" on="1"/>
        <pt x="162" y="495" on="1"/>
        <pt x="125" y="195" on="1"/>
        <pt x="119" y="146" on="1"/>
        <pt x="231" y="146" on="1"/>
      </contour>
    </TTGlyph>
    <TTGlyph name="U" xMin="81" yMin="-4" xMax="551" yMax="637">
      <contour>
        <pt x="500" y="229" on="1"/>
        <pt x="489" y="118" on="0"/>
        <pt x="366" y="-4" on="0"/>
        <pt x="266" y="-4" on="1"/>
        <pt x="177" y="-4" on="0"/>
        <pt x="81" y="89" on="0"/>
        <pt x="81" y="176" on="1"/>
        <pt x="81" y="205" on="0"/>
        <pt x="85" y="229" on="1"/>
        <pt x="98" y="322" on="1"/>
        <pt x="138" y="637" on="1"/>
        <pt x="158" y="637" on="1"/>
        <pt x="105" y="229" on="1"/>
        <pt x="101" y="195" on="0"/>
        <pt x="101" y="180" on="1"/>
        <pt x="101" y="101" on="0"/>
        <pt x="186" y="16" on="0"/>
        <pt x="265" y="16" on="1"/>
        <pt x="356" y="16" on="0"/>
        <pt x="466" y="126" on="0"/>
        <pt x="480" y="229" on="1"/>
        <pt x="531" y="637" on="1"/>
        <pt x="551" y="637" on="1"/>
        <pt x="510" y="312" on="1"/>
      </contour>
    </TTGlyph>
    <TTGlyph name="Uacute" xMin="81" yMin="-4" xMax="551" yMax="836">
      <component glyphName="U" x="0" y="0" flags="0x1000"/>
      <component glyphName="acute.cap" x="130" y="185" flags="0x1000"/>
    </TTGlyph>
    <TTGlyph name="Ubreve" xMin="81" yMin="-4" xMax="551" yMax="825">
      <component glyphName="U" x="0" y="0" flags="0x1000"/>
      <component glyphName="breve" x="114" y="185" flags="0x1000"/>
    </TTGlyph>
    <TTGlyph name="Ucaron" xMin="81" yMin="-4" xMax="551" yMax="843">
      <component glyphName="U" x="0" y="0" flags="0x1000"/>
      <component glyphName="caron" x="112" y="185" flags="0x1000"/>
    </TTGlyph>
    <TTGlyph name="Ucircumflex" xMin="81" yMin="-4" xMax="551" yMax="826">
      <component glyphName="U" x="0" y="0" flags="0x1000"/>
      <component glyphName="circumflex.cap" x="124" y="185" flags="0x1000"/>
    </TTGlyph>
    <TTGlyph name="Udieresis" xMin="81" yMin="-4" xMax="551" yMax="801">
      <component glyphName="U" x="0" y="0" flags="0x1000"/>
      <component glyphName="dieresis" x="120" y="185" flags="0x1000"/>
    </TTGlyph>
    <TTGlyph name="Udieresisacute" xMin="81" yMin="-4" xMax="551" yMax="921">
      <component glyphName="U" x="0" y="0" flags="0x1000"/>
      <component glyphName="dieresisacute" x="119" y="185" flags="0x1000"/>
    </TTGlyph>
    <TTGlyph name="Udieresiscaron" xMin="81" yMin="-4" xMax="551" yMax="903">
      <component glyphName="U" x="0" y="0" flags="0x1000"/>
      <component glyphName="dieresiscaron" x="119" y="185" flags="0x1000"/>
    </TTGlyph>
    <TTGlyph name="Udieresisgrave" xMin="81" yMin="-4" xMax="551" yMax="921">
      <component glyphName="U" x="0" y="0" flags="0x1000"/>
      <component glyphName="dieresisgrave" x="116" y="185" flags="0x1000"/>
    </TTGlyph>
    <TTGlyph name="Udieresismacron" xMin="81" yMin="-4" xMax="551" yMax="876">
      <component glyphName="U" x="0" y="0" flags="0x1000"/>
      <component glyphName="dieresismacron" x="119" y="185" flags="0x1000"/>
    </TTGlyph>
    <TTGlyph name="Udotbelow" xMin="81" yMin="-127" xMax="551" yMax="637">
      <component glyphName="U" x="0" y="0" flags="0x1000"/>
      <component glyphName="dotbelowcomb" x="113" y="0" flags="0x1000"/>
    </TTGlyph>
    <TTGlyph name="Ugrave" xMin="81" yMin="-4" xMax="551" yMax="836">
      <component glyphName="U" x="0" y="0" flags="0x1000"/>
      <component glyphName="grave.cap" x="119" y="185" flags="0x1000"/>
    </TTGlyph>
    <TTGlyph name="Uhookabove" xMin="81" yMin="-4" xMax="551" yMax="862">
      <component glyphName="U" x="0" y="0" flags="0x1000"/>
      <component glyphName="hookabove" x="93" y="185" flags="0x1000"/>
    </TTGlyph>
    <TTGlyph name="Uhorn" xMin="81" yMin="-4" xMax="627" yMax="761">
      <contour>
        <pt x="627" y="659" on="0"/>
        <pt x="584" y="619" on="0"/>
        <pt x="549" y="617" on="1"/>
        <pt x="510" y="312" on="1"/>
        <pt x="500" y="229" on="1"/>
        <pt x="489" y="118" on="0"/>
        <pt x="366" y="-4" on="0"/>
        <pt x="266" y="-4" on="1"/>
        <pt x="177" y="-4" on="0"/>
        <pt x="81" y="89" on="0"/>
        <pt x="81" y="176" on="1"/>
        <pt x="81" y="205" on="0"/>
        <pt x="85" y="229" on="1"/>
        <pt x="98" y="322" on="1"/>
        <pt x="138" y="637" on="1"/>
        <pt x="158" y="637" on="1"/>
        <pt x="105" y="229" on="1"/>
        <pt x="101" y="195" on="0"/>
        <pt x="101" y="180" on="1"/>
        <pt x="101" y="101" on="0"/>
        <pt x="186" y="16" on="0"/>
        <pt x="265" y="16" on="1"/>
        <pt x="356" y="16" on="0"/>
        <pt x="466" y="126" on="0"/>
        <pt x="480" y="229" on="1"/>
        <pt x="531" y="637" on="1"/>
        <pt x="542" y="637" on="1"/>
        <pt x="572" y="637" on="0"/>
        <pt x="607" y="666" on="0"/>
        <pt x="607" y="690" on="1"/>
        <pt x="607" y="717" on="0"/>
        <pt x="576" y="751" on="1"/>
        <pt x="578" y="756" on="1"/>
        <pt x="584" y="761" on="0"/>
        <pt x="590" y="761" on="1"/>
        <pt x="596" y="761" on="0"/>
        <pt x="614" y="741" on="0"/>
        <pt x="627" y="709" on="0"/>
        <pt x="627" y="690" on="1"/>
      </contour>
    </TTGlyph>
    <TTGlyph name="Uhornacute" xMin="81" yMin="-4" xMax="627" yMax="836">
      <component glyphName="Uhorn" x="0" y="0" flags="0x1000"/>
      <component glyphName="acute.cap" x="127" y="185" flags="0x1000"/>
    </TTGlyph>
    <TTGlyph name="Uhorndotbelow" xMin="81" yMin="-129" xMax="627" yMax="761">
      <component glyphName="Uhorn" x="0" y="0" flags="0x1000"/>
      <component glyphName="dotbelowcomb" x="99" y="-2" flags="0x1000"/>
    </TTGlyph>
    <TTGlyph name="Uhorngrave" xMin="81" yMin="-4" xMax="627" yMax="836">
      <component glyphName="Uhorn" x="0" y="0" flags="0x1000"/>
      <component glyphName="grave.cap" x="116" y="185" flags="0x1000"/>
    </TTGlyph>
    <TTGlyph name="Uhornhookabove" xMin="81" yMin="-4" xMax="627" yMax="862">
      <component glyphName="Uhorn" x="0" y="0" flags="0x1000"/>
      <component glyphName="hookabove" x="90" y="185" flags="0x1000"/>
    </TTGlyph>
    <TTGlyph name="Uhorntilde" xMin="81" yMin="-4" xMax="627" yMax="816">
      <component glyphName="Uhorn" x="0" y="0" flags="0x1000"/>
      <component glyphName="tilde" x="117" y="185" flags="0x1000"/>
    </TTGlyph>
    <TTGlyph name="Uhungarumlaut" xMin="81" yMin="-4" xMax="551" yMax="841">
      <component glyphName="U" x="0" y="0" flags="0x1000"/>
      <component glyphName="hungarumlaut.cap" x="119" y="185" flags="0x1000"/>
    </TTGlyph>
    <TTGlyph name="Umacron" xMin="81" yMin="-4" xMax="551" yMax="792">
      <component glyphName="U" x="0" y="0" flags="0x1000"/>
      <component glyphName="macron" x="120" y="185" flags="0x1000"/>
    </TTGlyph>
    <TTGlyph name="Uogonek" xMin="81" yMin="-197" xMax="551" yMax="637">
      <contour>
        <pt x="510" y="312" on="1"/>
        <pt x="500" y="229" on="1"/>
        <pt x="485" y="82" on="0"/>
        <pt x="386" y="25" on="1"/>
        <pt x="320" y="-78" on="1"/>
        <pt x="301" y="-108" on="0"/>
        <pt x="301" y="-132" on="1"/>
        <pt x="301" y="-152" on="0"/>
        <pt x="323" y="-177" on="0"/>
        <pt x="342" y="-177" on="1"/>
        <pt x="362" y="-177" on="0"/>
        <pt x="402" y="-149" on="0"/>
        <pt x="418" y="-124" on="1"/>
        <pt x="420" y="-124" on="1"/>
        <pt x="431" y="-140" on="1"/>
        <pt x="389" y="-197" on="0"/>
        <pt x="342" y="-197" on="1"/>
        <pt x="314" y="-197" on="0"/>
        <pt x="281" y="-162" on="0"/>
        <pt x="281" y="-132" on="1"/>
        <pt x="281" y="-101" on="0"/>
        <pt x="301" y="-72" on="1"/>
        <pt x="354" y="11" on="1"/>
        <pt x="315" y="-4" on="0"/>
        <pt x="266" y="-4" on="1"/>
        <pt x="177" y="-4" on="0"/>
        <pt x="81" y="89" on="0"/>
        <pt x="81" y="176" on="1"/>
        <pt x="81" y="205" on="0"/>
        <pt x="85" y="229" on="1"/>
        <pt x="98" y="322" on="1"/>
        <pt x="138" y="637" on="1"/>
        <pt x="158" y="637" on="1"/>
        <pt x="105" y="229" on="1"/>
        <pt x="101" y="195" on="0"/>
        <pt x="101" y="180" on="1"/>
        <pt x="101" y="101" on="0"/>
        <pt x="186" y="16" on="0"/>
        <pt x="265" y="16" on="1"/>
        <pt x="356" y="16" on="0"/>
        <pt x="466" y="126" on="0"/>
        <pt x="480" y="229" on="1"/>
        <pt x="531" y="637" on="1"/>
        <pt x="551" y="637" on="1"/>
      </contour>
    </TTGlyph>
    <TTGlyph name="Uring" xMin="81" yMin="-4" xMax="551" yMax="853">
      <component glyphName="U" x="0" y="0" flags="0x1000"/>
      <component glyphName="ring" x="120" y="185" flags="0x1000"/>
    </TTGlyph>
    <TTGlyph name="Utilde" xMin="81" yMin="-4" xMax="551" yMax="816">
      <component glyphName="U" x="0" y="0" flags="0x1000"/>
      <component glyphName="tilde" x="120" y="185" flags="0x1000"/>
    </TTGlyph>
    <TTGlyph name="V" xMin="71" yMin="0" xMax="549" yMax="637">
      <contour>
        <pt x="210" y="0" on="1"/>
        <pt x="71" y="637" on="1"/>
        <pt x="94" y="637" on="1"/>
        <pt x="101" y="594" on="1"/>
        <pt x="223" y="34" on="1"/>
        <pt x="227" y="34" on="1"/>
        <pt x="507" y="594" on="1"/>
        <pt x="525" y="637" on="1"/>
        <pt x="549" y="637" on="1"/>
        <pt x="232" y="0" on="1"/>
      </contour>
    </TTGlyph>
    <TTGlyph name="V.ss01" xMin="-124" yMin="0" xMax="579" yMax="491">
      <contour>
        <pt x="212" y="20" on="1"/>
        <pt x="519" y="20" on="1"/>
        <pt x="517" y="0" on="1"/>
        <pt x="-124" y="0" on="1"/>
        <pt x="-122" y="20" on="1"/>
        <pt x="178" y="20" on="1"/>
        <pt x="71" y="471" on="1"/>
        <pt x="-64" y="471" on="1"/>
        <pt x="-62" y="491" on="1"/>
        <pt x="579" y="491" on="1"/>
        <pt x="577" y="471" on="1"/>
        <pt x="448" y="471" on="1"/>
      </contour>
      <contour>
        <pt x="91" y="471" on="1"/>
        <pt x="94" y="453" on="1"/>
        <pt x="196" y="32" on="1"/>
        <pt x="198" y="32" on="1"/>
        <pt x="418" y="453" on="1"/>
        <pt x="427" y="471" on="1"/>
      </contour>
    </TTGlyph>
    <TTGlyph name="W" xMin="74" yMin="0" xMax="873" yMax="637">
      <contour>
        <pt x="539" y="0" on="1"/>
        <pt x="448" y="438" on="1"/>
        <pt x="444" y="438" on="1"/>
        <pt x="231" y="0" on="1"/>
        <pt x="209" y="0" on="1"/>
        <pt x="74" y="637" on="1"/>
        <pt x="97" y="637" on="1"/>
        <pt x="104" y="594" on="1"/>
        <pt x="223" y="34" on="1"/>
        <pt x="227" y="34" on="1"/>
        <pt x="440" y="471" on="1"/>
        <pt x="404" y="637" on="1"/>
        <pt x="426" y="637" on="1"/>
        <pt x="433" y="594" on="1"/>
        <pt x="551" y="34" on="1"/>
        <pt x="555" y="34" on="1"/>
        <pt x="831" y="594" on="1"/>
        <pt x="850" y="637" on="1"/>
        <pt x="873" y="637" on="1"/>
        <pt x="559" y="0" on="1"/>
      </contour>
    </TTGlyph>
    <TTGlyph name="Wacute" xMin="74" yMin="0" xMax="873" yMax="836">
      <component glyphName="W" x="0" y="0" flags="0x1000"/>
      <component glyphName="acute.cap" x="235" y="185" flags="0x1000"/>
    </TTGlyph>
    <TTGlyph name="Wcircumflex" xMin="74" yMin="0" xMax="873" yMax="826">
      <component glyphName="W" x="0" y="0" flags="0x1000"/>
      <component glyphName="circumflex.cap" x="229" y="185" flags="0x1000"/>
    </TTGlyph>
    <TTGlyph name="Wdieresis" xMin="74" yMin="0" xMax="873" yMax="801">
      <component glyphName="W" x="0" y="0" flags="0x1000"/>
      <component glyphName="dieresis" x="225" y="185" flags="0x1000"/>
    </TTGlyph>
    <TTGlyph name="Wgrave" xMin="74" yMin="0" xMax="873" yMax="836">
      <component glyphName="W" x="0" y="0" flags="0x1000"/>
      <component glyphName="grave.cap" x="224" y="185" flags="0x1000"/>
    </TTGlyph>
    <TTGlyph name="X" xMin="7" yMin="0" xMax="528" yMax="637">
      <contour>
        <pt x="463" y="0" on="1"/>
        <pt x="438" y="0" on="1"/>
        <pt x="422" y="38" on="1"/>
        <pt x="274" y="314" on="1"/>
        <pt x="59" y="36" on="1"/>
        <pt x="34" y="0" on="1"/>
        <pt x="7" y="0" on="1"/>
        <pt x="264" y="331" on="1"/>
        <pt x="103" y="637" on="1"/>
        <pt x="129" y="637" on="1"/>
        <pt x="145" y="602" on="1"/>
        <pt x="279" y="346" on="1"/>
        <pt x="474" y="597" on="1"/>
        <pt x="501" y="637" on="1"/>
        <pt x="528" y="637" on="1"/>
        <pt x="290" y="329" on="1"/>
      </contour>
    </TTGlyph>
    <TTGlyph name="X.ss01" xMin="-124" yMin="0" xMax="601" yMax="491">
      <contour>
        <pt x="380" y="20" on="1"/>
        <pt x="541" y="20" on="1"/>
        <pt x="539" y="0" on="1"/>
        <pt x="-124" y="0" on="1"/>
        <pt x="-122" y="20" on="1"/>
        <pt x="30" y="20" on="1"/>
        <pt x="220" y="253" on="1"/>
        <pt x="95" y="471" on="1"/>
        <pt x="-64" y="471" on="1"/>
        <pt x="-62" y="491" on="1"/>
        <pt x="601" y="491" on="1"/>
        <pt x="599" y="471" on="1"/>
        <pt x="424" y="471" on="1"/>
        <pt x="245" y="253" on="1"/>
      </contour>
      <contour>
        <pt x="389" y="456" on="1"/>
        <pt x="399" y="471" on="1"/>
        <pt x="121" y="471" on="1"/>
        <pt x="126" y="460" on="1"/>
        <pt x="236" y="269" on="1"/>
      </contour>
      <contour>
        <pt x="60" y="31" on="1"/>
        <pt x="52" y="20" on="1"/>
        <pt x="354" y="20" on="1"/>
        <pt x="348" y="32" on="1"/>
        <pt x="231" y="238" on="1"/>
      </contour>
    </TTGlyph>
    <TTGlyph name="Y" xMin="77" yMin="0" xMax="492" yMax="637">
      <contour>
        <pt x="231" y="195" on="1"/>
        <pt x="207" y="0" on="1"/>
        <pt x="187" y="0" on="1"/>
        <pt x="211" y="195" on="1"/>
        <pt x="218" y="245" on="1"/>
        <pt x="77" y="637" on="1"/>
        <pt x="102" y="637" on="1"/>
        <pt x="109" y="611" on="1"/>
        <pt x="229" y="277" on="1"/>
        <pt x="234" y="277" on="1"/>
        <pt x="452" y="611" on="1"/>
        <pt x="466" y="637" on="1"/>
        <pt x="492" y="637" on="1"/>
        <pt x="238" y="247" on="1"/>
      </contour>
    </TTGlyph>
    <TTGlyph name="Yacute" xMin="77" yMin="0" xMax="492" yMax="836">
      <component glyphName="Y" x="0" y="0" flags="0x1000"/>
      <component glyphName="acute.cap" x="73" y="185" flags="0x1000"/>
    </TTGlyph>
    <TTGlyph name="Ycircumflex" xMin="77" yMin="0" xMax="492" yMax="826">
      <component glyphName="Y" x="0" y="0" flags="0x1000"/>
      <component glyphName="circumflex.cap" x="67" y="185" flags="0x1000"/>
    </TTGlyph>
    <TTGlyph name="Ydieresis" xMin="77" yMin="0" xMax="492" yMax="801">
      <component glyphName="Y" x="0" y="0" flags="0x1000"/>
      <component glyphName="dieresis" x="63" y="185" flags="0x1000"/>
    </TTGlyph>
    <TTGlyph name="Ydotbelow" xMin="77" yMin="-127" xMax="492" yMax="637">
      <component glyphName="Y" x="0" y="0" flags="0x1000"/>
      <component glyphName="dotbelowcomb" x="33" y="0" flags="0x1000"/>
    </TTGlyph>
    <TTGlyph name="Ygrave" xMin="77" yMin="0" xMax="492" yMax="836">
      <component glyphName="Y" x="0" y="0" flags="0x1000"/>
      <component glyphName="grave.cap" x="62" y="185" flags="0x1000"/>
    </TTGlyph>
    <TTGlyph name="Yhookabove" xMin="77" yMin="0" xMax="492" yMax="862">
      <component glyphName="Y" x="0" y="0" flags="0x1000"/>
      <component glyphName="hookabove" x="36" y="185" flags="0x1000"/>
    </TTGlyph>
    <TTGlyph name="Ytilde" xMin="77" yMin="0" xMax="492" yMax="816">
      <component glyphName="Y" x="0" y="0" flags="0x1000"/>
      <component glyphName="tilde" x="63" y="185" flags="0x1000"/>
    </TTGlyph>
    <TTGlyph name="Z" xMin="5" yMin="-1" xMax="489" yMax="638">
      <contour>
        <pt x="34" y="20" on="1"/>
        <pt x="344" y="20" on="1"/>
        <pt x="409" y="21" on="1"/>
        <pt x="413" y="16" on="1"/>
        <pt x="407" y="0" on="1"/>
        <pt x="39" y="0" on="1"/>
        <pt x="5" y="-1" on="1"/>
        <pt x="7" y="17" on="1"/>
        <pt x="460" y="617" on="1"/>
        <pt x="160" y="617" on="1"/>
        <pt x="105" y="616" on="1"/>
        <pt x="101" y="621" on="1"/>
        <pt x="107" y="638" on="1"/>
        <pt x="168" y="637" on="1"/>
        <pt x="454" y="637" on="1"/>
        <pt x="489" y="638" on="1"/>
        <pt x="487" y="620" on="1"/>
      </contour>
    </TTGlyph>
    <TTGlyph name="Zacute" xMin="5" yMin="-1" xMax="489" yMax="836">
      <component glyphName="Z" x="0" y="0" flags="0x1000"/>
      <component glyphName="acute.cap" x="51" y="185" flags="0x1000"/>
    </TTGlyph>
    <TTGlyph name="Zcaron" xMin="5" yMin="-1" xMax="489" yMax="819">
      <component glyphName="Z" x="0" y="0" flags="0x1000"/>
      <component glyphName="caron.cap" x="37" y="185" flags="0x1000"/>
    </TTGlyph>
    <TTGlyph name="Zdotaccent" xMin="5" yMin="-1" xMax="489" yMax="815">
      <component glyphName="Z" x="0" y="0" flags="0x1000"/>
      <component glyphName="dotaccent" x="41" y="185" flags="0x1000"/>
    </TTGlyph>
    <TTGlyph name="a" xMin="6" yMin="0" xMax="404" yMax="491">
      <contour>
        <pt x="381" y="0" on="1"/>
        <pt x="375" y="35" on="1"/>
        <pt x="345" y="161" on="1"/>
        <pt x="111" y="161" on="1"/>
        <pt x="45" y="35" on="1"/>
        <pt x="29" y="0" on="1"/>
        <pt x="6" y="0" on="1"/>
        <pt x="263" y="491" on="1"/>
        <pt x="285" y="491" on="1"/>
        <pt x="404" y="0" on="1"/>
      </contour>
      <contour>
        <pt x="272" y="461" on="1"/>
        <pt x="269" y="461" on="1"/>
        <pt x="121" y="180" on="1"/>
        <pt x="340" y="180" on="1"/>
      </contour>
    </TTGlyph>
    <TTGlyph name="a.sups" xMin="72" yMin="347" xMax="285" yMax="645">
      <contour>
        <pt x="255" y="418" on="1"/>
        <pt x="250" y="350" on="1"/>
        <pt x="227" y="347" on="1"/>
        <pt x="249" y="516" on="1"/>
        <pt x="245" y="516" on="1"/>
        <pt x="188" y="409" on="0"/>
        <pt x="118" y="347" on="1"/>
        <pt x="110" y="347" on="1"/>
        <pt x="89" y="360" on="0"/>
        <pt x="72" y="402" on="0"/>
        <pt x="72" y="440" on="1"/>
        <pt x="72" y="522" on="0"/>
        <pt x="151" y="637" on="0"/>
        <pt x="221" y="643" on="1"/>
        <pt x="224" y="643" on="1"/>
        <pt x="267" y="639" on="1"/>
        <pt x="281" y="645" on="1"/>
        <pt x="285" y="643" on="1"/>
      </contour>
      <contour>
        <pt x="123" y="371" on="0"/>
        <pt x="167" y="420" on="0"/>
        <pt x="227" y="509" on="0"/>
        <pt x="255" y="565" on="1"/>
        <pt x="257" y="581" on="1"/>
        <pt x="261" y="622" on="1"/>
        <pt x="221" y="625" on="1"/>
        <pt x="162" y="624" on="0"/>
        <pt x="91" y="519" on="0"/>
        <pt x="91" y="445" on="1"/>
        <pt x="91" y="408" on="0"/>
        <pt x="109" y="371" on="0"/>
        <pt x="117" y="371" on="1"/>
      </contour>
    </TTGlyph>
    <TTGlyph name="aacute" xMin="6" yMin="0" xMax="404" yMax="708">
      <component glyphName="a" x="0" y="0" flags="0x1000"/>
      <component glyphName="acute" x="53" y="39" flags="0x1000"/>
    </TTGlyph>
    <TTGlyph name="abreve" xMin="6" yMin="0" xMax="404" yMax="679">
      <component glyphName="a" x="0" y="0" flags="0x1000"/>
      <component glyphName="breve" x="45" y="39" flags="0x1000"/>
    </TTGlyph>
    <TTGlyph name="abreveacute" xMin="6" yMin="0" xMax="404" yMax="750">
      <component glyphName="a" x="0" y="0" flags="0x1000"/>
      <component glyphName="breveacute" x="50" y="39" flags="0x1000"/>
    </TTGlyph>
    <TTGlyph name="abrevedotbelow" xMin="6" yMin="-127" xMax="404" yMax="679">
      <contour>
        <pt x="235" y="561" on="0"/>
        <pt x="193" y="612" on="0"/>
        <pt x="189" y="666" on="1"/>
        <pt x="204" y="679" on="1"/>
        <pt x="209" y="679" on="1"/>
        <pt x="210" y="629" on="0"/>
        <pt x="244" y="581" on="0"/>
        <pt x="280" y="581" on="1"/>
        <pt x="349" y="581" on="0"/>
        <pt x="374" y="679" on="1"/>
        <pt x="379" y="679" on="1"/>
        <pt x="391" y="666" on="1"/>
        <pt x="359" y="561" on="0"/>
        <pt x="277" y="561" on="1"/>
      </contour>
      <contour>
        <pt x="381" y="0" on="1"/>
        <pt x="375" y="35" on="1"/>
        <pt x="345" y="161" on="1"/>
        <pt x="111" y="161" on="1"/>
        <pt x="45" y="35" on="1"/>
        <pt x="29" y="0" on="1"/>
        <pt x="6" y="0" on="1"/>
        <pt x="263" y="491" on="1"/>
        <pt x="285" y="491" on="1"/>
        <pt x="404" y="0" on="1"/>
      </contour>
      <contour>
        <pt x="272" y="461" on="1"/>
        <pt x="269" y="461" on="1"/>
        <pt x="121" y="180" on="1"/>
        <pt x="340" y="180" on="1"/>
      </contour>
      <contour>
        <pt x="232" y="-87" on="0"/>
        <pt x="232" y="-107" on="1"/>
        <pt x="232" y="-127" on="0"/>
        <pt x="212" y="-127" on="1"/>
        <pt x="192" y="-127" on="0"/>
        <pt x="192" y="-107" on="1"/>
        <pt x="192" y="-87" on="0"/>
        <pt x="212" y="-87" on="1"/>
      </contour>
    </TTGlyph>
    <TTGlyph name="abrevegrave" xMin="6" yMin="0" xMax="404" yMax="750">
      <component glyphName="a" x="0" y="0" flags="0x1000"/>
      <component glyphName="brevegrave" x="50" y="39" flags="0x1000"/>
    </TTGlyph>
    <TTGlyph name="abrevehookabove" xMin="6" yMin="0" xMax="404" yMax="786">
      <component glyphName="a" x="0" y="0" flags="0x1000"/>
      <component glyphName="brevehookabove" x="50" y="39" flags="0x1000"/>
    </TTGlyph>
    <TTGlyph name="abrevetilde" xMin="6" yMin="0" xMax="439" yMax="761">
      <component glyphName="a" x="0" y="0" flags="0x1000"/>
      <component glyphName="brevetilde" x="50" y="39" flags="0x1000"/>
    </TTGlyph>
    <TTGlyph name="acaron" xMin="6" yMin="0" xMax="404" yMax="697">
      <component glyphName="a" x="0" y="0" flags="0x1000"/>
      <component glyphName="caron" x="43" y="39" flags="0x1000"/>
    </TTGlyph>
    <TTGlyph name="acircumflex" xMin="6" yMin="0" xMax="404" yMax="687">
      <component glyphName="a" x="0" y="0" flags="0x1000"/>
      <component glyphName="circumflex" x="58" y="39" flags="0x1000"/>
    </TTGlyph>
    <TTGlyph name="acircumflexacute" xMin="6" yMin="0" xMax="421" yMax="750">
      <component glyphName="a" x="0" y="0" flags="0x1000"/>
      <component glyphName="circumflexacute" x="50" y="39" flags="0x1000"/>
    </TTGlyph>
    <TTGlyph name="acircumflexdotbelow" xMin="6" yMin="-127" xMax="404" yMax="687">
      <contour>
        <pt x="179" y="561" on="1"/>
        <pt x="216" y="597" on="0"/>
        <pt x="295" y="687" on="1"/>
        <pt x="313" y="687" on="1"/>
        <pt x="359" y="613" on="0"/>
        <pt x="399" y="561" on="1"/>
        <pt x="388" y="549" on="1"/>
        <pt x="383" y="549" on="1"/>
        <pt x="344" y="599" on="0"/>
        <pt x="302" y="666" on="1"/>
        <pt x="243" y="598" on="0"/>
        <pt x="192" y="549" on="1"/>
        <pt x="187" y="549" on="1"/>
      </contour>
      <contour>
        <pt x="381" y="0" on="1"/>
        <pt x="375" y="35" on="1"/>
        <pt x="345" y="161" on="1"/>
        <pt x="111" y="161" on="1"/>
        <pt x="45" y="35" on="1"/>
        <pt x="29" y="0" on="1"/>
        <pt x="6" y="0" on="1"/>
        <pt x="263" y="491" on="1"/>
        <pt x="285" y="491" on="1"/>
        <pt x="404" y="0" on="1"/>
      </contour>
      <contour>
        <pt x="272" y="461" on="1"/>
        <pt x="269" y="461" on="1"/>
        <pt x="121" y="180" on="1"/>
        <pt x="340" y="180" on="1"/>
      </contour>
      <contour>
        <pt x="232" y="-87" on="0"/>
        <pt x="232" y="-107" on="1"/>
        <pt x="232" y="-127" on="0"/>
        <pt x="212" y="-127" on="1"/>
        <pt x="192" y="-127" on="0"/>
        <pt x="192" y="-107" on="1"/>
        <pt x="192" y="-87" on="0"/>
        <pt x="212" y="-87" on="1"/>
      </contour>
    </TTGlyph>
    <TTGlyph name="acircumflexgrave" xMin="6" yMin="0" xMax="404" yMax="749">
      <component glyphName="a" x="0" y="0" flags="0x1000"/>
      <component glyphName="circumflexgrave" x="50" y="39" flags="0x1000"/>
    </TTGlyph>
    <TTGlyph name="acircumflexhookabove" xMin="6" yMin="0" xMax="412" yMax="776">
      <component glyphName="a" x="0" y="0" flags="0x1000"/>
      <component glyphName="circumflexhookabove" x="50" y="39" flags="0x1000"/>
    </TTGlyph>
    <TTGlyph name="acircumflextilde" xMin="6" yMin="0" xMax="445" yMax="761">
      <component glyphName="a" x="0" y="0" flags="0x1000"/>
      <component glyphName="circumflextilde" x="50" y="39" flags="0x1000"/>
    </TTGlyph>
    <TTGlyph name="acute" xMin="160" yMin="518" xMax="321" yMax="669">
      <contour>
        <pt x="321" y="658" on="1"/>
        <pt x="320" y="653" on="1"/>
        <pt x="251" y="584" on="0"/>
        <pt x="176" y="518" on="1"/>
        <pt x="171" y="519" on="1"/>
        <pt x="160" y="532" on="1"/>
        <pt x="229" y="590" on="0"/>
        <pt x="306" y="669" on="1"/>
        <pt x="311" y="668" on="1"/>
      </contour>
    </TTGlyph>
    <TTGlyph name="acute.cap" xMin="146" yMin="539" xMax="334" yMax="651">
      <contour>
        <pt x="334" y="637" on="1"/>
        <pt x="332" y="632" on="1"/>
        <pt x="265" y="594" on="0"/>
        <pt x="158" y="539" on="1"/>
        <pt x="153" y="542" on="1"/>
        <pt x="146" y="557" on="1"/>
        <pt x="237" y="601" on="0"/>
        <pt x="322" y="651" on="1"/>
        <pt x="327" y="649" on="1"/>
      </contour>
    </TTGlyph>
    <TTGlyph name="adieresis" xMin="6" yMin="0" xMax="404" yMax="655">
      <component glyphName="a" x="0" y="0" flags="0x1000"/>
      <component glyphName="dieresis" x="51" y="39" flags="0x1000"/>
    </TTGlyph>
    <TTGlyph name="adotbelow" xMin="6" yMin="-127" xMax="404" yMax="491">
      <component glyphName="a" x="0" y="0" flags="0x1000"/>
      <component glyphName="dotbelowcomb" x="58" y="0" flags="0x1000"/>
    </TTGlyph>
    <TTGlyph name="ae" xMin="-21" yMin="0" xMax="592" yMax="491">
      <contour>
        <pt x="587" y="0" on="1"/>
        <pt x="346" y="0" on="1"/>
        <pt x="348" y="35" on="1"/>
        <pt x="340" y="221" on="1"/>
        <pt x="133" y="186" on="1"/>
        <pt x="26" y="35" on="1"/>
        <pt x="5" y="0" on="1"/>
        <pt x="-21" y="0" on="1"/>
        <pt x="327" y="491" on="1"/>
        <pt x="567" y="491" on="1"/>
        <pt x="569" y="487" on="1"/>
        <pt x="563" y="471" on="1"/>
        <pt x="350" y="472" on="1"/>
        <pt x="359" y="243" on="1"/>
        <pt x="545" y="273" on="1"/>
        <pt x="547" y="271" on="1"/>
        <pt x="543" y="254" on="1"/>
        <pt x="359" y="225" on="1"/>
        <pt x="367" y="19" on="1"/>
        <pt x="591" y="19" on="1"/>
        <pt x="592" y="16" on="1"/>
      </contour>
      <contour>
        <pt x="329" y="460" on="1"/>
        <pt x="326" y="460" on="1"/>
        <pt x="148" y="209" on="1"/>
        <pt x="339" y="240" on="1"/>
      </contour>
    </TTGlyph>
    <TTGlyph name="aeacute" xMin="-21" yMin="0" xMax="592" yMax="708">
      <component glyphName="ae" x="0" y="0" flags="0x1000"/>
      <component glyphName="acute" x="226" y="39" flags="0x1000"/>
    </TTGlyph>
    <TTGlyph name="agrave" xMin="6" yMin="0" xMax="404" yMax="708">
      <component glyphName="a" x="0" y="0" flags="0x1000"/>
      <component glyphName="grave" x="41" y="39" flags="0x1000"/>
    </TTGlyph>
    <TTGlyph name="ahookabove" xMin="6" yMin="0" xMax="404" yMax="716">
      <component glyphName="a" x="0" y="0" flags="0x1000"/>
      <component glyphName="hookabove" x="24" y="39" flags="0x1000"/>
    </TTGlyph>
    <TTGlyph name="amacron" xMin="6" yMin="0" xMax="438" yMax="646">
      <component glyphName="a" x="0" y="0" flags="0x1000"/>
      <component glyphName="macron" x="51" y="39" flags="0x1000"/>
    </TTGlyph>
    <TTGlyph name="ampersand" xMin="62" yMin="-10" xMax="829" yMax="711">
      <contour>
        <pt x="810" y="312" on="0"/>
        <pt x="761" y="271" on="0"/>
        <pt x="719" y="268" on="1"/>
        <pt x="685" y="268" on="0"/>
        <pt x="597" y="288" on="1"/>
        <pt x="600" y="199" on="0"/>
        <pt x="531" y="64" on="0"/>
        <pt x="400" y="-10" on="0"/>
        <pt x="312" y="-10" on="1"/>
        <pt x="238" y="-10" on="0"/>
        <pt x="124" y="58" on="0"/>
        <pt x="62" y="181" on="0"/>
        <pt x="62" y="261" on="1"/>
        <pt x="62" y="329" on="0"/>
        <pt x="109" y="435" on="0"/>
        <pt x="188" y="495" on="0"/>
        <pt x="234" y="495" on="1"/>
        <pt x="279" y="495" on="0"/>
        <pt x="334" y="450" on="0"/>
        <pt x="334" y="414" on="1"/>
        <pt x="334" y="383" on="0"/>
        <pt x="316" y="354" on="1"/>
        <pt x="418" y="426" on="0"/>
        <pt x="578" y="611" on="0"/>
        <pt x="622" y="711" on="1"/>
        <pt x="626" y="711" on="1"/>
        <pt x="631" y="702" on="0"/>
        <pt x="634" y="691" on="1"/>
        <pt x="586" y="586" on="0"/>
        <pt x="416" y="396" on="0"/>
        <pt x="201" y="251" on="0"/>
        <pt x="85" y="212" on="1"/>
        <pt x="99" y="120" on="0"/>
        <pt x="220" y="11" on="0"/>
        <pt x="312" y="11" on="1"/>
        <pt x="395" y="11" on="0"/>
        <pt x="518" y="81" on="0"/>
        <pt x="581" y="209" on="0"/>
        <pt x="577" y="292" on="1"/>
        <pt x="518" y="305" on="0"/>
        <pt x="497" y="305" on="1"/>
        <pt x="431" y="305" on="0"/>
        <pt x="403" y="228" on="1"/>
        <pt x="398" y="226" on="1"/>
        <pt x="385" y="236" on="1"/>
        <pt x="404" y="281" on="0"/>
        <pt x="453" y="322" on="0"/>
        <pt x="495" y="325" on="1"/>
        <pt x="519" y="325" on="0"/>
        <pt x="599" y="307" on="1"/>
        <pt x="692" y="288" on="0"/>
        <pt x="717" y="288" on="1"/>
        <pt x="783" y="288" on="0"/>
        <pt x="811" y="365" on="1"/>
        <pt x="816" y="367" on="1"/>
        <pt x="829" y="357" on="1"/>
      </contour>
      <contour>
        <pt x="193" y="475" on="0"/>
        <pt x="123" y="421" on="0"/>
        <pt x="82" y="324" on="0"/>
        <pt x="82" y="261" on="1"/>
        <pt x="82" y="242" on="0"/>
        <pt x="83" y="233" on="1"/>
        <pt x="181" y="267" on="0"/>
        <pt x="270" y="324" on="1"/>
        <pt x="318" y="362" on="0"/>
        <pt x="313" y="416" on="1"/>
        <pt x="312" y="443" on="0"/>
        <pt x="269" y="475" on="0"/>
        <pt x="235" y="475" on="1"/>
      </contour>
    </TTGlyph>
    <TTGlyph name="aogonek" xMin="6" yMin="-196" xMax="406" yMax="491">
      <contour>
        <pt x="365" y="-196" on="0"/>
        <pt x="323" y="-196" on="1"/>
        <pt x="273" y="-196" on="0"/>
        <pt x="273" y="-147" on="1"/>
        <pt x="273" y="-125" on="0"/>
        <pt x="312" y="-67" on="0"/>
        <pt x="381" y="0" on="1"/>
        <pt x="375" y="35" on="1"/>
        <pt x="345" y="161" on="1"/>
        <pt x="111" y="161" on="1"/>
        <pt x="45" y="35" on="1"/>
        <pt x="29" y="0" on="1"/>
        <pt x="6" y="0" on="1"/>
        <pt x="263" y="491" on="1"/>
        <pt x="285" y="491" on="1"/>
        <pt x="404" y="0" on="1"/>
        <pt x="340" y="-64" on="0"/>
        <pt x="294" y="-123" on="0"/>
        <pt x="294" y="-145" on="1"/>
        <pt x="294" y="-176" on="0"/>
        <pt x="326" y="-176" on="1"/>
        <pt x="360" y="-176" on="0"/>
        <pt x="397" y="-123" on="1"/>
        <pt x="399" y="-123" on="1"/>
        <pt x="406" y="-139" on="1"/>
      </contour>
      <contour>
        <pt x="272" y="461" on="1"/>
        <pt x="269" y="461" on="1"/>
        <pt x="121" y="180" on="1"/>
        <pt x="340" y="180" on="1"/>
      </contour>
    </TTGlyph>
    <TTGlyph name="approxequal" xMin="83" yMin="165" xMax="439" yMax="380">
      <component glyphName="asciitilde" x="30" y="76" flags="0x1000"/>
      <component glyphName="asciitilde" x="12" y="-68" flags="0x1000"/>
    </TTGlyph>
    <TTGlyph name="aring" xMin="6" yMin="0" xMax="404" yMax="707">
      <component glyphName="a" x="0" y="0" flags="0x1000"/>
      <component glyphName="ring" x="51" y="39" flags="0x1000"/>
    </TTGlyph>
    <TTGlyph name="aringacute" xMin="6" yMin="0" xMax="413" yMax="786">
      <component glyphName="a" x="0" y="0" flags="0x1000"/>
      <component glyphName="newGlyph#3" x="50" y="39" flags="0x1000"/>
    </TTGlyph>
    <TTGlyph name="arrowdown" xMin="55" yMin="0" xMax="443" yMax="454">
      <contour>
        <pt x="251" y="0" on="1"/>
        <pt x="247" y="0" on="1"/>
        <pt x="55" y="190" on="1"/>
        <pt x="63" y="204" on="1"/>
        <pt x="69" y="204" on="1"/>
        <pt x="239" y="37" on="1"/>
        <pt x="239" y="452" on="1"/>
        <pt x="241" y="454" on="1"/>
        <pt x="259" y="452" on="1"/>
        <pt x="259" y="37" on="1"/>
        <pt x="429" y="204" on="1"/>
        <pt x="435" y="204" on="1"/>
        <pt x="443" y="190" on="1"/>
      </contour>
    </TTGlyph>
    <TTGlyph name="arrowdownleft" xMin="104" yMin="64" xMax="434" yMax="394">
      <component glyphName="arrowdown" x="-69" y="243" scalex="0.706970214844" scale01="-0.706970214844" scale10="0.706970214844" scaley="0.706970214844" flags="0x1000"/>
    </TTGlyph>
    <TTGlyph name="arrowdownright" xMin="62" yMin="63" xMax="392" yMax="393">
      <component glyphName="arrowdown" x="213" y="-110" scalex="0.706970214844" scale01="0.706970214844" scale10="-0.706970214844" scaley="0.706970214844" flags="0x1000"/>
    </TTGlyph>
    <TTGlyph name="arrowleft" xMin="21" yMin="33" xMax="475" yMax="421">
      <component glyphName="arrowdown" x="21" y="476" scalex="0.0" scale01="-1.0" scale10="1.0" scaley="0.0" flags="0x1000"/>
    </TTGlyph>
    <TTGlyph name="arrowright" xMin="22" yMin="34" xMax="476" yMax="422">
      <component glyphName="arrowdown" x="476" y="-21" scalex="0.0" scale01="1.0" scale10="-1.0" scaley="0.0" flags="0x1000"/>
    </TTGlyph>
    <TTGlyph name="arrowup" xMin="54" yMin="1" xMax="442" yMax="455">
      <component glyphName="arrowdown" x="497" y="455" scale="-1.0" flags="0x1000"/>
    </TTGlyph>
    <TTGlyph name="arrowupleft" xMin="105" yMin="61" xMax="435" yMax="391">
      <component glyphName="arrowdown" x="284" y="564" scalex="-0.706970214844" scale01="-0.706970214844" scale10="0.706970214844" scaley="-0.706970214844" flags="0x1000"/>
    </TTGlyph>
    <TTGlyph name="arrowupright" xMin="64" yMin="61" xMax="394" yMax="391">
      <component glyphName="arrowdown" x="567" y="212" scalex="-0.706970214844" scale01="0.706970214844" scale10="-0.706970214844" scaley="-0.706970214844" flags="0x1000"/>
    </TTGlyph>
    <TTGlyph name="asciicircum" xMin="12" yMin="112" xMax="369" yMax="487">
      <contour>
        <pt x="367" y="117" on="1"/>
        <pt x="351" y="112" on="1"/>
        <pt x="241" y="462" on="1"/>
        <pt x="237" y="462" on="1"/>
        <pt x="30" y="116" on="1"/>
        <pt x="25" y="113" on="1"/>
        <pt x="12" y="120" on="1"/>
        <pt x="228" y="484" on="1"/>
        <pt x="232" y="487" on="1"/>
        <pt x="254" y="487" on="1"/>
        <pt x="369" y="121" on="1"/>
      </contour>
    </TTGlyph>
    <TTGlyph name="asciitilde" xMin="71" yMin="233" xMax="409" yMax="304">
      <contour>
        <pt x="137" y="279" on="0"/>
        <pt x="103" y="250" on="1"/>
        <pt x="84" y="233" on="1"/>
        <pt x="78" y="233" on="1"/>
        <pt x="71" y="242" on="1"/>
        <pt x="71" y="247" on="1"/>
        <pt x="135" y="300" on="1"/>
        <pt x="141" y="303" on="1"/>
        <pt x="153" y="301" on="0"/>
        <pt x="234" y="281" on="1"/>
        <pt x="313" y="258" on="0"/>
        <pt x="333" y="258" on="1"/>
        <pt x="341" y="258" on="0"/>
        <pt x="361" y="273" on="0"/>
        <pt x="389" y="298" on="0"/>
        <pt x="396" y="304" on="1"/>
        <pt x="402" y="304" on="1"/>
        <pt x="409" y="294" on="1"/>
        <pt x="409" y="290" on="1"/>
        <pt x="344" y="236" on="1"/>
        <pt x="338" y="234" on="1"/>
        <pt x="315" y="236" on="0"/>
        <pt x="237" y="258" on="1"/>
        <pt x="164" y="279" on="0"/>
        <pt x="147" y="279" on="1"/>
      </contour>
    </TTGlyph>
    <TTGlyph name="asterisk" xMin="83" yMin="437" xMax="369" yMax="715">
      <contour>
        <pt x="230" y="600" on="1"/>
        <pt x="216" y="598" on="1"/>
        <pt x="213" y="603" on="1"/>
        <pt x="218" y="712" on="1"/>
        <pt x="228" y="715" on="0"/>
        <pt x="239" y="715" on="1"/>
        <pt x="241" y="713" on="1"/>
      </contour>
      <contour>
        <pt x="190" y="569" on="1"/>
        <pt x="185" y="568" on="1"/>
        <pt x="83" y="606" on="1"/>
        <pt x="83" y="620" on="0"/>
        <pt x="86" y="627" on="1"/>
        <pt x="89" y="629" on="1"/>
        <pt x="193" y="583" on="1"/>
      </contour>
      <contour>
        <pt x="365" y="609" on="0"/>
        <pt x="369" y="597" on="1"/>
        <pt x="368" y="595" on="1"/>
        <pt x="257" y="570" on="1"/>
        <pt x="252" y="583" on="1"/>
        <pt x="255" y="587" on="1"/>
        <pt x="359" y="616" on="1"/>
      </contour>
      <contour>
        <pt x="313" y="452" on="1"/>
        <pt x="306" y="442" on="0"/>
        <pt x="298" y="437" on="1"/>
        <pt x="295" y="437" on="1"/>
        <pt x="237" y="535" on="1"/>
        <pt x="248" y="544" on="1"/>
        <pt x="253" y="542" on="1"/>
      </contour>
      <contour>
        <pt x="209" y="530" on="1"/>
        <pt x="142" y="445" on="1"/>
        <pt x="132" y="448" on="0"/>
        <pt x="123" y="455" on="1"/>
        <pt x="122" y="458" on="1"/>
        <pt x="198" y="543" on="1"/>
        <pt x="210" y="536" on="1"/>
      </contour>
    </TTGlyph>
    <TTGlyph name="at" xMin="44" yMin="-185" xMax="763" yMax="592">
      <contour>
        <pt x="538" y="592" on="0"/>
        <pt x="684" y="514" on="0"/>
        <pt x="763" y="375" on="0"/>
        <pt x="763" y="284" on="1"/>
        <pt x="763" y="152" on="0"/>
        <pt x="609" y="5" on="0"/>
        <pt x="463" y="-4" on="1"/>
        <pt x="499" y="271" on="1"/>
        <pt x="494" y="271" on="1"/>
        <pt x="401" y="94" on="0"/>
        <pt x="292" y="-4" on="1"/>
        <pt x="281" y="-4" on="1"/>
        <pt x="254" y="16" on="0"/>
        <pt x="229" y="80" on="0"/>
        <pt x="229" y="137" on="1"/>
        <pt x="229" y="222" on="0"/>
        <pt x="282" y="364" on="0"/>
        <pt x="385" y="452" on="0"/>
        <pt x="456" y="457" on="1"/>
        <pt x="460" y="457" on="1"/>
        <pt x="525" y="452" on="1"/>
        <pt x="538" y="459" on="1"/>
        <pt x="543" y="456" on="1"/>
        <pt x="497" y="106" on="1"/>
        <pt x="489" y="16" on="1"/>
        <pt x="613" y="28" on="0"/>
        <pt x="743" y="165" on="0"/>
        <pt x="743" y="284" on="1"/>
        <pt x="743" y="370" on="0"/>
        <pt x="670" y="500" on="0"/>
        <pt x="533" y="572" on="0"/>
        <pt x="441" y="572" on="1"/>
        <pt x="329" y="572" on="0"/>
        <pt x="158" y="476" on="0"/>
        <pt x="64" y="305" on="0"/>
        <pt x="64" y="194" on="1"/>
        <pt x="64" y="83" on="0"/>
        <pt x="159" y="-79" on="0"/>
        <pt x="334" y="-165" on="0"/>
        <pt x="450" y="-165" on="1"/>
        <pt x="451" y="-169" on="1"/>
        <pt x="438" y="-185" on="1"/>
        <pt x="321" y="-183" on="0"/>
        <pt x="143" y="-89" on="0"/>
        <pt x="44" y="79" on="0"/>
        <pt x="44" y="190" on="1"/>
        <pt x="44" y="309" on="0"/>
        <pt x="143" y="492" on="0"/>
        <pt x="323" y="592" on="0"/>
        <pt x="441" y="592" on="1"/>
      </contour>
      <contour>
        <pt x="297" y="24" on="0"/>
        <pt x="369" y="104" on="0"/>
        <pt x="463" y="246" on="0"/>
        <pt x="508" y="336" on="1"/>
        <pt x="511" y="362" on="1"/>
        <pt x="518" y="432" on="1"/>
        <pt x="458" y="437" on="1"/>
        <pt x="395" y="436" on="0"/>
        <pt x="300" y="353" on="0"/>
        <pt x="249" y="218" on="0"/>
        <pt x="249" y="141" on="1"/>
        <pt x="249" y="100" on="0"/>
        <pt x="263" y="48" on="0"/>
        <pt x="282" y="24" on="0"/>
        <pt x="289" y="24" on="1"/>
      </contour>
    </TTGlyph>
    <TTGlyph name="atilde" xMin="6" yMin="0" xMax="430" yMax="670">
      <component glyphName="a" x="0" y="0" flags="0x1000"/>
      <component glyphName="tilde" x="51" y="39" flags="0x1000"/>
    </TTGlyph>
    <TTGlyph name="b" xMin="78" yMin="-2" xMax="365" yMax="492">
      <contour>
        <pt x="313" y="250" on="0"/>
        <pt x="365" y="196" on="0"/>
        <pt x="365" y="151" on="1"/>
        <pt x="365" y="78" on="0"/>
        <pt x="261" y="-2" on="0"/>
        <pt x="167" y="-2" on="1"/>
        <pt x="106" y="-2" on="0"/>
        <pt x="78" y="0" on="1"/>
        <pt x="98" y="150" on="1"/>
        <pt x="141" y="491" on="1"/>
        <pt x="240" y="492" on="1"/>
        <pt x="296" y="492" on="0"/>
        <pt x="358" y="439" on="0"/>
        <pt x="358" y="392" on="1"/>
        <pt x="358" y="293" on="0"/>
        <pt x="266" y="257" on="1"/>
      </contour>
      <contour>
        <pt x="233" y="263" on="1"/>
        <pt x="281" y="272" on="0"/>
        <pt x="335" y="339" on="0"/>
        <pt x="335" y="389" on="1"/>
        <pt x="335" y="428" on="0"/>
        <pt x="286" y="473" on="0"/>
        <pt x="241" y="473" on="1"/>
        <pt x="159" y="473" on="1"/>
        <pt x="132" y="265" on="1"/>
      </contour>
      <contour>
        <pt x="250" y="16" on="0"/>
        <pt x="344" y="87" on="0"/>
        <pt x="344" y="149" on="1"/>
        <pt x="344" y="236" on="0"/>
        <pt x="236" y="245" on="1"/>
        <pt x="130" y="244" on="1"/>
        <pt x="118" y="151" on="1"/>
        <pt x="100" y="19" on="1"/>
        <pt x="131" y="16" on="0"/>
        <pt x="166" y="16" on="1"/>
      </contour>
    </TTGlyph>
    <TTGlyph name="b.sups" xMin="79" yMin="347" xMax="292" yMax="807">
      <contour>
        <pt x="274" y="628" on="0"/>
        <pt x="292" y="588" on="0"/>
        <pt x="292" y="552" on="1"/>
        <pt x="292" y="469" on="0"/>
        <pt x="211" y="353" on="0"/>
        <pt x="140" y="347" on="1"/>
        <pt x="138" y="347" on="1"/>
        <pt x="94" y="357" on="1"/>
        <pt x="79" y="360" on="1"/>
        <pt x="130" y="745" on="1"/>
        <pt x="135" y="804" on="1"/>
        <pt x="158" y="807" on="1"/>
        <pt x="114" y="473" on="1"/>
        <pt x="117" y="473" on="1"/>
        <pt x="177" y="581" on="0"/>
        <pt x="246" y="642" on="1"/>
        <pt x="254" y="642" on="1"/>
      </contour>
      <contour>
        <pt x="180" y="365" on="0"/>
        <pt x="241" y="415" on="0"/>
        <pt x="273" y="498" on="0"/>
        <pt x="273" y="545" on="1"/>
        <pt x="273" y="581" on="0"/>
        <pt x="255" y="618" on="0"/>
        <pt x="247" y="618" on="1"/>
        <pt x="241" y="618" on="0"/>
        <pt x="197" y="569" on="0"/>
        <pt x="137" y="483" on="0"/>
        <pt x="108" y="428" on="1"/>
        <pt x="102" y="375" on="1"/>
        <pt x="140" y="365" on="1"/>
      </contour>
    </TTGlyph>
    <TTGlyph name="backslash" xMin="84" yMin="-110" xMax="307" yMax="675">
      <contour>
        <pt x="307" y="-106" on="1"/>
        <pt x="304" y="-110" on="1"/>
        <pt x="288" y="-110" on="1"/>
        <pt x="84" y="670" on="1"/>
        <pt x="87" y="675" on="1"/>
        <pt x="103" y="675" on="1"/>
      </contour>
    </TTGlyph>
    <TTGlyph name="bar" xMin="91" yMin="-265" xMax="240" yMax="791">
      <contour>
        <pt x="178" y="285" on="1"/>
        <pt x="110" y="-265" on="1"/>
        <pt x="93" y="-265" on="1"/>
        <pt x="91" y="-261" on="1"/>
        <pt x="158" y="285" on="1"/>
        <pt x="220" y="789" on="1"/>
        <pt x="238" y="791" on="1"/>
        <pt x="240" y="789" on="1"/>
      </contour>
    </TTGlyph>
    <TTGlyph name="braceleft" xMin="53" yMin="-147" xMax="311" yMax="653">
      <contour>
        <pt x="291" y="653" on="0"/>
        <pt x="308" y="648" on="1"/>
        <pt x="311" y="645" on="1"/>
        <pt x="305" y="628" on="1"/>
        <pt x="278" y="633" on="0"/>
        <pt x="266" y="633" on="1"/>
        <pt x="222" y="633" on="0"/>
        <pt x="182" y="570" on="0"/>
        <pt x="182" y="493" on="1"/>
        <pt x="183" y="398" on="1"/>
        <pt x="183" y="337" on="0"/>
        <pt x="143" y="270" on="0"/>
        <pt x="102" y="254" on="1"/>
        <pt x="102" y="252" on="1"/>
        <pt x="156" y="230" on="0"/>
        <pt x="156" y="165" on="1"/>
        <pt x="156" y="138" on="0"/>
        <pt x="134" y="58" on="1"/>
        <pt x="111" y="-30" on="0"/>
        <pt x="111" y="-59" on="1"/>
        <pt x="111" y="-127" on="0"/>
        <pt x="173" y="-127" on="1"/>
        <pt x="185" y="-127" on="0"/>
        <pt x="213" y="-122" on="1"/>
        <pt x="215" y="-139" on="1"/>
        <pt x="211" y="-142" on="1"/>
        <pt x="193" y="-147" on="0"/>
        <pt x="173" y="-147" on="1"/>
        <pt x="91" y="-147" on="0"/>
        <pt x="91" y="-60" on="1"/>
        <pt x="91" y="-40" on="0"/>
        <pt x="101" y="9" on="0"/>
        <pt x="113" y="55" on="0"/>
        <pt x="115" y="63" on="1"/>
        <pt x="136" y="137" on="0"/>
        <pt x="136" y="163" on="1"/>
        <pt x="136" y="234" on="0"/>
        <pt x="53" y="244" on="1"/>
        <pt x="55" y="262" on="1"/>
        <pt x="112" y="269" on="0"/>
        <pt x="163" y="331" on="0"/>
        <pt x="163" y="400" on="1"/>
        <pt x="162" y="494" on="1"/>
        <pt x="162" y="578" on="0"/>
        <pt x="217" y="653" on="0"/>
        <pt x="272" y="653" on="1"/>
      </contour>
    </TTGlyph>
    <TTGlyph name="braceright" xMin="-23" yMin="-147" xMax="235" yMax="653">
      <component glyphName="braceleft" x="288" y="506" scale="-1.0" flags="0x1000"/>
    </TTGlyph>
    <TTGlyph name="bracketleft" xMin="71" yMin="-133" xMax="315" yMax="646">
      <contour>
        <pt x="313" y="627" on="1"/>
        <pt x="182" y="618" on="1"/>
        <pt x="94" y="-105" on="1"/>
        <pt x="222" y="-114" on="1"/>
        <pt x="221" y="-129" on="1"/>
        <pt x="216" y="-133" on="1"/>
        <pt x="71" y="-123" on="1"/>
        <pt x="118" y="257" on="1"/>
        <pt x="165" y="636" on="1"/>
        <pt x="312" y="646" on="1"/>
        <pt x="315" y="642" on="1"/>
      </contour>
    </TTGlyph>
    <TTGlyph name="bracketright" xMin="-26" yMin="-133" xMax="218" yMax="646">
      <component glyphName="bracketleft" x="289" y="513" scale="-1.0" flags="0x1000"/>
    </TTGlyph>
    <TTGlyph name="breve" xMin="144" yMin="522" xMax="346" yMax="640">
      <contour>
        <pt x="314" y="522" on="0"/>
        <pt x="232" y="522" on="1"/>
        <pt x="190" y="522" on="0"/>
        <pt x="148" y="573" on="0"/>
        <pt x="144" y="627" on="1"/>
        <pt x="159" y="640" on="1"/>
        <pt x="164" y="640" on="1"/>
        <pt x="165" y="590" on="0"/>
        <pt x="199" y="542" on="0"/>
        <pt x="235" y="542" on="1"/>
        <pt x="304" y="542" on="0"/>
        <pt x="329" y="640" on="1"/>
        <pt x="334" y="640" on="1"/>
        <pt x="346" y="627" on="1"/>
      </contour>
    </TTGlyph>
    <TTGlyph name="breve.cap" xMin="142" yMin="543" xMax="343" yMax="628">
      <contour>
        <pt x="311" y="543" on="0"/>
        <pt x="234" y="543" on="1"/>
        <pt x="197" y="543" on="0"/>
        <pt x="148" y="581" on="0"/>
        <pt x="142" y="617" on="1"/>
        <pt x="156" y="628" on="1"/>
        <pt x="161" y="628" on="1"/>
        <pt x="169" y="563" on="0"/>
        <pt x="235" y="563" on="1"/>
        <pt x="301" y="563" on="0"/>
        <pt x="326" y="628" on="1"/>
        <pt x="331" y="628" on="1"/>
        <pt x="343" y="617" on="1"/>
      </contour>
    </TTGlyph>
    <TTGlyph name="breveacute" xMin="139" yMin="523" xMax="340" yMax="711">
      <contour>
        <pt x="304" y="696" on="1"/>
        <pt x="274" y="661" on="0"/>
        <pt x="243" y="629" on="1"/>
        <pt x="223" y="608" on="1"/>
        <pt x="218" y="609" on="1"/>
        <pt x="206" y="621" on="1"/>
        <pt x="232" y="648" on="0"/>
        <pt x="289" y="711" on="1"/>
        <pt x="294" y="711" on="1"/>
        <pt x="305" y="701" on="1"/>
      </contour>
      <contour>
        <pt x="308" y="523" on="0"/>
        <pt x="231" y="523" on="1"/>
        <pt x="194" y="523" on="0"/>
        <pt x="145" y="561" on="0"/>
        <pt x="139" y="597" on="1"/>
        <pt x="153" y="608" on="1"/>
        <pt x="158" y="608" on="1"/>
        <pt x="166" y="543" on="0"/>
        <pt x="232" y="543" on="1"/>
        <pt x="298" y="543" on="0"/>
        <pt x="323" y="608" on="1"/>
        <pt x="328" y="608" on="1"/>
        <pt x="340" y="597" on="1"/>
      </contour>
    </TTGlyph>
    <TTGlyph name="brevegrave" xMin="139" yMin="524" xMax="340" yMax="711">
      <contour>
        <pt x="244" y="608" on="1"/>
        <pt x="224" y="629" on="1"/>
        <pt x="193" y="661" on="0"/>
        <pt x="163" y="696" on="1"/>
        <pt x="162" y="701" on="1"/>
        <pt x="173" y="711" on="1"/>
        <pt x="178" y="711" on="1"/>
        <pt x="235" y="648" on="0"/>
        <pt x="261" y="621" on="1"/>
        <pt x="249" y="609" on="1"/>
      </contour>
      <contour>
        <pt x="308" y="524" on="0"/>
        <pt x="231" y="524" on="1"/>
        <pt x="194" y="524" on="0"/>
        <pt x="145" y="562" on="0"/>
        <pt x="139" y="598" on="1"/>
        <pt x="153" y="609" on="1"/>
        <pt x="158" y="609" on="1"/>
        <pt x="166" y="544" on="0"/>
        <pt x="232" y="544" on="1"/>
        <pt x="298" y="544" on="0"/>
        <pt x="323" y="609" on="1"/>
        <pt x="328" y="609" on="1"/>
        <pt x="340" y="598" on="1"/>
      </contour>
    </TTGlyph>
    <TTGlyph name="brevehookabove" xMin="139" yMin="523" xMax="340" yMax="747">
      <contour>
        <pt x="261" y="747" on="0"/>
        <pt x="286" y="725" on="0"/>
        <pt x="286" y="709" on="1"/>
        <pt x="286" y="680" on="0"/>
        <pt x="238" y="644" on="1"/>
        <pt x="254" y="615" on="1"/>
        <pt x="237" y="608" on="1"/>
        <pt x="215" y="649" on="1"/>
        <pt x="266" y="683" on="0"/>
        <pt x="266" y="707" on="1"/>
        <pt x="266" y="727" on="0"/>
        <pt x="240" y="727" on="1"/>
        <pt x="214" y="727" on="0"/>
        <pt x="186" y="704" on="1"/>
        <pt x="178" y="718" on="1"/>
        <pt x="212" y="747" on="0"/>
        <pt x="242" y="747" on="1"/>
      </contour>
      <contour>
        <pt x="308" y="523" on="0"/>
        <pt x="231" y="523" on="1"/>
        <pt x="194" y="523" on="0"/>
        <pt x="145" y="561" on="0"/>
        <pt x="139" y="597" on="1"/>
        <pt x="153" y="608" on="1"/>
        <pt x="158" y="608" on="1"/>
        <pt x="166" y="543" on="0"/>
        <pt x="232" y="543" on="1"/>
        <pt x="298" y="543" on="0"/>
        <pt x="323" y="608" on="1"/>
        <pt x="328" y="608" on="1"/>
        <pt x="340" y="597" on="1"/>
      </contour>
    </TTGlyph>
    <TTGlyph name="brevetilde" xMin="124" yMin="523" xMax="389" yMax="722">
      <contour>
        <pt x="389" y="707" on="1"/>
        <pt x="339" y="660" on="1"/>
        <pt x="334" y="658" on="1"/>
        <pt x="316" y="660" on="0"/>
        <pt x="256" y="678" on="1"/>
        <pt x="196" y="696" on="0"/>
        <pt x="185" y="696" on="1"/>
        <pt x="178" y="696" on="0"/>
        <pt x="155" y="673" on="1"/>
        <pt x="137" y="655" on="1"/>
        <pt x="133" y="655" on="1"/>
        <pt x="124" y="666" on="1"/>
        <pt x="124" y="670" on="1"/>
        <pt x="174" y="717" on="1"/>
        <pt x="179" y="719" on="1"/>
        <pt x="197" y="717" on="0"/>
        <pt x="257" y="699" on="1"/>
        <pt x="317" y="681" on="0"/>
        <pt x="328" y="681" on="1"/>
        <pt x="335" y="681" on="0"/>
        <pt x="358" y="704" on="1"/>
        <pt x="376" y="722" on="1"/>
        <pt x="380" y="722" on="1"/>
        <pt x="389" y="711" on="1"/>
      </contour>
      <contour>
        <pt x="305" y="523" on="0"/>
        <pt x="228" y="523" on="1"/>
        <pt x="191" y="523" on="0"/>
        <pt x="142" y="561" on="0"/>
        <pt x="136" y="597" on="1"/>
        <pt x="150" y="608" on="1"/>
        <pt x="155" y="608" on="1"/>
        <pt x="163" y="543" on="0"/>
        <pt x="229" y="543" on="1"/>
        <pt x="295" y="543" on="0"/>
        <pt x="320" y="608" on="1"/>
        <pt x="325" y="608" on="1"/>
        <pt x="337" y="597" on="1"/>
      </contour>
    </TTGlyph>
    <TTGlyph name="brokenbar" xMin="91" yMin="-265" xMax="240" yMax="791">
      <contour>
        <pt x="188" y="368" on="1"/>
        <pt x="171" y="366" on="1"/>
        <pt x="168" y="369" on="1"/>
        <pt x="220" y="789" on="1"/>
        <pt x="238" y="791" on="1"/>
        <pt x="240" y="789" on="1"/>
      </contour>
      <contour>
        <pt x="110" y="-265" on="1"/>
        <pt x="93" y="-265" on="1"/>
        <pt x="91" y="-261" on="1"/>
        <pt x="142" y="157" on="1"/>
        <pt x="159" y="160" on="1"/>
        <pt x="162" y="155" on="1"/>
      </contour>
    </TTGlyph>
    <TTGlyph name="bullet" xMin="100" yMin="217" xMax="140" yMax="257">
      <component glyphName="period" x="31" y="219" flags="0x1000"/>
    </TTGlyph>
    <TTGlyph name="bulletoperator" xMin="126" yMin="217" xMax="166" yMax="257">
      <component glyphName="period" x="57" y="219" flags="0x1000"/>
    </TTGlyph>
    <TTGlyph name="c" xMin="58" yMin="-4" xMax="433" yMax="494">
      <contour>
        <pt x="378" y="494" on="0"/>
        <pt x="433" y="450" on="1"/>
        <pt x="425" y="432" on="1"/>
        <pt x="419" y="432" on="1"/>
        <pt x="370" y="475" on="0"/>
        <pt x="299" y="475" on="1"/>
        <pt x="194" y="475" on="0"/>
        <pt x="79" y="329" on="0"/>
        <pt x="79" y="198" on="1"/>
        <pt x="79" y="110" on="0"/>
        <pt x="157" y="15" on="0"/>
        <pt x="231" y="15" on="1"/>
        <pt x="308" y="15" on="0"/>
        <pt x="380" y="66" on="1"/>
        <pt x="385" y="64" on="1"/>
        <pt x="381" y="46" on="1"/>
        <pt x="308" y="-4" on="0"/>
        <pt x="232" y="-4" on="1"/>
        <pt x="148" y="-4" on="0"/>
        <pt x="58" y="100" on="0"/>
        <pt x="58" y="196" on="1"/>
        <pt x="58" y="336" on="0"/>
        <pt x="184" y="494" on="0"/>
        <pt x="300" y="494" on="1"/>
      </contour>
    </TTGlyph>
    <TTGlyph name="c.sups" xMin="73" yMin="347" xMax="268" yMax="643">
      <contour>
        <pt x="268" y="626" on="1"/>
        <pt x="262" y="611" on="1"/>
        <pt x="257" y="609" on="1"/>
        <pt x="230" y="625" on="0"/>
        <pt x="213" y="625" on="1"/>
        <pt x="156" y="624" on="0"/>
        <pt x="93" y="529" on="0"/>
        <pt x="93" y="447" on="1"/>
        <pt x="93" y="365" on="0"/>
        <pt x="144" y="365" on="1"/>
        <pt x="193" y="365" on="0"/>
        <pt x="229" y="428" on="1"/>
        <pt x="233" y="428" on="1"/>
        <pt x="241" y="418" on="1"/>
        <pt x="219" y="383" on="0"/>
        <pt x="173" y="351" on="0"/>
        <pt x="143" y="347" on="1"/>
        <pt x="138" y="347" on="1"/>
        <pt x="106" y="351" on="0"/>
        <pt x="73" y="392" on="0"/>
        <pt x="73" y="446" on="1"/>
        <pt x="73" y="535" on="0"/>
        <pt x="149" y="643" on="0"/>
        <pt x="224" y="643" on="1"/>
        <pt x="264" y="631" on="1"/>
      </contour>
    </TTGlyph>
    <TTGlyph name="cacute" xMin="58" yMin="-4" xMax="433" yMax="708">
      <component glyphName="c" x="0" y="0" flags="0x1000"/>
      <component glyphName="acute" x="50" y="39" flags="0x1000"/>
    </TTGlyph>
    <TTGlyph name="caron" xMin="137" yMin="520" xMax="357" yMax="658">
      <contour>
        <pt x="315" y="605" on="0"/>
        <pt x="242" y="520" on="1"/>
        <pt x="224" y="520" on="1"/>
        <pt x="175" y="598" on="0"/>
        <pt x="137" y="646" on="1"/>
        <pt x="148" y="658" on="1"/>
        <pt x="153" y="658" on="1"/>
        <pt x="192" y="608" on="0"/>
        <pt x="234" y="541" on="1"/>
        <pt x="293" y="609" on="0"/>
        <pt x="344" y="658" on="1"/>
        <pt x="349" y="658" on="1"/>
        <pt x="357" y="646" on="1"/>
      </contour>
    </TTGlyph>
    <TTGlyph name="caron.alt" xMin="214" yMin="505" xMax="263" yMax="655">
      <contour>
        <pt x="234" y="507" on="1"/>
        <pt x="216" y="505" on="1"/>
        <pt x="214" y="509" on="1"/>
        <pt x="243" y="653" on="1"/>
        <pt x="261" y="655" on="1"/>
        <pt x="263" y="651" on="1"/>
      </contour>
    </TTGlyph>
    <TTGlyph name="caron.cap" xMin="136" yMin="544" xMax="349" yMax="634">
      <contour>
        <pt x="312" y="596" on="0"/>
        <pt x="244" y="544" on="1"/>
        <pt x="228" y="544" on="1"/>
        <pt x="176" y="589" on="0"/>
        <pt x="136" y="620" on="1"/>
        <pt x="144" y="634" on="1"/>
        <pt x="149" y="634" on="1"/>
        <pt x="189" y="605" on="0"/>
        <pt x="236" y="564" on="1"/>
        <pt x="283" y="599" on="0"/>
        <pt x="339" y="634" on="1"/>
        <pt x="344" y="634" on="1"/>
        <pt x="349" y="620" on="1"/>
      </contour>
    </TTGlyph>
    <TTGlyph name="ccaron" xMin="58" yMin="-4" xMax="433" yMax="697">
      <component glyphName="c" x="0" y="0" flags="0x1000"/>
      <component glyphName="caron" x="40" y="39" flags="0x1000"/>
    </TTGlyph>
    <TTGlyph name="ccedilla" xMin="58" yMin="-182" xMax="433" yMax="494">
      <contour>
        <pt x="378" y="494" on="0"/>
        <pt x="433" y="450" on="1"/>
        <pt x="425" y="432" on="1"/>
        <pt x="419" y="432" on="1"/>
        <pt x="370" y="475" on="0"/>
        <pt x="299" y="475" on="1"/>
        <pt x="194" y="475" on="0"/>
        <pt x="79" y="329" on="0"/>
        <pt x="79" y="198" on="1"/>
        <pt x="79" y="110" on="0"/>
        <pt x="157" y="15" on="0"/>
        <pt x="231" y="15" on="1"/>
        <pt x="308" y="15" on="0"/>
        <pt x="380" y="66" on="1"/>
        <pt x="385" y="64" on="1"/>
        <pt x="381" y="46" on="1"/>
        <pt x="313" y="-1" on="0"/>
        <pt x="242" y="-4" on="1"/>
        <pt x="224" y="-59" on="1"/>
        <pt x="255" y="-79" on="1"/>
        <pt x="288" y="-100" on="0"/>
        <pt x="288" y="-129" on="1"/>
        <pt x="288" y="-153" on="0"/>
        <pt x="253" y="-182" on="0"/>
        <pt x="228" y="-182" on="1"/>
        <pt x="191" y="-182" on="0"/>
        <pt x="169" y="-149" on="1"/>
        <pt x="175" y="-131" on="1"/>
        <pt x="179" y="-131" on="1"/>
        <pt x="189" y="-147" on="0"/>
        <pt x="211" y="-162" on="0"/>
        <pt x="228" y="-162" on="1"/>
        <pt x="246" y="-162" on="0"/>
        <pt x="268" y="-145" on="0"/>
        <pt x="268" y="-129" on="1"/>
        <pt x="268" y="-118" on="0"/>
        <pt x="257" y="-105" on="0"/>
        <pt x="244" y="-96" on="1"/>
        <pt x="201" y="-68" on="1"/>
        <pt x="222" y="-4" on="1"/>
        <pt x="142" y="0" on="0"/>
        <pt x="58" y="103" on="0"/>
        <pt x="58" y="196" on="1"/>
        <pt x="58" y="336" on="0"/>
        <pt x="184" y="494" on="0"/>
        <pt x="300" y="494" on="1"/>
      </contour>
    </TTGlyph>
    <TTGlyph name="ccircumflex" xMin="58" yMin="-4" xMax="433" yMax="687">
      <component glyphName="c" x="0" y="0" flags="0x1000"/>
      <component glyphName="circumflex" x="55" y="39" flags="0x1000"/>
    </TTGlyph>
    <TTGlyph name="cdotaccent" xMin="58" yMin="-4" xMax="433" yMax="669">
      <component glyphName="c" x="0" y="0" flags="0x1000"/>
      <component glyphName="dotaccent" x="48" y="39" flags="0x1000"/>
    </TTGlyph>
    <TTGlyph name="cedilla" xMin="90" yMin="-178" xMax="209" yMax="11">
      <contour>
        <pt x="176" y="-75" on="1"/>
        <pt x="209" y="-96" on="0"/>
        <pt x="209" y="-125" on="1"/>
        <pt x="209" y="-149" on="0"/>
        <pt x="174" y="-178" on="0"/>
        <pt x="149" y="-178" on="1"/>
        <pt x="112" y="-178" on="0"/>
        <pt x="90" y="-145" on="1"/>
        <pt x="96" y="-127" on="1"/>
        <pt x="100" y="-127" on="1"/>
        <pt x="110" y="-143" on="0"/>
        <pt x="132" y="-158" on="0"/>
        <pt x="149" y="-158" on="1"/>
        <pt x="167" y="-158" on="0"/>
        <pt x="189" y="-141" on="0"/>
        <pt x="189" y="-125" on="1"/>
        <pt x="189" y="-114" on="0"/>
        <pt x="178" y="-101" on="0"/>
        <pt x="165" y="-92" on="1"/>
        <pt x="122" y="-64" on="1"/>
        <pt x="146" y="11" on="1"/>
        <pt x="166" y="11" on="1"/>
        <pt x="145" y="-55" on="1"/>
      </contour>
    </TTGlyph>
    <TTGlyph name="cent" xMin="55" yMin="-114" xMax="345" yMax="650">
      <contour>
        <pt x="339" y="462" on="1"/>
        <pt x="334" y="459" on="1"/>
        <pt x="294" y="482" on="0"/>
        <pt x="266" y="482" on="1"/>
        <pt x="248" y="481" on="1"/>
        <pt x="175" y="62" on="1"/>
        <pt x="240" y="75" on="0"/>
        <pt x="288" y="162" on="1"/>
        <pt x="294" y="162" on="1"/>
        <pt x="302" y="151" on="1"/>
        <pt x="273" y="101" on="0"/>
        <pt x="211" y="52" on="0"/>
        <pt x="172" y="44" on="1"/>
        <pt x="144" y="-114" on="1"/>
        <pt x="129" y="-114" on="1"/>
        <pt x="125" y="-110" on="1"/>
        <pt x="152" y="41" on="1"/>
        <pt x="147" y="41" on="1"/>
        <pt x="118" y="46" on="0"/>
        <pt x="79" y="70" on="0"/>
        <pt x="55" y="133" on="0"/>
        <pt x="55" y="191" on="1"/>
        <pt x="55" y="313" on="0"/>
        <pt x="143" y="477" on="0"/>
        <pt x="230" y="497" on="1"/>
        <pt x="256" y="650" on="1"/>
        <pt x="272" y="650" on="1"/>
        <pt x="277" y="645" on="1"/>
        <pt x="251" y="500" on="1"/>
        <pt x="271" y="502" on="0"/>
        <pt x="281" y="502" on="1"/>
        <pt x="340" y="483" on="1"/>
        <pt x="345" y="476" on="1"/>
      </contour>
      <contour>
        <pt x="154" y="460" on="0"/>
        <pt x="75" y="309" on="0"/>
        <pt x="75" y="190" on="1"/>
        <pt x="75" y="60" on="0"/>
        <pt x="154" y="60" on="1"/>
        <pt x="155" y="60" on="1"/>
        <pt x="226" y="477" on="1"/>
      </contour>
    </TTGlyph>
    <TTGlyph name="circle1" xMin="-17" yMin="-12" xMax="459" yMax="464">
      <contour>
        <pt x="285" y="464" on="0"/>
        <pt x="395" y="400" on="0"/>
        <pt x="459" y="290" on="0"/>
        <pt x="459" y="226" on="1"/>
        <pt x="459" y="162" on="0"/>
        <pt x="395" y="52" on="0"/>
        <pt x="285" y="-12" on="0"/>
        <pt x="221" y="-12" on="1"/>
        <pt x="157" y="-12" on="0"/>
        <pt x="47" y="52" on="0"/>
        <pt x="-17" y="162" on="0"/>
        <pt x="-17" y="226" on="1"/>
        <pt x="-17" y="290" on="0"/>
        <pt x="47" y="400" on="0"/>
        <pt x="157" y="464" on="0"/>
        <pt x="221" y="464" on="1"/>
      </contour>
    </TTGlyph>
    <TTGlyph name="circle2" xMin="-16" yMin="-14" xMax="647" yMax="649">
      <contour>
        <pt x="405" y="649" on="0"/>
        <pt x="558" y="560" on="0"/>
        <pt x="647" y="407" on="0"/>
        <pt x="647" y="317" on="1"/>
        <pt x="647" y="227" on="0"/>
        <pt x="558" y="75" on="0"/>
        <pt x="405" y="-14" on="0"/>
        <pt x="315" y="-14" on="1"/>
        <pt x="225" y="-14" on="0"/>
        <pt x="73" y="75" on="0"/>
        <pt x="-16" y="227" on="0"/>
        <pt x="-16" y="317" on="1"/>
        <pt x="-16" y="407" on="0"/>
        <pt x="73" y="560" on="0"/>
        <pt x="225" y="649" on="0"/>
        <pt x="315" y="649" on="1"/>
      </contour>
    </TTGlyph>
    <TTGlyph name="circumflex" xMin="121" yMin="510" xMax="341" yMax="648">
      <contour>
        <pt x="158" y="558" on="0"/>
        <pt x="237" y="648" on="1"/>
        <pt x="255" y="648" on="1"/>
        <pt x="301" y="574" on="0"/>
        <pt x="341" y="522" on="1"/>
        <pt x="330" y="510" on="1"/>
        <pt x="325" y="510" on="1"/>
        <pt x="286" y="560" on="0"/>
        <pt x="244" y="627" on="1"/>
        <pt x="185" y="559" on="0"/>
        <pt x="134" y="510" on="1"/>
        <pt x="129" y="510" on="1"/>
        <pt x="121" y="522" on="1"/>
      </contour>
    </TTGlyph>
    <TTGlyph name="circumflex.cap" xMin="129" yMin="551" xMax="342" yMax="641">
      <contour>
        <pt x="173" y="593" on="0"/>
        <pt x="235" y="641" on="1"/>
        <pt x="251" y="641" on="1"/>
        <pt x="311" y="589" on="0"/>
        <pt x="342" y="565" on="1"/>
        <pt x="334" y="551" on="1"/>
        <pt x="329" y="551" on="1"/>
        <pt x="289" y="580" on="0"/>
        <pt x="242" y="621" on="1"/>
        <pt x="195" y="586" on="0"/>
        <pt x="139" y="551" on="1"/>
        <pt x="134" y="551" on="1"/>
        <pt x="129" y="565" on="1"/>
      </contour>
    </TTGlyph>
    <TTGlyph name="circumflexacute" xMin="126" yMin="532" xMax="371" yMax="711">
      <contour>
        <pt x="371" y="701" on="1"/>
        <pt x="370" y="696" on="1"/>
        <pt x="302" y="620" on="1"/>
        <pt x="296" y="620" on="1"/>
        <pt x="285" y="631" on="1"/>
        <pt x="355" y="711" on="1"/>
        <pt x="360" y="710" on="1"/>
      </contour>
      <contour>
        <pt x="308" y="570" on="0"/>
        <pt x="339" y="546" on="1"/>
        <pt x="331" y="532" on="1"/>
        <pt x="326" y="532" on="1"/>
        <pt x="286" y="561" on="0"/>
        <pt x="239" y="602" on="1"/>
        <pt x="192" y="567" on="0"/>
        <pt x="136" y="532" on="1"/>
        <pt x="131" y="532" on="1"/>
        <pt x="126" y="546" on="1"/>
        <pt x="170" y="574" on="0"/>
        <pt x="232" y="622" on="1"/>
        <pt x="248" y="622" on="1"/>
      </contour>
    </TTGlyph>
    <TTGlyph name="circumflexgrave" xMin="128" yMin="533" xMax="352" yMax="710">
      <contour>
        <pt x="341" y="619" on="1"/>
        <pt x="335" y="619" on="1"/>
        <pt x="267" y="695" on="1"/>
        <pt x="266" y="700" on="1"/>
        <pt x="277" y="709" on="1"/>
        <pt x="282" y="710" on="1"/>
        <pt x="352" y="630" on="1"/>
      </contour>
      <contour>
        <pt x="310" y="571" on="0"/>
        <pt x="341" y="547" on="1"/>
        <pt x="333" y="533" on="1"/>
        <pt x="328" y="533" on="1"/>
        <pt x="288" y="562" on="0"/>
        <pt x="241" y="603" on="1"/>
        <pt x="194" y="568" on="0"/>
        <pt x="138" y="533" on="1"/>
        <pt x="133" y="533" on="1"/>
        <pt x="128" y="547" on="1"/>
        <pt x="172" y="575" on="0"/>
        <pt x="234" y="623" on="1"/>
        <pt x="250" y="623" on="1"/>
      </contour>
    </TTGlyph>
    <TTGlyph name="circumflexhookabove" xMin="126" yMin="533" xMax="362" yMax="737">
      <contour>
        <pt x="338" y="737" on="0"/>
        <pt x="362" y="715" on="0"/>
        <pt x="362" y="700" on="1"/>
        <pt x="362" y="672" on="0"/>
        <pt x="316" y="638" on="1"/>
        <pt x="331" y="611" on="1"/>
        <pt x="315" y="604" on="1"/>
        <pt x="294" y="643" on="1"/>
        <pt x="343" y="675" on="0"/>
        <pt x="343" y="698" on="1"/>
        <pt x="343" y="717" on="0"/>
        <pt x="318" y="717" on="1"/>
        <pt x="293" y="717" on="0"/>
        <pt x="267" y="696" on="1"/>
        <pt x="259" y="709" on="1"/>
        <pt x="292" y="737" on="0"/>
        <pt x="320" y="737" on="1"/>
      </contour>
      <contour>
        <pt x="308" y="571" on="0"/>
        <pt x="339" y="547" on="1"/>
        <pt x="331" y="533" on="1"/>
        <pt x="326" y="533" on="1"/>
        <pt x="286" y="562" on="0"/>
        <pt x="239" y="603" on="1"/>
        <pt x="192" y="568" on="0"/>
        <pt x="136" y="533" on="1"/>
        <pt x="131" y="533" on="1"/>
        <pt x="126" y="547" on="1"/>
        <pt x="170" y="575" on="0"/>
        <pt x="232" y="623" on="1"/>
        <pt x="248" y="623" on="1"/>
      </contour>
    </TTGlyph>
    <TTGlyph name="circumflextilde" xMin="126" yMin="536" xMax="395" yMax="722">
      <contour>
        <pt x="395" y="707" on="1"/>
        <pt x="345" y="660" on="1"/>
        <pt x="340" y="658" on="1"/>
        <pt x="322" y="660" on="0"/>
        <pt x="262" y="678" on="1"/>
        <pt x="202" y="696" on="0"/>
        <pt x="191" y="696" on="1"/>
        <pt x="184" y="696" on="0"/>
        <pt x="161" y="673" on="1"/>
        <pt x="143" y="655" on="1"/>
        <pt x="139" y="655" on="1"/>
        <pt x="130" y="666" on="1"/>
        <pt x="130" y="670" on="1"/>
        <pt x="180" y="717" on="1"/>
        <pt x="185" y="719" on="1"/>
        <pt x="203" y="717" on="0"/>
        <pt x="263" y="699" on="1"/>
        <pt x="323" y="681" on="0"/>
        <pt x="334" y="681" on="1"/>
        <pt x="341" y="681" on="0"/>
        <pt x="364" y="704" on="1"/>
        <pt x="382" y="722" on="1"/>
        <pt x="386" y="722" on="1"/>
        <pt x="395" y="711" on="1"/>
      </contour>
      <contour>
        <pt x="308" y="574" on="0"/>
        <pt x="339" y="550" on="1"/>
        <pt x="331" y="536" on="1"/>
        <pt x="326" y="536" on="1"/>
        <pt x="286" y="565" on="0"/>
        <pt x="239" y="606" on="1"/>
        <pt x="192" y="571" on="0"/>
        <pt x="136" y="536" on="1"/>
        <pt x="131" y="536" on="1"/>
        <pt x="126" y="550" on="1"/>
        <pt x="170" y="578" on="0"/>
        <pt x="232" y="626" on="1"/>
        <pt x="248" y="626" on="1"/>
      </contour>
    </TTGlyph>
    <TTGlyph name="colon" xMin="69" yMin="-2" xMax="143" yMax="315">
      <component glyphName="period" x="0" y="0" flags="0x1000"/>
      <component glyphName="period" x="34" y="277" flags="0x1000"/>
    </TTGlyph>
    <TTGlyph name="comma" xMin="45" yMin="-100" xMax="121" yMax="41">
      <contour>
        <pt x="121" y="24" on="0"/>
        <pt x="121" y="-7" on="1"/>
        <pt x="121" y="-49" on="0"/>
        <pt x="55" y="-100" on="1"/>
        <pt x="45" y="-89" on="1"/>
        <pt x="46" y="-86" on="1"/>
        <pt x="100" y="-46" on="0"/>
        <pt x="100" y="-8" on="1"/>
        <pt x="100" y="12" on="0"/>
        <pt x="70" y="26" on="1"/>
        <pt x="70" y="30" on="1"/>
        <pt x="75" y="37" on="0"/>
        <pt x="83" y="41" on="1"/>
      </contour>
    </TTGlyph>
    <TTGlyph name="commaaccentcomb" xMin="108" yMin="-212" xMax="184" yMax="-71">
      <contour>
        <pt x="184" y="-88" on="0"/>
        <pt x="184" y="-119" on="1"/>
        <pt x="184" y="-161" on="0"/>
        <pt x="118" y="-212" on="1"/>
        <pt x="108" y="-201" on="1"/>
        <pt x="109" y="-198" on="1"/>
        <pt x="163" y="-158" on="0"/>
        <pt x="163" y="-120" on="1"/>
        <pt x="163" y="-100" on="0"/>
        <pt x="133" y="-86" on="1"/>
        <pt x="133" y="-82" on="1"/>
        <pt x="138" y="-75" on="0"/>
        <pt x="146" y="-71" on="1"/>
      </contour>
    </TTGlyph>
    <TTGlyph name="copyright" xMin="60" yMin="-12" xMax="643" yMax="598">
      <contour>
        <pt x="438" y="598" on="0"/>
        <pt x="570" y="522" on="0"/>
        <pt x="643" y="384" on="0"/>
        <pt x="643" y="293" on="1"/>
        <pt x="643" y="202" on="0"/>
        <pt x="570" y="64" on="0"/>
        <pt x="438" y="-12" on="0"/>
        <pt x="351" y="-12" on="1"/>
        <pt x="264" y="-12" on="0"/>
        <pt x="132" y="64" on="0"/>
        <pt x="60" y="202" on="0"/>
        <pt x="60" y="293" on="1"/>
        <pt x="60" y="384" on="0"/>
        <pt x="132" y="522" on="0"/>
        <pt x="264" y="598" on="0"/>
        <pt x="351" y="598" on="1"/>
      </contour>
      <contour>
        <pt x="270" y="578" on="0"/>
        <pt x="147" y="507" on="0"/>
        <pt x="80" y="378" on="0"/>
        <pt x="80" y="293" on="1"/>
        <pt x="80" y="208" on="0"/>
        <pt x="147" y="79" on="0"/>
        <pt x="270" y="8" on="0"/>
        <pt x="351" y="8" on="1"/>
        <pt x="432" y="8" on="0"/>
        <pt x="555" y="79" on="0"/>
        <pt x="623" y="208" on="0"/>
        <pt x="623" y="293" on="1"/>
        <pt x="623" y="378" on="0"/>
        <pt x="555" y="507" on="0"/>
        <pt x="432" y="578" on="0"/>
        <pt x="351" y="578" on="1"/>
      </contour>
      <contour>
        <pt x="413" y="465" on="0"/>
        <pt x="458" y="436" on="1"/>
        <pt x="453" y="418" on="1"/>
        <pt x="448" y="418" on="1"/>
        <pt x="412" y="445" on="0"/>
        <pt x="360" y="445" on="1"/>
        <pt x="297" y="445" on="0"/>
        <pt x="230" y="368" on="0"/>
        <pt x="230" y="295" on="1"/>
        <pt x="230" y="222" on="0"/>
        <pt x="295" y="145" on="0"/>
        <pt x="355" y="145" on="1"/>
        <pt x="410" y="145" on="0"/>
        <pt x="454" y="177" on="1"/>
        <pt x="458" y="176" on="1"/>
        <pt x="456" y="157" on="1"/>
        <pt x="404" y="125" on="0"/>
        <pt x="354" y="125" on="1"/>
        <pt x="284" y="125" on="0"/>
        <pt x="210" y="213" on="0"/>
        <pt x="210" y="295" on="1"/>
        <pt x="210" y="377" on="0"/>
        <pt x="287" y="465" on="0"/>
        <pt x="360" y="465" on="1"/>
      </contour>
    </TTGlyph>
    <TTGlyph name="currency" xMin="53" yMin="203" xMax="417" yMax="531">
      <contour>
        <pt x="416" y="515" on="1"/>
        <pt x="344" y="451" on="1"/>
        <pt x="366" y="421" on="0"/>
        <pt x="366" y="380" on="1"/>
        <pt x="366" y="324" on="0"/>
        <pt x="323" y="284" on="1"/>
        <pt x="381" y="218" on="1"/>
        <pt x="380" y="213" on="1"/>
        <pt x="368" y="203" on="1"/>
        <pt x="363" y="204" on="1"/>
        <pt x="306" y="269" on="1"/>
        <pt x="268" y="237" on="0"/>
        <pt x="220" y="237" on="1"/>
        <pt x="172" y="237" on="0"/>
        <pt x="140" y="269" on="1"/>
        <pt x="66" y="203" on="1"/>
        <pt x="61" y="204" on="1"/>
        <pt x="53" y="214" on="1"/>
        <pt x="54" y="219" on="1"/>
        <pt x="127" y="284" on="1"/>
        <pt x="105" y="312" on="0"/>
        <pt x="105" y="355" on="1"/>
        <pt x="105" y="408" on="0"/>
        <pt x="148" y="451" on="1"/>
        <pt x="90" y="517" on="1"/>
        <pt x="92" y="522" on="1"/>
        <pt x="102" y="531" on="1"/>
        <pt x="107" y="531" on="1"/>
        <pt x="165" y="465" on="1"/>
        <pt x="203" y="497" on="0"/>
        <pt x="251" y="497" on="1"/>
        <pt x="297" y="497" on="0"/>
        <pt x="331" y="466" on="1"/>
        <pt x="404" y="531" on="1"/>
        <pt x="409" y="530" on="1"/>
        <pt x="417" y="520" on="1"/>
      </contour>
      <contour>
        <pt x="217" y="477" on="0"/>
        <pt x="160" y="444" on="0"/>
        <pt x="125" y="388" on="0"/>
        <pt x="125" y="356" on="1"/>
        <pt x="125" y="315" on="0"/>
        <pt x="181" y="257" on="0"/>
        <pt x="222" y="257" on="1"/>
        <pt x="254" y="257" on="0"/>
        <pt x="311" y="290" on="0"/>
        <pt x="346" y="346" on="0"/>
        <pt x="346" y="378" on="1"/>
        <pt x="346" y="419" on="0"/>
        <pt x="290" y="477" on="0"/>
        <pt x="249" y="477" on="1"/>
      </contour>
    </TTGlyph>
    <TTGlyph name="d" xMin="79" yMin="-4" xMax="492" yMax="495">
      <contour>
        <pt x="391" y="495" on="0"/>
        <pt x="492" y="392" on="0"/>
        <pt x="492" y="299" on="1"/>
        <pt x="492" y="158" on="0"/>
        <pt x="354" y="-4" on="0"/>
        <pt x="230" y="-4" on="1"/>
        <pt x="147" y="-4" on="0"/>
        <pt x="79" y="0" on="1"/>
        <pt x="98" y="150" on="1"/>
        <pt x="141" y="491" on="1"/>
        <pt x="298" y="495" on="1"/>
      </contour>
      <contour>
        <pt x="345" y="15" on="0"/>
        <pt x="471" y="166" on="0"/>
        <pt x="471" y="297" on="1"/>
        <pt x="471" y="383" on="0"/>
        <pt x="381" y="475" on="0"/>
        <pt x="297" y="475" on="1"/>
        <pt x="159" y="471" on="1"/>
        <pt x="118" y="151" on="1"/>
        <pt x="101" y="19" on="1"/>
        <pt x="167" y="15" on="0"/>
        <pt x="233" y="15" on="1"/>
      </contour>
    </TTGlyph>
    <TTGlyph name="d.sups" xMin="71" yMin="347" xMax="307" yMax="807">
      <contour>
        <pt x="256" y="418" on="1"/>
        <pt x="250" y="350" on="1"/>
        <pt x="227" y="347" on="1"/>
        <pt x="250" y="516" on="1"/>
        <pt x="246" y="516" on="1"/>
        <pt x="189" y="410" on="0"/>
        <pt x="117" y="347" on="1"/>
        <pt x="109" y="347" on="1"/>
        <pt x="89" y="359" on="0"/>
        <pt x="71" y="401" on="0"/>
        <pt x="71" y="437" on="1"/>
        <pt x="71" y="520" on="0"/>
        <pt x="152" y="636" on="0"/>
        <pt x="223" y="642" on="1"/>
        <pt x="226" y="642" on="1"/>
        <pt x="266" y="639" on="1"/>
        <pt x="280" y="745" on="1"/>
        <pt x="284" y="804" on="1"/>
        <pt x="307" y="807" on="1"/>
      </contour>
      <contour>
        <pt x="121" y="371" on="0"/>
        <pt x="167" y="420" on="0"/>
        <pt x="227" y="507" on="0"/>
        <pt x="256" y="563" on="1"/>
        <pt x="264" y="622" on="1"/>
        <pt x="223" y="624" on="1"/>
        <pt x="183" y="624" on="0"/>
        <pt x="123" y="574" on="0"/>
        <pt x="91" y="491" on="0"/>
        <pt x="91" y="443" on="1"/>
        <pt x="91" y="407" on="0"/>
        <pt x="108" y="371" on="0"/>
        <pt x="116" y="371" on="1"/>
      </contour>
    </TTGlyph>
    <TTGlyph name="dagger" xMin="64" yMin="-94" xMax="437" yMax="588">
      <contour>
        <pt x="259" y="374" on="1"/>
        <pt x="248" y="285" on="1"/>
        <pt x="202" y="-94" on="1"/>
        <pt x="185" y="-94" on="1"/>
        <pt x="182" y="-90" on="1"/>
        <pt x="228" y="285" on="1"/>
        <pt x="239" y="374" on="1"/>
        <pt x="66" y="374" on="1"/>
        <pt x="64" y="377" on="1"/>
        <pt x="68" y="394" on="1"/>
        <pt x="241" y="394" on="1"/>
        <pt x="265" y="586" on="1"/>
        <pt x="284" y="588" on="1"/>
        <pt x="285" y="586" on="1"/>
        <pt x="261" y="394" on="1"/>
        <pt x="435" y="394" on="1"/>
        <pt x="437" y="391" on="1"/>
        <pt x="433" y="374" on="1"/>
      </contour>
    </TTGlyph>
    <TTGlyph name="daggerdbl" xMin="30" yMin="-94" xMax="438" yMax="588">
      <contour>
        <pt x="229" y="120" on="1"/>
        <pt x="401" y="120" on="1"/>
        <pt x="404" y="117" on="1"/>
        <pt x="400" y="100" on="1"/>
        <pt x="226" y="100" on="1"/>
        <pt x="202" y="-94" on="1"/>
        <pt x="185" y="-94" on="1"/>
        <pt x="183" y="-90" on="1"/>
        <pt x="206" y="100" on="1"/>
        <pt x="33" y="100" on="1"/>
        <pt x="30" y="103" on="1"/>
        <pt x="34" y="120" on="1"/>
        <pt x="209" y="120" on="1"/>
        <pt x="229" y="285" on="1"/>
        <pt x="240" y="374" on="1"/>
        <pt x="66" y="374" on="1"/>
        <pt x="64" y="377" on="1"/>
        <pt x="68" y="394" on="1"/>
        <pt x="242" y="394" on="1"/>
        <pt x="266" y="586" on="1"/>
        <pt x="284" y="588" on="1"/>
        <pt x="286" y="586" on="1"/>
        <pt x="262" y="394" on="1"/>
        <pt x="435" y="394" on="1"/>
        <pt x="438" y="391" on="1"/>
        <pt x="433" y="374" on="1"/>
        <pt x="260" y="374" on="1"/>
        <pt x="249" y="285" on="1"/>
      </contour>
    </TTGlyph>
    <TTGlyph name="dcaron" xMin="79" yMin="-4" xMax="492" yMax="697">
      <component glyphName="d" x="0" y="0" flags="0x1000"/>
      <component glyphName="caron" x="61" y="39" flags="0x1000"/>
    </TTGlyph>
    <TTGlyph name="dcroat" xMin="79" yMin="-4" xMax="492" yMax="646">
      <component glyphName="d" x="0" y="0" flags="0x1000"/>
      <component glyphName="macron" x="69" y="39" flags="0x1000"/>
    </TTGlyph>
    <TTGlyph name="degree" xMin="61" yMin="403" xMax="306" yMax="642">
      <contour>
        <pt x="245" y="642" on="0"/>
        <pt x="306" y="580" on="0"/>
        <pt x="306" y="534" on="1"/>
        <pt x="306" y="498" on="0"/>
        <pt x="268" y="438" on="0"/>
        <pt x="205" y="403" on="0"/>
        <pt x="169" y="403" on="1"/>
        <pt x="122" y="403" on="0"/>
        <pt x="61" y="464" on="0"/>
        <pt x="61" y="510" on="1"/>
        <pt x="61" y="546" on="0"/>
        <pt x="99" y="606" on="0"/>
        <pt x="163" y="642" on="0"/>
        <pt x="199" y="642" on="1"/>
      </contour>
      <contour>
        <pt x="167" y="622" on="0"/>
        <pt x="114" y="592" on="0"/>
        <pt x="81" y="541" on="0"/>
        <pt x="81" y="513" on="1"/>
        <pt x="81" y="476" on="0"/>
        <pt x="134" y="423" on="0"/>
        <pt x="172" y="423" on="1"/>
        <pt x="200" y="423" on="0"/>
        <pt x="253" y="453" on="0"/>
        <pt x="285" y="503" on="0"/>
        <pt x="285" y="531" on="1"/>
        <pt x="285" y="569" on="0"/>
        <pt x="233" y="622" on="0"/>
        <pt x="196" y="622" on="1"/>
      </contour>
    </TTGlyph>
    <TTGlyph name="dieresis" xMin="145" yMin="576" xMax="335" yMax="616">
      <contour>
        <pt x="185" y="616" on="0"/>
        <pt x="185" y="596" on="1"/>
        <pt x="185" y="576" on="0"/>
        <pt x="165" y="576" on="1"/>
        <pt x="145" y="576" on="0"/>
        <pt x="145" y="596" on="1"/>
        <pt x="145" y="616" on="0"/>
        <pt x="165" y="616" on="1"/>
      </contour>
      <contour>
        <pt x="335" y="616" on="0"/>
        <pt x="335" y="596" on="1"/>
        <pt x="335" y="576" on="0"/>
        <pt x="315" y="576" on="1"/>
        <pt x="295" y="576" on="0"/>
        <pt x="295" y="596" on="1"/>
        <pt x="295" y="616" on="0"/>
        <pt x="315" y="616" on="1"/>
      </contour>
    </TTGlyph>
    <TTGlyph name="dieresis.i" xMin="169" yMin="576" xMax="311" yMax="616">
      <contour>
        <pt x="209" y="616" on="0"/>
        <pt x="209" y="596" on="1"/>
        <pt x="209" y="576" on="0"/>
        <pt x="189" y="576" on="1"/>
        <pt x="169" y="576" on="0"/>
        <pt x="169" y="596" on="1"/>
        <pt x="169" y="616" on="0"/>
        <pt x="189" y="616" on="1"/>
      </contour>
      <contour>
        <pt x="311" y="616" on="0"/>
        <pt x="311" y="596" on="1"/>
        <pt x="311" y="576" on="0"/>
        <pt x="291" y="576" on="1"/>
        <pt x="271" y="576" on="0"/>
        <pt x="271" y="596" on="1"/>
        <pt x="271" y="616" on="0"/>
        <pt x="291" y="616" on="1"/>
      </contour>
    </TTGlyph>
    <TTGlyph name="dieresisacute" xMin="147" yMin="555" xMax="349" yMax="736">
      <contour>
        <pt x="349" y="720" on="1"/>
        <pt x="346" y="715" on="1"/>
        <pt x="266" y="686" on="0"/>
        <pt x="159" y="654" on="1"/>
        <pt x="154" y="658" on="1"/>
        <pt x="150" y="674" on="1"/>
        <pt x="243" y="700" on="0"/>
        <pt x="340" y="736" on="1"/>
        <pt x="344" y="733" on="1"/>
      </contour>
      <contour>
        <pt x="187" y="595" on="0"/>
        <pt x="187" y="575" on="1"/>
        <pt x="187" y="555" on="0"/>
        <pt x="167" y="555" on="1"/>
        <pt x="147" y="555" on="0"/>
        <pt x="147" y="575" on="1"/>
        <pt x="147" y="595" on="0"/>
        <pt x="167" y="595" on="1"/>
      </contour>
      <contour>
        <pt x="327" y="595" on="0"/>
        <pt x="327" y="575" on="1"/>
        <pt x="327" y="555" on="0"/>
        <pt x="307" y="555" on="1"/>
        <pt x="287" y="555" on="0"/>
        <pt x="287" y="575" on="1"/>
        <pt x="287" y="595" on="0"/>
        <pt x="307" y="595" on="1"/>
      </contour>
    </TTGlyph>
    <TTGlyph name="dieresiscaron" xMin="138" yMin="555" xMax="351" yMax="718">
      <contour>
        <pt x="314" y="680" on="0"/>
        <pt x="246" y="628" on="1"/>
        <pt x="230" y="628" on="1"/>
        <pt x="178" y="673" on="0"/>
        <pt x="138" y="704" on="1"/>
        <pt x="146" y="718" on="1"/>
        <pt x="151" y="718" on="1"/>
        <pt x="191" y="689" on="0"/>
        <pt x="238" y="648" on="1"/>
        <pt x="285" y="683" on="0"/>
        <pt x="341" y="718" on="1"/>
        <pt x="346" y="718" on="1"/>
        <pt x="351" y="704" on="1"/>
      </contour>
      <contour>
        <pt x="185" y="595" on="0"/>
        <pt x="185" y="575" on="1"/>
        <pt x="185" y="555" on="0"/>
        <pt x="165" y="555" on="1"/>
        <pt x="145" y="555" on="0"/>
        <pt x="145" y="575" on="1"/>
        <pt x="145" y="595" on="0"/>
        <pt x="165" y="595" on="1"/>
      </contour>
      <contour>
        <pt x="325" y="595" on="0"/>
        <pt x="325" y="575" on="1"/>
        <pt x="325" y="555" on="0"/>
        <pt x="305" y="555" on="1"/>
        <pt x="285" y="555" on="0"/>
        <pt x="285" y="575" on="1"/>
        <pt x="285" y="595" on="0"/>
        <pt x="305" y="595" on="1"/>
      </contour>
    </TTGlyph>
    <TTGlyph name="dieresisgrave" xMin="142" yMin="555" xMax="353" yMax="736">
      <contour>
        <pt x="262" y="700" on="0"/>
        <pt x="353" y="674" on="1"/>
        <pt x="347" y="658" on="1"/>
        <pt x="341" y="654" on="1"/>
        <pt x="233" y="688" on="0"/>
        <pt x="162" y="715" on="1"/>
        <pt x="159" y="720" on="1"/>
        <pt x="166" y="733" on="1"/>
        <pt x="170" y="736" on="1"/>
      </contour>
      <contour>
        <pt x="183" y="595" on="0"/>
        <pt x="183" y="578" on="1"/>
        <pt x="183" y="568" on="0"/>
        <pt x="170" y="555" on="0"/>
        <pt x="160" y="555" on="1"/>
        <pt x="142" y="555" on="0"/>
        <pt x="142" y="572" on="1"/>
        <pt x="142" y="582" on="0"/>
        <pt x="155" y="595" on="0"/>
        <pt x="165" y="595" on="1"/>
      </contour>
      <contour>
        <pt x="323" y="595" on="0"/>
        <pt x="323" y="578" on="1"/>
        <pt x="323" y="568" on="0"/>
        <pt x="310" y="555" on="0"/>
        <pt x="300" y="555" on="1"/>
        <pt x="282" y="555" on="0"/>
        <pt x="282" y="572" on="1"/>
        <pt x="282" y="582" on="0"/>
        <pt x="295" y="595" on="0"/>
        <pt x="305" y="595" on="1"/>
      </contour>
    </TTGlyph>
    <TTGlyph name="dieresismacron" xMin="137" yMin="555" xMax="379" yMax="691">
      <contour>
        <pt x="377" y="671" on="1"/>
        <pt x="140" y="671" on="1"/>
        <pt x="137" y="674" on="1"/>
        <pt x="139" y="691" on="1"/>
        <pt x="376" y="691" on="1"/>
        <pt x="379" y="688" on="1"/>
      </contour>
      <contour>
        <pt x="199" y="595" on="0"/>
        <pt x="199" y="575" on="1"/>
        <pt x="199" y="555" on="0"/>
        <pt x="179" y="555" on="1"/>
        <pt x="159" y="555" on="0"/>
        <pt x="159" y="575" on="1"/>
        <pt x="159" y="595" on="0"/>
        <pt x="179" y="595" on="1"/>
      </contour>
      <contour>
        <pt x="339" y="595" on="0"/>
        <pt x="339" y="575" on="1"/>
        <pt x="339" y="555" on="0"/>
        <pt x="319" y="555" on="1"/>
        <pt x="299" y="555" on="0"/>
        <pt x="299" y="575" on="1"/>
        <pt x="299" y="595" on="0"/>
        <pt x="319" y="595" on="1"/>
      </contour>
    </TTGlyph>
    <TTGlyph name="divide" xMin="43" yMin="68" xMax="445" yMax="471">
      <component glyphName="minus" x="-1" y="0" flags="0x1000"/>
      <component glyphName="period" x="134" y="70" flags="0x1000"/>
      <component glyphName="period" x="178" y="433" flags="0x1000"/>
    </TTGlyph>
    <TTGlyph name="divisionslash" xMin="19" yMin="-110" xMax="296" yMax="675">
      <component glyphName="slash" x="-1" y="0" flags="0x1000"/>
    </TTGlyph>
    <TTGlyph name="dollar" xMin="41" yMin="-124" xMax="344" yMax="630">
      <contour>
        <pt x="302" y="491" on="0"/>
        <pt x="344" y="471" on="1"/>
        <pt x="337" y="453" on="1"/>
        <pt x="331" y="452" on="1"/>
        <pt x="295" y="471" on="0"/>
        <pt x="248" y="473" on="1"/>
        <pt x="217" y="255" on="1"/>
        <pt x="267" y="230" on="0"/>
        <pt x="322" y="178" on="0"/>
        <pt x="322" y="134" on="1"/>
        <pt x="322" y="83" on="0"/>
        <pt x="243" y="5" on="0"/>
        <pt x="182" y="-2" on="1"/>
        <pt x="164" y="-124" on="1"/>
        <pt x="149" y="-124" on="1"/>
        <pt x="145" y="-120" on="1"/>
        <pt x="162" y="-3" on="1"/>
        <pt x="160" y="-3" on="1"/>
        <pt x="89" y="-3" on="0"/>
        <pt x="41" y="33" on="1"/>
        <pt x="43" y="53" on="1"/>
        <pt x="48" y="54" on="1"/>
        <pt x="95" y="17" on="0"/>
        <pt x="161" y="17" on="1"/>
        <pt x="164" y="17" on="1"/>
        <pt x="195" y="242" on="1"/>
        <pt x="143" y="268" on="0"/>
        <pt x="89" y="320" on="0"/>
        <pt x="89" y="363" on="1"/>
        <pt x="89" y="413" on="0"/>
        <pt x="167" y="488" on="0"/>
        <pt x="229" y="492" on="1"/>
        <pt x="249" y="630" on="1"/>
        <pt x="265" y="630" on="1"/>
        <pt x="269" y="625" on="1"/>
        <pt x="251" y="493" on="1"/>
      </contour>
      <contour>
        <pt x="109" y="329" on="0"/>
        <pt x="154" y="286" on="0"/>
        <pt x="198" y="264" on="1"/>
        <pt x="227" y="472" on="1"/>
        <pt x="174" y="467" on="0"/>
        <pt x="109" y="402" on="0"/>
        <pt x="109" y="362" on="1"/>
      </contour>
      <contour>
        <pt x="302" y="168" on="0"/>
        <pt x="257" y="211" on="0"/>
        <pt x="214" y="233" on="1"/>
        <pt x="185" y="19" on="1"/>
        <pt x="237" y="26" on="0"/>
        <pt x="302" y="94" on="0"/>
        <pt x="302" y="135" on="1"/>
      </contour>
    </TTGlyph>
    <TTGlyph name="dotaccent" xMin="221" yMin="590" xMax="261" yMax="630">
      <contour>
        <pt x="261" y="630" on="0"/>
        <pt x="261" y="610" on="1"/>
        <pt x="261" y="590" on="0"/>
        <pt x="241" y="590" on="1"/>
        <pt x="221" y="590" on="0"/>
        <pt x="221" y="610" on="1"/>
        <pt x="221" y="630" on="0"/>
        <pt x="241" y="630" on="1"/>
      </contour>
    </TTGlyph>
    <TTGlyph name="dotbelowcomb" xMin="134" yMin="-127" xMax="174" yMax="-87">
      <contour>
        <pt x="174" y="-87" on="0"/>
        <pt x="174" y="-107" on="1"/>
        <pt x="174" y="-127" on="0"/>
        <pt x="154" y="-127" on="1"/>
        <pt x="134" y="-127" on="0"/>
        <pt x="134" y="-107" on="1"/>
        <pt x="134" y="-87" on="0"/>
        <pt x="154" y="-87" on="1"/>
      </contour>
    </TTGlyph>
    <TTGlyph name="dotlessi" xMin="78" yMin="0" xMax="160" yMax="491">
      <component glyphName="i" x="0" y="0" flags="0x1000"/>
    </TTGlyph>
    <TTGlyph name="dotlessj" xMin="6" yMin="-76" xMax="177" yMax="491">
      <component glyphName="j" x="0" y="0" flags="0x1000"/>
    </TTGlyph>
    <TTGlyph name="down" xMin="66" yMin="76" xMax="336" yMax="346">
      <contour>
        <pt x="66" y="346" on="1"/>
        <pt x="336" y="346" on="1"/>
        <pt x="201" y="76" on="1"/>
      </contour>
    </TTGlyph>
    <TTGlyph name="e" xMin="78" yMin="0" xMax="387" yMax="491">
      <contour>
        <pt x="131" y="264" on="1"/>
        <pt x="316" y="264" on="1"/>
        <pt x="318" y="260" on="1"/>
        <pt x="313" y="244" on="1"/>
        <pt x="129" y="244" on="1"/>
        <pt x="117" y="151" on="1"/>
        <pt x="100" y="19" on="1"/>
        <pt x="327" y="19" on="1"/>
        <pt x="330" y="16" on="1"/>
        <pt x="324" y="0" on="1"/>
        <pt x="78" y="0" on="1"/>
        <pt x="97" y="150" on="1"/>
        <pt x="140" y="491" on="1"/>
        <pt x="384" y="491" on="1"/>
        <pt x="387" y="487" on="1"/>
        <pt x="381" y="471" on="1"/>
        <pt x="158" y="472" on="1"/>
      </contour>
    </TTGlyph>
    <TTGlyph name="e.sups" xMin="72" yMin="347" xMax="259" yMax="644">
      <contour>
        <pt x="241" y="418" on="1"/>
        <pt x="202" y="354" on="0"/>
        <pt x="144" y="347" on="1"/>
        <pt x="138" y="347" on="1"/>
        <pt x="103" y="351" on="0"/>
        <pt x="72" y="398" on="0"/>
        <pt x="72" y="445" on="1"/>
        <pt x="72" y="501" on="0"/>
        <pt x="107" y="591" on="0"/>
        <pt x="167" y="643" on="0"/>
        <pt x="204" y="644" on="1"/>
        <pt x="208" y="644" on="1"/>
        <pt x="259" y="640" on="0"/>
        <pt x="259" y="597" on="1"/>
        <pt x="259" y="521" on="0"/>
        <pt x="92" y="463" on="1"/>
        <pt x="92" y="450" on="1"/>
        <pt x="92" y="364" on="0"/>
        <pt x="143" y="364" on="1"/>
        <pt x="192" y="364" on="0"/>
        <pt x="229" y="428" on="1"/>
        <pt x="234" y="427" on="1"/>
      </contour>
      <contour>
        <pt x="161" y="626" on="0"/>
        <pt x="100" y="545" on="0"/>
        <pt x="93" y="480" on="1"/>
        <pt x="164" y="506" on="0"/>
        <pt x="240" y="565" on="0"/>
        <pt x="240" y="594" on="1"/>
        <pt x="240" y="626" on="0"/>
        <pt x="203" y="626" on="1"/>
      </contour>
    </TTGlyph>
    <TTGlyph name="eacute" xMin="78" yMin="0" xMax="387" yMax="708">
      <component glyphName="e" x="0" y="0" flags="0x1000"/>
      <component glyphName="acute" x="41" y="39" flags="0x1000"/>
    </TTGlyph>
    <TTGlyph name="ebreve" xMin="78" yMin="0" xMax="387" yMax="679">
      <component glyphName="e" x="0" y="0" flags="0x1000"/>
      <component glyphName="breve" x="33" y="39" flags="0x1000"/>
    </TTGlyph>
    <TTGlyph name="ecaron" xMin="78" yMin="0" xMax="388" yMax="697">
      <component glyphName="e" x="0" y="0" flags="0x1000"/>
      <component glyphName="caron" x="31" y="39" flags="0x1000"/>
    </TTGlyph>
    <TTGlyph name="ecircumflex" xMin="78" yMin="0" xMax="387" yMax="687">
      <component glyphName="e" x="0" y="0" flags="0x1000"/>
      <component glyphName="circumflex" x="46" y="39" flags="0x1000"/>
    </TTGlyph>
    <TTGlyph name="ecircumflexacute" xMin="78" yMin="0" xMax="409" yMax="750">
      <component glyphName="e" x="0" y="0" flags="0x1000"/>
      <component glyphName="circumflexacute" x="38" y="39" flags="0x1000"/>
    </TTGlyph>
    <TTGlyph name="ecircumflexdotbelow" xMin="78" yMin="-127" xMax="387" yMax="687">
      <component glyphName="e" x="0" y="0" flags="0x1000"/>
      <component glyphName="dotbelowcomb" x="48" y="0" flags="0x1000"/>
      <component glyphName="circumflex" x="46" y="39" flags="0x1000"/>
    </TTGlyph>
    <TTGlyph name="ecircumflexgrave" xMin="78" yMin="0" xMax="390" yMax="749">
      <component glyphName="e" x="0" y="0" flags="0x1000"/>
      <component glyphName="circumflexgrave" x="38" y="39" flags="0x1000"/>
    </TTGlyph>
    <TTGlyph name="ecircumflexhookabove" xMin="78" yMin="0" xMax="400" yMax="776">
      <component glyphName="e" x="0" y="0" flags="0x1000"/>
      <component glyphName="circumflexhookabove" x="38" y="39" flags="0x1000"/>
    </TTGlyph>
    <TTGlyph name="ecircumflextilde" xMin="78" yMin="0" xMax="433" yMax="761">
      <component glyphName="e" x="0" y="0" flags="0x1000"/>
      <component glyphName="circumflextilde" x="38" y="39" flags="0x1000"/>
    </TTGlyph>
    <TTGlyph name="edieresis" xMin="78" yMin="0" xMax="387" yMax="655">
      <component glyphName="e" x="0" y="0" flags="0x1000"/>
      <component glyphName="dieresis" x="39" y="39" flags="0x1000"/>
    </TTGlyph>
    <TTGlyph name="edotaccent" xMin="78" yMin="0" xMax="387" yMax="669">
      <component glyphName="e" x="0" y="0" flags="0x1000"/>
      <component glyphName="dotaccent" x="39" y="39" flags="0x1000"/>
    </TTGlyph>
    <TTGlyph name="edotbelow" xMin="78" yMin="-127" xMax="387" yMax="491">
      <component glyphName="e" x="0" y="0" flags="0x1000"/>
      <component glyphName="dotbelowcomb" x="48" y="0" flags="0x1000"/>
    </TTGlyph>
    <TTGlyph name="egrave" xMin="78" yMin="0" xMax="387" yMax="708">
      <component glyphName="e" x="0" y="0" flags="0x1000"/>
      <component glyphName="grave" x="29" y="39" flags="0x1000"/>
    </TTGlyph>
    <TTGlyph name="ehookabove" xMin="78" yMin="0" xMax="387" yMax="716">
      <component glyphName="e" x="0" y="0" flags="0x1000"/>
      <component glyphName="hookabove" x="12" y="39" flags="0x1000"/>
    </TTGlyph>
    <TTGlyph name="eight" xMin="48" yMin="-4" xMax="398" yMax="589">
      <contour>
        <pt x="328" y="589" on="0"/>
        <pt x="398" y="526" on="0"/>
        <pt x="398" y="468" on="1"/>
        <pt x="398" y="358" on="0"/>
        <pt x="260" y="307" on="1"/>
        <pt x="260" y="304" on="1"/>
        <pt x="301" y="286" on="0"/>
        <pt x="353" y="254" on="0"/>
        <pt x="386" y="201" on="0"/>
        <pt x="386" y="161" on="1"/>
        <pt x="386" y="114" on="0"/>
        <pt x="340" y="39" on="0"/>
        <pt x="256" y="-4" on="0"/>
        <pt x="202" y="-4" on="1"/>
        <pt x="131" y="-4" on="0"/>
        <pt x="48" y="69" on="0"/>
        <pt x="48" y="131" on="1"/>
        <pt x="48" y="248" on="0"/>
        <pt x="206" y="305" on="1"/>
        <pt x="206" y="308" on="1"/>
        <pt x="157" y="330" on="0"/>
        <pt x="107" y="389" on="0"/>
        <pt x="107" y="439" on="1"/>
        <pt x="107" y="506" on="0"/>
        <pt x="198" y="589" on="0"/>
        <pt x="269" y="589" on="1"/>
      </contour>
      <contour>
        <pt x="205" y="569" on="0"/>
        <pt x="126" y="497" on="0"/>
        <pt x="126" y="439" on="1"/>
        <pt x="126" y="391" on="0"/>
        <pt x="180" y="340" on="0"/>
        <pt x="233" y="316" on="1"/>
        <pt x="378" y="362" on="0"/>
        <pt x="378" y="467" on="1"/>
        <pt x="378" y="516" on="0"/>
        <pt x="320" y="569" on="0"/>
        <pt x="268" y="569" on="1"/>
      </contour>
      <contour>
        <pt x="159" y="271" on="0"/>
        <pt x="68" y="199" on="0"/>
        <pt x="68" y="132" on="1"/>
        <pt x="68" y="78" on="0"/>
        <pt x="140" y="16" on="0"/>
        <pt x="203" y="16" on="1"/>
        <pt x="276" y="16" on="0"/>
        <pt x="366" y="97" on="0"/>
        <pt x="366" y="159" on="1"/>
        <pt x="366" y="197" on="0"/>
        <pt x="330" y="246" on="0"/>
        <pt x="281" y="274" on="0"/>
        <pt x="230" y="296" on="1"/>
      </contour>
    </TTGlyph>
    <TTGlyph name="eight.dnom" xMin="25" yMin="-3" xMax="267" yMax="371">
      <contour>
        <pt x="222" y="371" on="0"/>
        <pt x="267" y="332" on="0"/>
        <pt x="267" y="298" on="1"/>
        <pt x="267" y="226" on="0"/>
        <pt x="175" y="194" on="1"/>
        <pt x="174" y="192" on="1"/>
        <pt x="214" y="176" on="0"/>
        <pt x="257" y="140" on="0"/>
        <pt x="257" y="106" on="1"/>
        <pt x="257" y="57" on="0"/>
        <pt x="184" y="-3" on="0"/>
        <pt x="126" y="-3" on="1"/>
        <pt x="79" y="-3" on="0"/>
        <pt x="25" y="43" on="0"/>
        <pt x="25" y="81" on="1"/>
        <pt x="25" y="155" on="0"/>
        <pt x="130" y="191" on="1"/>
        <pt x="130" y="193" on="1"/>
        <pt x="67" y="221" on="0"/>
        <pt x="67" y="272" on="1"/>
        <pt x="67" y="318" on="0"/>
        <pt x="131" y="371" on="0"/>
        <pt x="182" y="371" on="1"/>
      </contour>
      <contour>
        <pt x="138" y="354" on="0"/>
        <pt x="86" y="309" on="0"/>
        <pt x="86" y="273" on="1"/>
        <pt x="86" y="246" on="0"/>
        <pt x="121" y="215" on="0"/>
        <pt x="154" y="201" on="1"/>
        <pt x="248" y="230" on="0"/>
        <pt x="248" y="294" on="1"/>
        <pt x="248" y="322" on="0"/>
        <pt x="211" y="354" on="0"/>
        <pt x="179" y="354" on="1"/>
      </contour>
      <contour>
        <pt x="101" y="167" on="0"/>
        <pt x="44" y="124" on="0"/>
        <pt x="44" y="83" on="1"/>
        <pt x="44" y="52" on="0"/>
        <pt x="90" y="15" on="0"/>
        <pt x="129" y="15" on="1"/>
        <pt x="178" y="15" on="0"/>
        <pt x="238" y="64" on="0"/>
        <pt x="238" y="102" on="1"/>
        <pt x="238" y="124" on="0"/>
        <pt x="214" y="153" on="0"/>
        <pt x="182" y="169" on="0"/>
        <pt x="149" y="183" on="1"/>
      </contour>
    </TTGlyph>
    <TTGlyph name="eight.lf" xMin="48" yMin="-4" xMax="398" yMax="589">
      <component glyphName="eight" x="0" y="0" flags="0x1000"/>
    </TTGlyph>
    <TTGlyph name="eight.numr" xMin="58" yMin="265" xMax="300" yMax="639">
      <component glyphName="eight.dnom" x="33" y="268" flags="0x1000"/>
    </TTGlyph>
    <TTGlyph name="eight.sinf" xMin="0" yMin="-123" xMax="242" yMax="251">
      <component glyphName="eight.dnom" x="-25" y="-120" flags="0x1000"/>
    </TTGlyph>
    <TTGlyph name="eight.tf" xMin="56" yMin="-4" xMax="412" yMax="589">
      <contour>
        <pt x="341" y="589" on="0"/>
        <pt x="412" y="526" on="0"/>
        <pt x="412" y="468" on="1"/>
        <pt x="412" y="359" on="0"/>
        <pt x="271" y="307" on="1"/>
        <pt x="271" y="304" on="1"/>
        <pt x="313" y="287" on="0"/>
        <pt x="366" y="254" on="0"/>
        <pt x="400" y="201" on="0"/>
        <pt x="400" y="161" on="1"/>
        <pt x="400" y="114" on="0"/>
        <pt x="353" y="39" on="0"/>
        <pt x="268" y="-4" on="0"/>
        <pt x="213" y="-4" on="1"/>
        <pt x="140" y="-4" on="0"/>
        <pt x="56" y="69" on="0"/>
        <pt x="56" y="131" on="1"/>
        <pt x="56" y="248" on="0"/>
        <pt x="217" y="305" on="1"/>
        <pt x="217" y="308" on="1"/>
        <pt x="167" y="331" on="0"/>
        <pt x="116" y="389" on="0"/>
        <pt x="116" y="439" on="1"/>
        <pt x="116" y="506" on="0"/>
        <pt x="208" y="589" on="0"/>
        <pt x="280" y="589" on="1"/>
      </contour>
      <contour>
        <pt x="215" y="569" on="0"/>
        <pt x="135" y="497" on="0"/>
        <pt x="135" y="439" on="1"/>
        <pt x="135" y="391" on="0"/>
        <pt x="190" y="340" on="0"/>
        <pt x="244" y="316" on="1"/>
        <pt x="392" y="363" on="0"/>
        <pt x="392" y="467" on="1"/>
        <pt x="392" y="516" on="0"/>
        <pt x="333" y="569" on="0"/>
        <pt x="279" y="569" on="1"/>
      </contour>
      <contour>
        <pt x="169" y="270" on="0"/>
        <pt x="76" y="199" on="0"/>
        <pt x="76" y="132" on="1"/>
        <pt x="76" y="78" on="0"/>
        <pt x="150" y="16" on="0"/>
        <pt x="214" y="16" on="1"/>
        <pt x="288" y="16" on="0"/>
        <pt x="380" y="97" on="0"/>
        <pt x="380" y="159" on="1"/>
        <pt x="380" y="197" on="0"/>
        <pt x="344" y="246" on="0"/>
        <pt x="293" y="274" on="0"/>
        <pt x="241" y="296" on="1"/>
      </contour>
    </TTGlyph>
    <TTGlyph name="eight.tosf" xMin="56" yMin="-4" xMax="409" yMax="589">
      <contour>
        <pt x="339" y="589" on="0"/>
        <pt x="409" y="526" on="0"/>
        <pt x="409" y="468" on="1"/>
        <pt x="409" y="358" on="0"/>
        <pt x="270" y="307" on="1"/>
        <pt x="270" y="304" on="1"/>
        <pt x="312" y="287" on="0"/>
        <pt x="364" y="254" on="0"/>
        <pt x="397" y="201" on="0"/>
        <pt x="397" y="161" on="1"/>
        <pt x="397" y="114" on="0"/>
        <pt x="351" y="39" on="0"/>
        <pt x="267" y="-4" on="0"/>
        <pt x="212" y="-4" on="1"/>
        <pt x="140" y="-4" on="0"/>
        <pt x="56" y="69" on="0"/>
        <pt x="56" y="131" on="1"/>
        <pt x="56" y="248" on="0"/>
        <pt x="216" y="305" on="1"/>
        <pt x="216" y="308" on="1"/>
        <pt x="166" y="331" on="0"/>
        <pt x="115" y="389" on="0"/>
        <pt x="115" y="439" on="1"/>
        <pt x="115" y="506" on="0"/>
        <pt x="207" y="589" on="0"/>
        <pt x="279" y="589" on="1"/>
      </contour>
      <contour>
        <pt x="214" y="569" on="0"/>
        <pt x="134" y="497" on="0"/>
        <pt x="134" y="439" on="1"/>
        <pt x="134" y="391" on="0"/>
        <pt x="189" y="340" on="0"/>
        <pt x="243" y="316" on="1"/>
        <pt x="389" y="363" on="0"/>
        <pt x="389" y="467" on="1"/>
        <pt x="389" y="516" on="0"/>
        <pt x="331" y="569" on="0"/>
        <pt x="278" y="569" on="1"/>
      </contour>
      <contour>
        <pt x="168" y="271" on="0"/>
        <pt x="76" y="199" on="0"/>
        <pt x="76" y="132" on="1"/>
        <pt x="76" y="78" on="0"/>
        <pt x="149" y="16" on="0"/>
        <pt x="213" y="16" on="1"/>
        <pt x="286" y="16" on="0"/>
        <pt x="377" y="97" on="0"/>
        <pt x="377" y="159" on="1"/>
        <pt x="377" y="197" on="0"/>
        <pt x="341" y="246" on="0"/>
        <pt x="291" y="274" on="0"/>
        <pt x="240" y="296" on="1"/>
      </contour>
    </TTGlyph>
    <TTGlyph name="eightsuperior" xMin="65" yMin="328" xMax="307" yMax="702">
      <component glyphName="eight.dnom" x="40" y="331" flags="0x1000"/>
    </TTGlyph>
    <TTGlyph name="ellipsis" xMin="39" yMin="-2" xMax="379" yMax="38">
      <component glyphName="period" x="120" y="0" flags="0x1000"/>
      <component glyphName="period" x="270" y="0" flags="0x1000"/>
      <component glyphName="period" x="-30" y="0" flags="0x1000"/>
    </TTGlyph>
    <TTGlyph name="emacron" xMin="78" yMin="0" xMax="426" yMax="646">
      <component glyphName="e" x="0" y="0" flags="0x1000"/>
      <component glyphName="macron" x="39" y="39" flags="0x1000"/>
    </TTGlyph>
    <TTGlyph name="emdash" xMin="-12" yMin="244" xMax="991" yMax="264">
      <contour>
        <pt x="987" y="244" on="1"/>
        <pt x="-10" y="244" on="1"/>
        <pt x="-12" y="247" on="1"/>
        <pt x="-8" y="264" on="1"/>
        <pt x="989" y="264" on="1"/>
        <pt x="991" y="261" on="1"/>
      </contour>
    </TTGlyph>
    <TTGlyph name="endash" xMin="-12" yMin="244" xMax="511" yMax="264">
      <contour>
        <pt x="507" y="244" on="1"/>
        <pt x="-10" y="244" on="1"/>
        <pt x="-12" y="247" on="1"/>
        <pt x="-8" y="264" on="1"/>
        <pt x="509" y="264" on="1"/>
        <pt x="511" y="261" on="1"/>
      </contour>
    </TTGlyph>
    <TTGlyph name="eng" xMin="78" yMin="-115" xMax="494" yMax="492">
      <contour>
        <pt x="435" y="35" on="1"/>
        <pt x="428" y="-16" on="0"/>
        <pt x="386" y="-83" on="0"/>
        <pt x="341" y="-115" on="1"/>
        <pt x="333" y="-104" on="1"/>
        <pt x="334" y="-99" on="1"/>
        <pt x="393" y="-55" on="0"/>
        <pt x="409" y="3" on="1"/>
        <pt x="158" y="451" on="1"/>
        <pt x="155" y="451" on="1"/>
        <pt x="117" y="154" on="1"/>
        <pt x="98" y="0" on="1"/>
        <pt x="78" y="0" on="1"/>
        <pt x="98" y="146" on="1"/>
        <pt x="141" y="491" on="1"/>
        <pt x="161" y="491" on="1"/>
        <pt x="413" y="40" on="1"/>
        <pt x="418" y="40" on="1"/>
        <pt x="474" y="490" on="1"/>
        <pt x="494" y="492" on="1"/>
        <pt x="448" y="137" on="1"/>
      </contour>
    </TTGlyph>
    <TTGlyph name="eogonek" xMin="78" yMin="-197" xMax="387" yMax="491">
      <contour>
        <pt x="131" y="264" on="1"/>
        <pt x="316" y="264" on="1"/>
        <pt x="318" y="260" on="1"/>
        <pt x="313" y="244" on="1"/>
        <pt x="129" y="244" on="1"/>
        <pt x="117" y="151" on="1"/>
        <pt x="100" y="19" on="1"/>
        <pt x="245" y="19" on="1"/>
        <pt x="246" y="20" on="1"/>
        <pt x="270" y="20" on="1"/>
        <pt x="269" y="19" on="1"/>
        <pt x="327" y="19" on="1"/>
        <pt x="330" y="16" on="1"/>
        <pt x="324" y="0" on="1"/>
        <pt x="257" y="0" on="1"/>
        <pt x="204" y="-78" on="1"/>
        <pt x="184" y="-107" on="0"/>
        <pt x="184" y="-131" on="1"/>
        <pt x="184" y="-152" on="0"/>
        <pt x="208" y="-177" on="0"/>
        <pt x="229" y="-177" on="1"/>
        <pt x="271" y="-177" on="0"/>
        <pt x="310" y="-124" on="1"/>
        <pt x="312" y="-124" on="1"/>
        <pt x="323" y="-140" on="1"/>
        <pt x="279" y="-197" on="0"/>
        <pt x="229" y="-197" on="1"/>
        <pt x="200" y="-197" on="0"/>
        <pt x="164" y="-162" on="0"/>
        <pt x="164" y="-133" on="1"/>
        <pt x="164" y="-103" on="0"/>
        <pt x="185" y="-72" on="1"/>
        <pt x="233" y="0" on="1"/>
        <pt x="78" y="0" on="1"/>
        <pt x="97" y="150" on="1"/>
        <pt x="140" y="491" on="1"/>
        <pt x="384" y="491" on="1"/>
        <pt x="387" y="487" on="1"/>
        <pt x="381" y="471" on="1"/>
        <pt x="158" y="472" on="1"/>
      </contour>
    </TTGlyph>
    <TTGlyph name="equal" xMin="40" yMin="188" xMax="460" yMax="352">
      <component glyphName="minus" x="14" y="72" flags="0x1000"/>
      <component glyphName="minus" x="-4" y="-72" flags="0x1000"/>
    </TTGlyph>
    <TTGlyph name="estimated" xMin="53" yMin="-9" xMax="784" yMax="648">
      <contour>
        <pt x="518" y="648" on="0"/>
        <pt x="686" y="560" on="0"/>
        <pt x="784" y="409" on="0"/>
        <pt x="784" y="319" on="1"/>
        <pt x="784" y="314" on="1"/>
        <pt x="190" y="314" on="1"/>
        <pt x="182" y="314" on="0"/>
        <pt x="182" y="307" on="1"/>
        <pt x="182" y="126" on="1"/>
        <pt x="182" y="115" on="0"/>
        <pt x="192" y="103" on="1"/>
        <pt x="235" y="61" on="0"/>
        <pt x="354" y="11" on="0"/>
        <pt x="420" y="11" on="1"/>
        <pt x="494" y="11" on="0"/>
        <pt x="626" y="67" on="0"/>
        <pt x="674" y="114" on="1"/>
        <pt x="704" y="114" on="1"/>
        <pt x="654" y="57" on="0"/>
        <pt x="504" y="-9" on="0"/>
        <pt x="419" y="-9" on="1"/>
        <pt x="320" y="-9" on="0"/>
        <pt x="151" y="79" on="0"/>
        <pt x="53" y="230" on="0"/>
        <pt x="53" y="319" on="1"/>
        <pt x="53" y="409" on="0"/>
        <pt x="151" y="560" on="0"/>
        <pt x="320" y="648" on="0"/>
        <pt x="419" y="648" on="1"/>
      </contour>
      <contour>
        <pt x="353" y="628" on="0"/>
        <pt x="236" y="580" on="0"/>
        <pt x="193" y="537" on="1"/>
        <pt x="182" y="526" on="0"/>
        <pt x="182" y="512" on="1"/>
        <pt x="182" y="342" on="1"/>
        <pt x="182" y="334" on="0"/>
        <pt x="190" y="334" on="1"/>
        <pt x="648" y="334" on="1"/>
        <pt x="656" y="334" on="0"/>
        <pt x="656" y="342" on="1"/>
        <pt x="656" y="516" on="1"/>
        <pt x="656" y="529" on="0"/>
        <pt x="645" y="540" on="1"/>
        <pt x="602" y="582" on="0"/>
        <pt x="485" y="628" on="0"/>
        <pt x="420" y="628" on="1"/>
      </contour>
    </TTGlyph>
    <TTGlyph name="eth" xMin="9" yMin="-4" xMax="492" yMax="495">
      <contour>
        <pt x="391" y="495" on="0"/>
        <pt x="492" y="392" on="0"/>
        <pt x="492" y="299" on="1"/>
        <pt x="492" y="158" on="0"/>
        <pt x="354" y="-4" on="0"/>
        <pt x="230" y="-4" on="1"/>
        <pt x="147" y="-4" on="0"/>
        <pt x="79" y="0" on="1"/>
        <pt x="98" y="150" on="1"/>
        <pt x="109" y="234" on="1"/>
        <pt x="11" y="234" on="1"/>
        <pt x="9" y="237" on="1"/>
        <pt x="12" y="254" on="1"/>
        <pt x="111" y="254" on="1"/>
        <pt x="141" y="491" on="1"/>
        <pt x="298" y="495" on="1"/>
      </contour>
      <contour>
        <pt x="345" y="15" on="0"/>
        <pt x="471" y="166" on="0"/>
        <pt x="471" y="297" on="1"/>
        <pt x="471" y="383" on="0"/>
        <pt x="381" y="475" on="0"/>
        <pt x="297" y="475" on="1"/>
        <pt x="159" y="471" on="1"/>
        <pt x="131" y="254" on="1"/>
        <pt x="269" y="254" on="1"/>
        <pt x="271" y="251" on="1"/>
        <pt x="268" y="234" on="1"/>
        <pt x="128" y="234" on="1"/>
        <pt x="118" y="151" on="1"/>
        <pt x="101" y="19" on="1"/>
        <pt x="167" y="15" on="0"/>
        <pt x="233" y="15" on="1"/>
      </contour>
    </TTGlyph>
    <TTGlyph name="etilde" xMin="78" yMin="0" xMax="418" yMax="670">
      <component glyphName="e" x="0" y="0" flags="0x1000"/>
      <component glyphName="tilde" x="39" y="39" flags="0x1000"/>
    </TTGlyph>
    <TTGlyph name="exclam" xMin="83" yMin="-2" xMax="196" yMax="654">
      <contour>
        <pt x="133" y="198" on="1"/>
        <pt x="117" y="198" on="1"/>
        <pt x="113" y="203" on="1"/>
        <pt x="176" y="651" on="1"/>
        <pt x="180" y="654" on="1"/>
        <pt x="194" y="654" on="1"/>
        <pt x="196" y="651" on="1"/>
      </contour>
      <contour>
        <pt x="123" y="38" on="0"/>
        <pt x="123" y="18" on="1"/>
        <pt x="123" y="-2" on="0"/>
        <pt x="103" y="-2" on="1"/>
        <pt x="83" y="-2" on="0"/>
        <pt x="83" y="18" on="1"/>
        <pt x="83" y="38" on="0"/>
        <pt x="103" y="38" on="1"/>
      </contour>
    </TTGlyph>
    <TTGlyph name="exclamdown" xMin="51" yMin="-197" xMax="164" yMax="459">
      <component glyphName="exclam" x="247" y="457" scale="-1.0" flags="0x1000"/>
    </TTGlyph>
    <TTGlyph name="f" xMin="72" yMin="0" xMax="371" yMax="491">
      <contour>
        <pt x="125" y="255" on="1"/>
        <pt x="223" y="255" on="1"/>
        <pt x="300" y="256" on="1"/>
        <pt x="302" y="252" on="1"/>
        <pt x="297" y="236" on="1"/>
        <pt x="123" y="236" on="1"/>
        <pt x="112" y="151" on="1"/>
        <pt x="92" y="0" on="1"/>
        <pt x="72" y="0" on="1"/>
        <pt x="92" y="150" on="1"/>
        <pt x="135" y="491" on="1"/>
        <pt x="370" y="491" on="1"/>
        <pt x="371" y="487" on="1"/>
        <pt x="366" y="471" on="1"/>
        <pt x="153" y="472" on="1"/>
      </contour>
    </TTGlyph>
    <TTGlyph name="f.sups" xMin="83" yMin="247" xMax="288" yMax="807">
      <contour>
        <pt x="282" y="780" on="1"/>
        <pt x="278" y="779" on="1"/>
        <pt x="254" y="790" on="0"/>
        <pt x="232" y="790" on="1"/>
        <pt x="204" y="790" on="0"/>
        <pt x="167" y="747" on="0"/>
        <pt x="162" y="707" on="1"/>
        <pt x="153" y="638" on="1"/>
        <pt x="229" y="638" on="1"/>
        <pt x="231" y="635" on="1"/>
        <pt x="228" y="621" on="1"/>
        <pt x="151" y="621" on="1"/>
        <pt x="132" y="474" on="1"/>
        <pt x="112" y="318" on="1"/>
        <pt x="107" y="250" on="1"/>
        <pt x="83" y="247" on="1"/>
        <pt x="112" y="472" on="1"/>
        <pt x="131" y="621" on="1"/>
        <pt x="86" y="621" on="1"/>
        <pt x="83" y="624" on="1"/>
        <pt x="86" y="638" on="1"/>
        <pt x="133" y="638" on="1"/>
        <pt x="141" y="705" on="1"/>
        <pt x="148" y="754" on="0"/>
        <pt x="196" y="807" on="0"/>
        <pt x="234" y="807" on="1"/>
        <pt x="287" y="800" on="1"/>
        <pt x="288" y="797" on="1"/>
      </contour>
    </TTGlyph>
    <TTGlyph name="firstofchinese" xMin="95" yMin="587" xMax="387" yMax="607">
      <component glyphName="macron" x="0" y="0" flags="0x1000"/>
    </TTGlyph>
    <TTGlyph name="firsttonechinese" xMin="93" yMin="587" xMax="385" yMax="607">
      <contour>
        <pt x="383" y="587" on="1"/>
        <pt x="96" y="587" on="1"/>
        <pt x="93" y="590" on="1"/>
        <pt x="95" y="607" on="1"/>
        <pt x="382" y="607" on="1"/>
        <pt x="385" y="604" on="1"/>
      </contour>
    </TTGlyph>
    <TTGlyph name="five" xMin="12" yMin="-99" xMax="377" yMax="492">
      <contour>
        <pt x="373" y="472" on="1"/>
        <pt x="369" y="470" on="1"/>
        <pt x="328" y="471" on="1"/>
        <pt x="133" y="471" on="1"/>
        <pt x="106" y="265" on="1"/>
        <pt x="170" y="250" on="1"/>
        <pt x="253" y="231" on="0"/>
        <pt x="332" y="159" on="0"/>
        <pt x="332" y="103" on="1"/>
        <pt x="332" y="45" on="0"/>
        <pt x="270" y="-47" on="0"/>
        <pt x="158" y="-99" on="0"/>
        <pt x="86" y="-99" on="1"/>
        <pt x="52" y="-99" on="0"/>
        <pt x="14" y="-92" on="1"/>
        <pt x="12" y="-75" on="1"/>
        <pt x="16" y="-72" on="1"/>
        <pt x="55" y="-79" on="0"/>
        <pt x="90" y="-79" on="1"/>
        <pt x="155" y="-79" on="0"/>
        <pt x="256" y="-33" on="0"/>
        <pt x="312" y="49" on="0"/>
        <pt x="312" y="101" on="1"/>
        <pt x="312" y="148" on="0"/>
        <pt x="238" y="211" on="0"/>
        <pt x="161" y="230" on="1"/>
        <pt x="89" y="247" on="1"/>
        <pt x="86" y="252" on="1"/>
        <pt x="115" y="484" on="1"/>
        <pt x="125" y="492" on="1"/>
        <pt x="174" y="491" on="1"/>
        <pt x="310" y="491" on="1"/>
        <pt x="375" y="492" on="1"/>
        <pt x="377" y="490" on="1"/>
      </contour>
    </TTGlyph>
</ttFont>
